<?xml version="1.0" encoding="UTF-8"?>
<!-- Generator: Adobe Illustrator 25.1.0, SVG Export Plug-In . SVG Version: 6.00 Build 0)  -->
<svg xmlns="http://www.w3.org/2000/svg" xmlns:xlink="http://www.w3.org/1999/xlink" version="1.1" id="Capa_1" x="0px" y="0px" viewBox="0 0 500 500" style="enable-background:new 0 0 500 500;" xml:space="preserve" width="512" height="512">
<g>
	<g>
		<g>
			<polygon style="fill:#00ADB4;" points="180.944,150.789 199.299,173.573 188.801,174.811 170.445,152.027    "/>
		</g>
		<g>
			<polygon style="fill:#00DCCD;" points="227.238,128.978 245.594,151.762 248.328,165.349 229.973,142.565    "/>
		</g>
		<g>
			<polygon style="fill:#00ADB4;" points="229.973,142.565 248.328,165.349 233.348,169.976 214.993,147.192    "/>
		</g>
		<polygon style="fill:#00DCCD;" points="239.848,368.467 221.488,345.681 220.278,308.505 220.278,308.485 219.424,282.543     216.804,202.593 215.951,176.532 214.998,147.196 233.358,169.982 234.152,194.217 234.926,217.639 237.625,300.188     237.625,300.208 238.38,323.53   "/>
		<polygon style="fill:#FFFFFF;" points="227.238,128.978 229.973,142.565 214.993,147.192 221.494,345.685 233.64,342.942     233.64,355.504 174.23,368.068 171.668,353.044 184.485,350.375 180.944,150.789 170.445,152.027 168.501,139.08   "/>
		<path style="fill:#FFE87A;" d="M229.666,347.904v4.386l-52.221,11.036l-1.211-7.185l9.051-1.886    c1.866-0.377,3.196-2.044,3.176-3.95l-1.191-66.85l-0.595-33.385l-1.767-99.361c-0.02-1.112-0.516-2.163-1.35-2.918    c-0.734-0.635-1.667-0.973-2.62-0.973c-0.139,0-0.298,0-0.456,0.02l-6.689,0.794l-0.794-5.3l51.11-8.793l1.27,6.292l-11.552,3.573    c-1.707,0.516-2.858,2.124-2.799,3.91l3.176,97.218l1.092,33.623l2.223,67.663c0.04,1.171,0.615,2.283,1.548,2.997    c0.695,0.556,1.548,0.834,2.422,0.834c0.298,0,0.595-0.02,0.873-0.099L229.666,347.904z"/>
		<polygon style="fill:#00DCCD;" points="233.64,342.942 251.996,365.726 251.995,378.288 233.64,355.504   "/>
		<polygon style="fill:#00ADB4;" points="233.64,355.504 251.995,378.288 192.585,390.852 174.23,368.068   "/>
		<path style="fill:#FFB95E;" d="M222.362,349.551l7.304-1.647v4.386l-52.221,11.036l-1.211-7.185l9.051-1.886    c1.866-0.377,3.196-2.044,3.176-3.95l-1.786-100.235c8.991-1.886,18.181-3.732,27.53-5.538l3.315,101.287    c0.04,1.171,0.615,2.283,1.548,2.997c0.695,0.556,1.548,0.834,2.422,0.834C221.786,349.651,222.084,349.631,222.362,349.551z"/>
		<path style="fill:#FF8223;" d="M222.362,349.551l7.304-1.647v4.386l-52.221,11.036l-1.211-7.185l9.051-1.886    c1.866-0.377,3.196-2.044,3.176-3.95l-1.191-66.85c9.15-1.806,18.519-3.573,28.026-5.3l2.223,67.663    c0.04,1.171,0.615,2.283,1.548,2.997c0.695,0.556,1.548,0.834,2.422,0.834C221.786,349.651,222.084,349.631,222.362,349.551z"/>
		<polygon style="fill:#9AFFF4;" points="234.926,217.639 216.804,202.593 215.951,176.532 234.152,194.217   "/>
		<polygon style="fill:#9AFFF4;" points="220.278,308.505 220.278,308.485 219.424,282.543 237.625,300.188 237.625,300.208     238.38,323.53   "/>
	</g>
	<g>
		<polygon style="fill:#00ADB4;" points="275.845,143.696 294.2,166.48 284.548,167.155 266.193,144.371   "/>
		<polygon style="fill:#00ADB4;" points="320.277,133.864 338.633,156.648 330.826,158.619 312.471,135.835   "/>
		<g style="enable-background:new    ;">
			<defs>
				<path id="SVGID_1_" style="enable-background:new    ;" d="M266.193,144.371l18.355,22.784      c-0.395,1.936-7.903,38.726-8.235,40.157l-18.355-22.784C258.289,183.097,265.798,146.307,266.193,144.371z"/>
			</defs>
			<use xlink:href="#SVGID_1_" style="overflow:visible;fill:#00ADB4;"/>
			<clipPath id="SVGID_2_">
				<use xlink:href="#SVGID_1_" style="overflow:visible;"/>
			</clipPath>
			<path style="clip-path:url(#SVGID_2_);fill:#00DCCD;" d="M266.193,144.371l18.355,22.784c-0.395,1.936-7.903,38.726-8.235,40.157     l-18.355-22.784C258.289,183.097,265.798,146.307,266.193,144.371"/>
		</g>
		<polygon style="fill:#00ADB4;" points="257.958,184.527 276.313,207.311 261.751,210.449 243.396,187.665   "/>
		<polygon style="fill:#00DCCD;" points="342.307,114.653 360.663,137.437 362.873,194.187 344.517,171.403   "/>
		<polygon style="fill:#00ADB4;" points="344.517,171.403 362.873,194.187 350.774,196.093 332.419,173.309   "/>
		<polygon style="fill:#00DCCD;" points="337.889,357.45 319.529,334.664 318.398,302.847 317.465,276.786 314.924,204.935     313.972,178.516 312.463,135.842 330.823,158.628 332.153,196.182 333.006,219.96 335.646,294.451 336.48,317.873   "/>
		<polygon style="fill:#00DCCD;" points="332.361,332.714 350.717,355.498 352.134,368.482 333.778,345.699   "/>
		<path style="fill:#FFFFFF;" d="M342.307,114.653l2.21,56.75l-12.099,1.906l-12.142-39.444l-7.807,1.971l7.055,198.836    l12.836-1.957l1.417,12.984l-66.21,12.049l0.382-12.763l13.168-2.676l-5.273-198.613l-9.652,0.675    c-0.395,1.936-7.903,38.726-8.235,40.157l-14.562,3.138l-1.811-54.293L342.307,114.653z"/>
		<path style="fill:#FFE87A;" d="M308.513,135.981l2.818,79.394l1.231,34.874l2.997,84.554c0.04,1.131,0.556,2.203,1.429,2.918    c0.714,0.596,1.628,0.913,2.541,0.913c0.198,0,0.397,0,0.596-0.04l8.733-1.33l0.576,5.18l-57.759,10.52l0.159-4.724l10.083-2.044    c1.885-0.377,3.215-2.064,3.176-3.989l-2.362-88.445l-0.913-34.576l-2.005-75.603c-0.02-1.072-0.496-2.104-1.29-2.819    c-0.734-0.675-1.687-1.032-2.68-1.032h-0.278l-9.646,0.675c-1.786,0.119-3.255,1.429-3.612,3.176    c-0.992,4.823-6.054,29.614-7.701,37.613l-7.404,1.588l-1.528-46.128l92.851-17.268l1.886,48.649l-5.2,0.814l-11.135-36.144    c-0.536-1.707-2.084-2.818-3.791-2.818c-0.318,0-0.655,0.04-0.972,0.119l-7.82,1.985    C309.684,132.448,308.434,134.115,308.513,135.981z"/>
		<polygon style="fill:#00ADB4;" points="333.778,345.699 352.134,368.482 285.924,380.532 267.568,357.748   "/>
		<path style="fill:#FFB95E;" d="M328.858,337.264l0.576,5.18l-57.759,10.52l0.159-4.724l10.083-2.044    c1.885-0.377,3.215-2.064,3.176-3.989l-3.275-123.021c9.726-1.35,19.571-2.64,29.515-3.811l4.228,119.428    c0.04,1.131,0.556,2.203,1.429,2.918c0.714,0.596,1.628,0.913,2.541,0.913c0.198,0,0.397,0,0.596-0.04L328.858,337.264z"/>
		<path style="fill:#FF8223;" d="M328.858,337.264l0.576,5.18l-57.759,10.52l0.159-4.724l10.083-2.044    c1.885-0.377,3.215-2.064,3.176-3.989l-2.362-88.445c9.884-1.29,19.848-2.461,29.832-3.513l2.997,84.554    c0.04,1.131,0.556,2.203,1.429,2.918c0.714,0.596,1.628,0.913,2.541,0.913c0.198,0,0.397,0,0.596-0.04L328.858,337.264z"/>
		<polygon style="fill:#9AFFF4;" points="336.48,317.873 318.398,302.847 317.465,276.786 335.646,294.451   "/>
		<polygon style="fill:#9AFFF4;" points="333.006,219.96 314.924,204.935 313.972,178.516 332.153,196.182   "/>
	</g>
	<g>
		<polygon style="fill:#00ADB4;" points="369.196,122.633 387.552,145.417 373.285,147.11 354.929,124.326   "/>
		<polygon style="fill:#00ADB4;" points="407.594,114.649 425.95,137.433 416.712,139.834 398.357,117.05   "/>
		<polygon style="fill:#00DCCD;" points="406.887,101.267 425.243,124.051 425.95,137.433 407.594,114.649   "/>
		<polygon style="fill:#00ADB4;" points="435.407,111.279 453.763,134.063 439.497,135.773 421.141,112.989   "/>
		<polygon style="fill:#00ADB4;" points="473.823,103.293 492.178,126.077 482.942,128.496 464.586,105.712   "/>
		<polygon style="fill:#00DCCD;" points="473.098,89.913 491.454,112.697 492.178,126.077 473.823,103.293   "/>
		<polygon style="fill:#00DCCD;" points="419.055,222.401 400.715,199.615 399.901,171.45 399.186,145.984 398.353,117.045     416.713,139.831 417.387,163.669 418.042,186.495   "/>
		<polygon style="fill:#00ADB4;" points="438.374,204.481 456.73,227.266 419.475,237.238 401.119,214.454   "/>
		<polygon style="fill:#00DCCD;" points="422.369,339.13 404.009,316.344 402.918,277.937 402.184,251.955 401.112,214.461     419.472,237.247 420.384,269.64 421.059,293.022   "/>
		<polygon style="fill:#00ADB4;" points="415.364,326.502 433.72,349.285 383.243,360.599 364.888,337.815   "/>
		<polygon style="fill:#00DCCD;" points="415.433,315.203 433.789,337.987 433.72,349.285 415.364,326.502   "/>
		<polygon style="fill:#00DCCD;" points="488.584,327.776 470.224,304.99 468.874,257.076 468.14,231.055 466.294,166.21     465.58,140.605 464.587,105.712 482.947,128.498 483.781,158.31 484.436,181.275 486.341,248.759 487.016,272.141   "/>
		<polygon style="fill:#00ADB4;" points="481.593,315.164 499.949,337.947 449.454,349.245 431.099,326.461   "/>
		<polygon style="fill:#00DCCD;" points="481.645,303.849 500,326.633 499.949,337.947 481.593,315.164   "/>
		<polygon style="fill:#FFFFFF;" points="470.229,304.994 481.645,303.849 481.593,315.164 431.099,326.461 428.27,313.94     441.77,310.529 438.374,204.481 401.119,214.454 404.018,316.348 415.433,315.203 415.364,326.502 364.888,337.815     362.059,325.294 375.541,321.867 369.196,122.633 354.929,124.326 352.423,110.723 406.887,101.267 407.594,114.649     398.357,117.05 400.707,199.609 437.955,191.358 435.407,111.279 421.141,112.989 418.635,99.386 473.098,89.913 473.823,103.293     464.586,105.712   "/>
		<path style="fill:#FFE87A;" d="M477.648,308.245v3.732l-43.548,9.746l-1.112-4.883l9.746-2.461    c1.826-0.456,3.057-2.104,2.997-3.97l-2.858-89.04l-0.536-17.01c-0.04-1.211-0.615-2.342-1.588-3.057    c-0.695-0.516-1.528-0.794-2.382-0.794c-0.337,0-0.675,0.04-1.012,0.139l-37.256,9.964c-1.786,0.476-2.997,2.124-2.957,3.95    l0.178,6.471l2.739,95.431c0.02,1.092,0.516,2.144,1.33,2.858c0.734,0.655,1.667,0.992,2.62,0.992c0.139,0,0.278,0,0.397-0.02    l7.026-0.695l-0.02,3.712l-43.528,9.765l-1.112-4.883l9.746-2.481c1.806-0.457,3.057-2.104,2.997-3.97l-3.196-100.076    l-1.151-36.045l-2.005-63.118c-0.04-1.111-0.536-2.163-1.389-2.878c-0.715-0.615-1.628-0.953-2.58-0.953    c-0.159,0-0.318,0-0.456,0.02l-10.579,1.25l-1.112-5.994l46.108-7.999l0.298,5.677l-6.093,1.588    c-1.786,0.456-3.017,2.104-2.977,3.95l1.925,67.326l0.437,15.224c0.02,1.191,0.595,2.302,1.529,3.017    c0.695,0.556,1.548,0.854,2.441,0.854c0.278,0,0.576-0.04,0.854-0.099l37.255-8.257c1.846-0.417,3.156-2.084,3.096-3.99    l-0.258-7.86l-2.283-72.229c-0.04-1.111-0.536-2.164-1.389-2.878c-0.714-0.635-1.647-0.973-2.58-0.973    c-0.159,0-0.318,0.02-0.476,0.04l-10.559,1.27l-1.112-5.994l46.108-8.019l0.318,5.677l-6.113,1.608    c-1.786,0.457-3.017,2.104-2.957,3.95l2.203,77.687l1.092,38.903l2.342,82.689c0.04,1.092,0.516,2.144,1.35,2.858    c0.734,0.655,1.667,0.992,2.62,0.992c0.139,0,0.278,0,0.397-0.02L477.648,308.245z"/>
		<path style="fill:#FFB95E;" d="M477.648,308.245v3.732l-43.548,9.746l-1.112-4.883l9.746-2.461    c1.826-0.456,3.057-2.104,2.997-3.97l-3.394-106.05c-0.04-1.211-0.615-2.342-1.588-3.057c-0.695-0.516-1.528-0.794-2.382-0.794    c-0.337,0-0.675,0.04-1.012,0.139l-37.256,9.964c-1.786,0.476-2.997,2.124-2.957,3.95l2.918,101.902    c0.02,1.092,0.516,2.144,1.33,2.858c0.734,0.655,1.667,0.992,2.62,0.992c0.139,0,0.278,0,0.397-0.02l7.026-0.695l-0.02,3.712    l-43.528,9.765l-1.112-4.883l9.746-2.481c1.806-0.457,3.057-2.104,2.997-3.97l-4.347-136.121    c7.026-0.437,14.073-0.814,21.139-1.131l0.437,15.224c0.02,1.191,0.595,2.302,1.529,3.017c0.695,0.556,1.548,0.854,2.441,0.854    c0.278,0,0.576-0.04,0.854-0.099l37.255-8.257c1.846-0.417,3.156-2.084,3.096-3.99l-0.258-7.86c7.066-0.04,14.112,0,21.158,0.139    l3.434,121.592c0.04,1.092,0.516,2.144,1.35,2.858c0.734,0.655,1.667,0.992,2.62,0.992c0.139,0,0.278,0,0.397-0.02    L477.648,308.245z"/>
		<path style="fill:#FF8223;" d="M404.407,320.293l7.026-0.695l-0.02,3.712l-43.528,9.765l-1.112-4.883l9.746-2.481    c1.806-0.457,3.057-2.104,2.997-3.97l-3.196-100.076c7.026-0.298,14.033-0.516,21-0.635l2.739,95.431    c0.02,1.092,0.516,2.144,1.33,2.858c0.734,0.655,1.667,0.992,2.62,0.992C404.148,320.313,404.288,320.313,404.407,320.293z"/>
		<path style="fill:#FF8223;" d="M477.648,308.245v3.732l-43.548,9.746l-1.112-4.883l9.746-2.461    c1.826-0.456,3.057-2.104,2.997-3.97l-2.858-89.04c7.066,0.238,14.092,0.595,21.039,1.052l2.342,82.689    c0.04,1.092,0.516,2.144,1.35,2.858c0.734,0.655,1.667,0.992,2.62,0.992c0.139,0,0.278,0,0.397-0.02L477.648,308.245z"/>
		<polygon style="fill:#9AFFF4;" points="418.042,186.495 399.901,171.45 399.186,145.984 417.387,163.669   "/>
		<polygon style="fill:#9AFFF4;" points="484.436,181.275 466.294,166.21 465.58,140.605 483.781,158.31   "/>
		<polygon style="fill:#9AFFF4;" points="487.016,272.141 468.874,257.076 468.14,231.055 486.341,248.759   "/>
		<polygon style="fill:#9AFFF4;" points="421.059,293.022 402.918,277.937 402.184,251.955 420.384,269.64   "/>
	</g>
	<g>
		<g>
			<polygon style="fill:#00ADB4;" points="12.519,178.999 30.874,201.782 20.53,202.871 2.174,180.087    "/>
		</g>
		<polygon style="fill:#00ADB4;" points="58.779,170.464 77.134,193.248 65.387,195.129 47.031,172.346   "/>
		<polygon style="fill:#00DCCD;" points="56.586,155.432 74.942,178.215 77.134,193.248 58.779,170.464   "/>
		<g>
			<polygon style="fill:#00ADB4;" points="128.495,156.05 146.851,178.834 135.103,180.715 116.748,157.931    "/>
		</g>
		<g>
			<polygon style="fill:#00DCCD;" points="151.274,138.559 169.63,161.343 171.747,173.566 153.392,150.782    "/>
		</g>
		<g>
			<polygon style="fill:#00ADB4;" points="153.392,150.782 171.747,173.566 162.557,177.736 144.202,154.952    "/>
		</g>
		<polygon style="fill:#00DCCD;" points="83.411,308.385 65.051,285.599 59.295,249.376 54.749,220.814 54.73,220.794     47.028,172.344 65.388,195.13 72.176,237.745 75.789,260.431 75.789,260.471   "/>
		<polygon style="fill:#9AFFF4;" points="75.789,260.431 75.789,260.471 75.59,262.932 59.295,249.376 54.749,220.814     72.176,237.745   "/>
		<polygon style="fill:#00DCCD;" points="140.415,299.791 122.056,277.025 112.647,235.303 105.621,204.161 99.766,178.199     118.106,200.985 122.532,220.576 128.903,248.8   "/>
		<polygon style="fill:#9AFFF4;" points="128.903,248.8 112.647,235.303 105.621,204.161 122.532,220.576   "/>
		<polygon style="fill:#00ADB4;" points="71.579,383.042 89.934,405.826 64.29,410.087 45.934,387.303   "/>
		<polygon style="fill:#00DCCD;" points="83.965,270.14 102.321,292.924 89.934,405.826 71.579,383.042   "/>
		<path style="fill:#FFFFFF;" d="M151.274,138.559l2.118,12.223l-9.19,4.17l-13.601,215.484l-22.406,4.399L83.965,270.14    L71.579,383.042l-25.644,4.26L12.519,178.999l-10.344,1.088L0,165.748l56.586-10.316l2.192,15.033l-11.748,1.881l18.022,113.261    c0.649-5.206,12.971-104.117,14.042-104.191c1.071-0.075,19.682-3.06,20.661-3.217l22.298,98.818l6.441-120.966l-11.747,1.881    l-1.047-12.298L151.274,138.559z"/>
		<path style="fill:#FFE87A;" d="M148.95,148.427l-6.391,2.918c-1.33,0.595-2.223,1.886-2.322,3.354l-7.979,126.395l-2.084,33.008    l-3.334,53.035l-15.641,3.057l-11.294-48.788l-6.947-30.051l-5.121-22.111c-0.417-1.806-2.024-3.076-3.87-3.076h-0.238    c-1.925,0.119-3.493,1.608-3.712,3.533l-2.858,26.061l-3.553,32.413l-5.637,51.447l-18.757,3.116l-7.364-45.91l-4.684-29.217    L16.442,178.378c-0.318-1.945-1.985-3.354-3.91-3.354c-0.139,0-0.278,0.02-0.437,0.02l-6.57,0.695l-1.012-6.768l48.748-8.892    l1.032,7.086l-7.9,1.27c-2.144,0.338-3.632,2.382-3.275,4.545l18.022,113.255c0.298,1.925,1.965,3.334,3.91,3.334h0.079    c1.965-0.02,3.612-1.508,3.87-3.473c5.319-42.833,11.453-90.112,13.338-101.128c2.838-0.437,7.642-1.191,14.37-2.263    l21.476,95.193c0.417,1.806,2.024,3.096,3.87,3.096c0.099,0,0.218-0.02,0.338-0.02c1.965-0.179,3.513-1.767,3.632-3.751    l6.431-120.957c0.06-1.211-0.417-2.362-1.31-3.176c-0.734-0.655-1.687-1.012-2.66-1.012c-0.198,0-0.417,0.02-0.615,0.06    l-7.523,1.191l-0.397-4.486l28.105-5.597L148.95,148.427z"/>
		<polygon style="fill:#00ADB4;" points="130.601,370.436 148.956,393.22 126.551,397.619 108.195,374.835   "/>
		<polygon style="fill:#00DCCD;" points="162.566,177.743 160.403,211.882 159.033,233.557 153.595,319.838 152.245,340.996     148.95,393.218 130.61,370.432 133.449,325.376 134.937,301.716 140.237,217.956 141.765,193.76 144.207,154.957   "/>
		<path style="fill:#FFB95E;" d="M37.164,307.611c11.552-3.573,24.969-7.582,39.995-11.849l-9.19,83.86l-18.757,3.116    L37.164,307.611z"/>
		<path style="fill:#FFB95E;" d="M92.958,291.355c12.247-3.334,25.386-6.788,39.3-10.262l-5.419,86.043l-15.641,3.057    L92.958,291.355z"/>
		<path style="fill:#FF8223;" d="M41.848,336.828c9.071-2.56,19.729-5.498,31.758-8.654l-5.637,51.447l-18.757,3.116L41.848,336.828    z"/>
		<path style="fill:#FF8223;" d="M99.905,321.406c9.547-2.362,19.65-4.823,30.269-7.304l-3.334,53.035l-15.641,3.057L99.905,321.406    z"/>
		<polygon style="fill:#9AFFF4;" points="160.403,211.882 159.033,233.557 140.237,217.956 141.765,193.76   "/>
		<polygon style="fill:#9AFFF4;" points="153.595,319.838 152.245,340.996 133.449,325.376 134.937,301.716   "/>
	</g>
</g>















</svg>
