<?xml version="1.0" encoding="UTF-8"?>
<!-- Generator: Adobe Illustrator 25.1.0, SVG Export Plug-In . SVG Version: 6.00 Build 0)  -->
<svg xmlns="http://www.w3.org/2000/svg" xmlns:xlink="http://www.w3.org/1999/xlink" version="1.1" id="Capa_1" x="0px" y="0px" viewBox="0 0 500 500" style="enable-background:new 0 0 500 500;" xml:space="preserve" width="512" height="512">
<g>
	<g>
		<g>
			<path style="fill:#F8301B;" d="M480.042,99.183c-1.046-1.695-1.575-3.191-3.253-4.462c-1.75-1.326-3.883-2.064-6.03-2.43     c-5.158-0.879-11.631-0.553-16.349,1.81c-3.505,1.756-6.28,4.736-8.381,8.046c-2.614,4.118-4.328,8.779-6.293,13.221     c-4.569,10.328-13.474,30.531-23.313,53.537c-8.653-18.277-17.305-36.389-25.957-54.361c-0.047-0.088-0.094-0.177-0.14-0.265     c-0.788-1.361-1.577-2.72-2.365-4.079c-0.212-0.367-0.484-0.691-0.803-0.962c-0.045-0.039-0.113-0.151-0.212-0.329     c-2.778-6.868-11.265-7.836-18.406-6.253c-6.534,1.448-13.634,3.052-15.937,11.375c-0.315,1.139-0.464,2.317-0.537,3.496     c-1.298,20.964-0.522,42.134-0.522,63.134c0,1.785,0,3.57,0,5.356c0,5.743-0.073,11.501-0.148,17.261     c-0.073,5.796-0.148,11.594-0.148,17.377c0,27.39,0,54.78,0,82.17c0,5.899,0.88,9.884,2.837,12.643     c1.02,1.342,2.07,2.085,3.639,2.962c1.548,0.745,3.273,0.871,4.926,0.911c1.543,0.21,3.027,0.194,4.417-0.05     c0.689-0.121,1.379-0.241,2.068-0.361c2.609-0.452,5.857-1.002,9.037-2.713c7.67-4.188,7.67-11.39,7.67-13.774     c0-4.404-0.001-8.807-0.002-13.211c0.291-14.89,0.593-30.285,0.593-45.405c0-9.754,0-19.508,0-29.262     c0-9.532,0-19.253,0.06-29.004c2.343,4.834,4.61,9.546,6.863,14.237c3.135,6.529,6.243,13.017,9.489,19.75     c2.384,4.946,7.464,8.202,12.945,7.871c0.32-0.019,0.641-0.049,0.963-0.089c4.106-0.53,8.049-2.78,11.085-6.353     c0.303-0.357,0.548-0.769,0.738-1.197c4.578-10.334,8.716-19.916,12.855-29.457c1.362-3.146,2.727-6.285,4.106-9.446     c0,9.011,0,18.022,0,27.033c0,2.654-0.075,5.236-0.149,7.783c-0.075,2.562-0.146,5.087-0.146,7.608     c0,2.121,0.075,4.31,0.149,6.502c0.075,2.086,0.146,4.17,0.146,6.189c0,18.03,0,36.06,0,54.089c0,5.627,0.412,9.746,2.542,13.021     c0.72,1.033,1.559,1.726,2.237,2.283c0.235,0.195,0.482,0.395,0.729,0.629c0.324,0.305,0.698,0.557,1.104,0.74     c1.691,0.76,3.337,1.08,4.773,1.305c1.021,0.288,2.371,0.629,4.136,0.558c0.788-0.031,1.577-0.061,2.365-0.088     c2.607-0.092,5.564-0.176,8.637-1.388c7.774-2.9,7.774-9.731,7.774-12.684c0-4.284,0-8.715,0.296-13.302     c0-7.522,0.075-15.045,0.146-22.567c0.075-7.553,0.149-15.105,0.149-22.658c0-9.754,0-19.508,0-29.262     c0-18.881,0.302-38.097,0.591-56.752c0-10.698,0.257-20.952,0.532-31.81c0.02-3.97,0.04-7.939,0.06-11.909     C481.896,103.801,481.326,101.264,480.042,99.183z"/>
			<path style="fill:#FF7335;" d="M484.621,103.763c-1.69-5.011-7.278-7.723-15.088-7.089c-4.749-0.186-9.359,0.859-13.215,3.746     c-6.299,4.717-8.942,12.61-12.003,19.528c-4.57,10.328-13.474,30.531-23.313,53.536c-8.654-18.279-17.352-36.372-25.961-54.368     c-0.046-0.086-0.091-0.172-0.137-0.258c-0.794-1.358-1.577-2.721-2.366-4.08c-0.212-0.367-0.486-0.688-0.803-0.962     c-0.045-0.039-0.113-0.151-0.212-0.329c-4.01-9.916-19.242-7.473-26.749-3.828c-2.772,1.346-5.279,3.433-6.612,6.212     c-1.115,2.327-1.343,4.966-1.508,7.541c-1.327,20.724-0.534,41.677-0.534,62.445c0,1.579,0,3.158,0,4.738     c0,5.743-0.073,11.501-0.148,17.261c-0.073,5.796-0.148,11.594-0.148,17.377c0,27.39,0,54.78,0,82.17     c0,5.899,0.879,9.884,2.837,12.643c1.02,1.342,2.07,2.085,3.639,2.962c1.549,0.745,3.273,0.871,4.926,0.911     c1.543,0.21,3.027,0.194,4.417-0.05c0.689-0.121,1.379-0.241,2.068-0.361c2.609-0.452,5.862-0.992,9.037-2.713     c7.682-4.164,7.67-11.39,7.67-13.774c-0.001-4.404-0.044-8.807-0.002-13.211c0.145-14.892,0.593-30.285,0.593-45.405     c0-9.754,0-19.508,0-29.262c0-9.532,0-19.253,0.06-29.004c2.343,4.835,4.61,9.546,6.863,14.237     c3.139,6.536,6.25,13.032,9.5,19.773c2.382,4.94,7.46,8.192,12.934,7.85c0.32-0.02,0.641-0.05,0.963-0.091     c4.108-0.519,8.049-2.78,11.085-6.353c0.303-0.357,0.548-0.769,0.738-1.197c4.578-10.334,8.716-19.916,12.855-29.457     c1.362-3.146,2.727-6.285,4.106-9.446c0,9.011,0,18.022,0,27.033c0,2.654-0.075,5.236-0.149,7.783     c-0.075,2.562-0.146,5.087-0.146,7.608c0,2.121,0.075,4.31,0.149,6.502c0.075,2.086,0.146,4.17,0.146,6.189     c0,18.03,0,36.06,0,54.089c0,5.627,0.36,9.781,2.542,13.021c0.703,1.044,1.559,1.726,2.237,2.283     c0.235,0.194,0.483,0.394,0.729,0.629c0.378,0.36,0.837,0.628,1.316,0.833c1.616,0.693,3.185,0.996,4.56,1.212     c1.022,0.288,2.371,0.629,4.136,0.558c0.788-0.031,1.577-0.061,2.365-0.088c2.607-0.092,5.553-0.205,8.637-1.389     c7.747-2.973,7.774-9.731,7.774-12.684c0-4.284,0-8.715,0.296-13.302c0-7.522,0.075-15.045,0.146-22.567     c0.075-7.553,0.149-15.105,0.149-22.658c0-9.754,0-19.508,0-29.262c0-18.881,0.447-38.095,0.591-56.752     c0.083-10.697,0.367-20.95,0.532-31.81c0.06-3.969,0.04-7.939,0.06-11.909C486.476,108.381,485.906,105.843,484.621,103.763z"/>
			<path style="fill:#FFA04A;" d="M489.201,108.343c-1.69-5.011-7.279-7.723-15.088-7.089c-4.706-0.185-9.313,0.814-13.146,3.667     c-6.327,4.71-9.003,12.669-12.073,19.607c-4.569,10.328-13.474,30.531-23.313,53.536c-8.654-18.279-17.352-36.372-25.961-54.368     c-0.046-0.086-0.091-0.172-0.137-0.257c-0.794-1.358-1.577-2.721-2.366-4.08c-0.212-0.367-0.486-0.688-0.803-0.962     c-0.045-0.039-0.113-0.151-0.212-0.329c-3.989-9.865-19.149-7.509-26.635-3.883c-3.192,1.547-6.042,4.09-7.25,7.426     c-0.643,1.776-0.797,3.686-0.924,5.57c-1.401,20.789-0.595,41.805-0.595,62.631c0,1.788,0,3.576,0,5.364     c0,5.743-0.073,11.501-0.148,17.261c-0.073,5.796-0.148,11.594-0.148,17.377c0,27.39,0,54.78,0,82.17     c0,5.899,0.88,9.884,2.837,12.643c1.02,1.342,2.07,2.085,3.639,2.961c1.548,0.745,3.273,0.871,4.926,0.911     c1.543,0.21,3.027,0.194,4.417-0.05c0.689-0.121,1.379-0.241,2.068-0.36c2.609-0.452,5.862-0.992,9.037-2.713     c7.682-4.164,7.67-11.39,7.67-13.774c-0.001-4.403-0.044-8.807-0.002-13.211c0.145-14.892,0.593-30.285,0.593-45.405     c0-9.754,0-19.508,0-29.262c0-9.532,0-19.253,0.06-29.004c2.343,4.835,4.61,9.546,6.863,14.237     c3.139,6.536,6.25,13.032,9.5,19.772c2.382,4.94,7.46,8.192,12.934,7.85c0.32-0.02,0.641-0.05,0.963-0.091     c4.107-0.519,8.048-2.78,11.085-6.352c0.304-0.357,0.548-0.769,0.738-1.198c4.578-10.334,8.716-19.915,12.855-29.457     c1.362-3.145,2.727-6.285,4.107-9.446c0,9.011,0,18.022,0,27.033c0,2.654-0.075,5.236-0.149,7.783     c-0.075,2.561-0.147,5.087-0.146,7.608c0,2.121,0.075,4.31,0.149,6.502c0.075,2.086,0.146,4.17,0.146,6.189     c0,18.03,0,36.06,0,54.09c0,5.627,0.36,9.781,2.542,13.021c0.703,1.044,1.559,1.726,2.237,2.283     c0.235,0.194,0.482,0.394,0.728,0.628c0.379,0.36,0.838,0.629,1.318,0.835c1.616,0.693,3.184,0.995,4.559,1.212     c1.021,0.288,2.371,0.628,4.136,0.558c0.788-0.031,1.577-0.061,2.365-0.088c2.607-0.092,5.553-0.205,8.637-1.389     c7.747-2.973,7.774-9.731,7.774-12.684c0-4.284,0-8.715,0.296-13.302c0-7.522,0.075-15.045,0.146-22.567     c0.074-7.553,0.149-15.105,0.149-22.658c0-9.754,0-19.508,0-29.262c0-18.881,0.446-38.095,0.591-56.752     c0.083-10.697,0.367-20.95,0.532-31.81c0.06-3.969,0.04-7.939,0.06-11.909C491.056,112.961,490.486,110.423,489.201,108.343z"/>
			<path style="fill:#FFD373;" d="M493.781,112.922c-1.112-1.802-1.688-3.356-3.518-4.655c-1.922-1.364-4.25-2.059-6.567-2.355     c-5.544-0.707-12.256-0.253-17.084,2.762c-7.009,4.377-9.954,13.24-13.137,20.434c-4.569,10.328-13.474,30.531-23.313,53.536     c-8.654-18.279-17.352-36.372-25.961-54.368c-0.045-0.085-0.09-0.169-0.135-0.254c-0.794-1.359-1.579-2.723-2.368-4.083     c-0.212-0.367-0.486-0.688-0.803-0.962c-0.045-0.039-0.113-0.151-0.212-0.329c-4.031-9.97-19.438-7.46-26.943-3.737     c-2.716,1.347-5.16,3.428-6.441,6.176c-1.827,3.917-1.663,8.41-1.749,12.627c-0.423,20.693-0.269,41.345-0.269,62.041     c0,5.743-0.073,11.501-0.148,17.261c-0.073,5.796-0.148,11.594-0.148,17.377c0,27.39,0,54.781,0,82.171     c0,5.899,0.88,9.884,2.837,12.643c1.02,1.342,2.07,2.086,3.639,2.962c1.548,0.745,3.273,0.871,4.926,0.911     c1.543,0.21,3.027,0.194,4.417-0.05c0.689-0.121,1.379-0.241,2.068-0.36c2.609-0.452,5.862-0.992,9.037-2.713     c7.682-4.164,7.67-11.39,7.67-13.774c-0.001-4.404-0.044-8.807-0.002-13.211c0.145-14.892,0.593-30.285,0.593-45.405     c0-9.754,0-19.508,0-29.262c0-9.532,0-19.253,0.06-29.004c2.343,4.834,4.61,9.546,6.863,14.237     c3.139,6.536,6.25,13.032,9.5,19.772c2.382,4.94,7.46,8.192,12.934,7.85c0.319-0.02,0.641-0.05,0.963-0.091     c4.108-0.519,8.049-2.78,11.085-6.353c0.303-0.357,0.548-0.768,0.737-1.197c4.578-10.334,8.716-19.916,12.855-29.457     c1.362-3.145,2.727-6.285,4.106-9.446c0,9.011,0,18.022,0,27.033c0,2.654-0.074,5.236-0.149,7.783     c-0.075,2.561-0.147,5.087-0.146,7.608c0,2.121,0.075,4.31,0.149,6.502c0.074,2.086,0.146,4.17,0.146,6.189     c0,18.03,0,36.06,0,54.089c0,5.628,0.36,9.781,2.542,13.021c0.703,1.044,1.559,1.726,2.237,2.283     c0.235,0.194,0.482,0.394,0.729,0.628c0.379,0.36,0.838,0.629,1.318,0.835c1.616,0.693,3.184,0.995,4.559,1.211     c1.021,0.288,2.371,0.629,4.136,0.558c0.788-0.031,1.577-0.061,2.365-0.089c2.607-0.092,5.553-0.205,8.637-1.388     c7.747-2.973,7.774-9.731,7.774-12.684c0-4.284,0-8.715,0.296-13.302c0-7.521,0.075-15.045,0.146-22.567     c0.074-7.553,0.149-15.105,0.149-22.658c0-9.754,0-19.508,0-29.262c0-18.881,0.447-38.095,0.591-56.752     c0.083-10.697,0.367-20.95,0.532-31.81c0.06-3.969,0.04-7.939,0.06-11.909C495.636,117.54,495.065,115.003,493.781,112.922z"/>
			<path style="fill:#FFFFFF;" d="M498.361,117.502c-1.69-5.011-7.279-7.723-15.088-7.089c-3.951-0.155-7.813,0.641-11.188,2.278     c-3.1,1.276-4.695,3.627-5.546,5.056c-0.693,0.818-1.29,1.717-1.87,2.593c-0.26,0.396-0.523,0.793-0.696,1.042     c-1.61,2.118-2.404,4.165-2.978,5.642c-0.284,0.66-1.32,2.999-2.942,6.663c-4.569,10.328-13.474,30.531-23.313,53.537     c-8.653-18.279-17.307-36.393-25.961-54.367c-0.042-0.088-0.088-0.175-0.137-0.259c-0.788-1.361-1.577-2.72-2.365-4.079     c-0.212-0.367-0.484-0.691-0.804-0.962c-0.045-0.039-0.113-0.151-0.212-0.329c-2.777-6.869-11.265-7.836-18.406-6.253     c-3.644,0.469-10.041,2.014-13.696,6.628c-1.713,2.157-2.567,4.708-2.44,7.242c-0.082,0.346-0.196,0.843-0.245,1.425     c-0.319,1.856-0.319,3.521-0.319,4.756c0,2.498,0,5.331-0.26,7.462c-0.024,0.193-0.036,0.386-0.036,0.576     c0,18.424,0,36.848,0,55.272c0,5.743-0.073,11.501-0.148,17.261c-0.073,5.796-0.148,11.594-0.148,17.377     c0,27.39,0,54.78,0,82.171c0,5.899,0.88,9.884,2.837,12.643c1.02,1.342,2.07,2.086,3.639,2.962     c1.548,0.745,3.273,0.871,4.926,0.911c1.543,0.21,3.027,0.194,4.417-0.05c0.689-0.121,1.379-0.241,2.068-0.361     c2.609-0.452,5.857-1.002,9.037-2.713c7.67-4.188,7.67-11.39,7.67-13.774c-0.001-4.404-0.001-8.807-0.002-13.211     c0.291-14.89,0.593-30.285,0.593-45.405c0-9.754,0-19.508,0-29.262c0-9.532,0-19.253,0.06-29.004     c2.343,4.834,4.61,9.546,6.863,14.237c3.591,7.478,7.147,14.904,10.914,22.704c0.228,0.472,0.543,0.886,0.933,1.224     c3.291,2.866,7.301,4.128,11.549,3.604c4.069-0.525,7.978-2.74,11.003-6.256c0.335-0.389,0.612-0.825,0.818-1.289     c4.578-10.335,8.718-19.919,12.857-29.461c1.362-3.146,2.727-6.285,4.106-9.446c0,9.011,0,18.022,0,27.033     c0,2.654-0.074,5.236-0.149,7.783c-0.075,2.562-0.146,5.087-0.146,7.608c0,2.121,0.075,4.31,0.149,6.502     c0.074,2.086,0.146,4.17,0.146,6.189c0,18.03,0,36.06,0,54.089c0,5.627,0.412,9.746,2.542,13.021     c0.72,1.033,1.559,1.726,2.237,2.283c0.227,0.188,0.466,0.382,0.705,0.606c0.346,0.328,0.75,0.594,1.189,0.79     c1.67,0.741,3.294,1.055,4.713,1.278c1.021,0.288,2.371,0.629,4.136,0.558c0.788-0.031,1.577-0.061,2.365-0.089     c2.607-0.092,5.564-0.176,8.637-1.388c7.774-2.9,7.774-9.731,7.774-12.684c0-4.284,0-8.715,0.296-13.302     c0-7.521,0.075-15.045,0.146-22.567c0.075-7.553,0.149-15.105,0.149-22.658c0-9.754,0-19.508,0-29.262     c0-18.881,0.302-38.097,0.591-56.752c0-10.698,0.257-20.952,0.532-31.81c0.02-3.97,0.04-7.939,0.06-11.909     C500.216,122.12,499.645,119.583,498.361,117.502z"/>
			<path style="fill:#FFFFFF;" d="M498.482,117.447c-0.729-1.627-1.749-3.093-3.09-4.184c-2.878-2.343-6.632-2.94-10.236-2.928     c-4.177,0.014-8.566,0.157-12.399,2.006c-3.843,1.855-6.724,5.279-8.865,8.971c-2.282,3.936-4.001,8.222-5.838,12.375     c-4.569,10.328-13.474,30.531-23.313,53.537c-4.483-9.47-8.984-18.932-13.5-28.387c-4.346-9.098-8.446-18.385-13.186-27.285     c-1.511-2.837-3.021-5.989-5.47-8.151c-2.099-1.862-4.876-2.734-7.621-3.048c-5.561-0.637-11.65,0.653-16.643,3.138     c-2.732,1.36-5.187,3.458-6.479,6.222c-1.083,2.316-1.291,4.931-1.448,7.483c-1.265,20.615-0.872,41.476-0.559,62.137     c0.112,7.422-0.026,14.833-0.123,22.263c-0.073,5.796-0.148,11.594-0.148,17.377c0,27.39,0,54.78,0,82.171     c0,5.899,0.88,9.884,2.837,12.643c1.02,1.342,2.07,2.086,3.639,2.962c1.548,0.745,3.273,0.871,4.926,0.911     c1.543,0.21,3.027,0.194,4.417-0.05c0.689-0.121,1.379-0.241,2.068-0.361c2.609-0.452,5.857-1.002,9.037-2.713     c7.67-4.188,7.67-11.39,7.67-13.774c-0.001-4.404-0.001-8.807-0.002-13.211c0.291-14.89,0.593-30.285,0.593-45.405     c0-9.754,0-19.508,0-29.262c0-9.532,0-19.253,0.06-29.004c2.343,4.834,4.61,9.546,6.863,14.237     c3.135,6.529,6.243,13.017,9.489,19.749c2.384,4.946,7.464,8.202,12.945,7.871c0.32-0.019,0.641-0.049,0.963-0.089     c3.117-0.402,6.14-1.796,8.743-4.007c1.666-1.414,2.946-3.239,3.829-5.238c4.282-9.691,8.194-18.745,12.105-27.762     c1.362-3.146,2.727-6.285,4.106-9.446c0,9.011,0,18.022,0,27.033c0,2.654-0.074,5.236-0.149,7.783     c-0.075,2.562-0.146,5.087-0.146,7.608c0,2.121,0.075,4.31,0.149,6.502c0.074,2.086,0.146,4.17,0.146,6.189     c0,18.03,0,36.06,0,54.089c0,5.627,0.412,9.746,2.542,13.021c0.72,1.033,1.559,1.726,2.237,2.283     c0.235,0.195,0.482,0.395,0.729,0.629c0.323,0.305,0.697,0.557,1.103,0.74c1.691,0.76,3.338,1.08,4.774,1.306     c1.021,0.288,2.371,0.629,4.136,0.558c0.788-0.031,1.577-0.061,2.365-0.089c2.607-0.092,5.564-0.176,8.637-1.388     c7.774-2.9,7.774-9.731,7.774-12.684c0-4.284,0-8.715,0.296-13.302c0-7.521,0.075-15.045,0.146-22.567     c0.075-7.553,0.149-15.105,0.149-22.658c0-9.754,0-19.508,0-29.262c0-18.881,0.302-38.097,0.591-56.752     c0-10.698,0.257-20.952,0.532-31.81c0.02-3.969,0.04-7.939,0.06-11.909C499.938,122.222,499.484,119.682,498.482,117.447z"/>
		</g>
		<path style="fill:#FF2EDC;" d="M383.074,333.461c-2.429,0.026-4.733-0.458-6.302-1.834c-1.132-0.993-1.805-2.427-2.14-3.895    c-0.481-2.105-0.488-4.433-0.488-6.588c0-19.966,0-39.932,0-59.897c0-33.186,0.296-66.371,0.296-99.558c0-5.751,0-11.501,0-17.252    c0-1.64,0.102-3.276,0.244-4.91c0.244-2.816,0.192-6.713,2.063-9.076c2.888-3.646,7.97-4.921,12.386-5.343    c2.858-0.273,6.077-0.51,8.765,0.706c3.169,1.435,4.907,5.469,6.436,8.372c2.324,4.414,4.346,9.023,6.504,13.524    c4.499,9.382,8.983,18.772,13.451,28.169c2.115,4.45,4.227,8.901,6.335,13.354c0.752,1.588,2.359,2.572,4.117,2.572    c0.029,0,0.058,0,0.087-0.001c1.801-0.033,3.415-1.122,4.124-2.777c7.137-16.689,14.974-34.685,23.291-53.486    c2.207-4.984,4.179-9.968,7.348-14.452c0.935-1.324,1.957-2.619,3.273-3.564c1.742-1.251,3.893-1.81,5.994-2.174    c2.612-0.452,5.275-0.568,7.916-0.353c1.867,0.152,3.831,0.467,5.352,1.581c2.467,1.808,3.22,5.075,3.22,7.915l-0.059,11.91    c-0.273,10.741-0.532,20.974-0.532,31.832l-0.01,0.604c-0.286,18.416-0.581,37.46-0.581,56.148v29.261    c0,7.423-0.073,14.846-0.145,22.269l-0.012,1.301c-0.068,7.169-0.137,14.34-0.138,21.508c-0.296,4.679-0.296,9.136-0.296,13.448    c0,3.481-0.367,6.741-4.795,8.393c-3.668,1.445-8.423,1.475-12.272,0.888c-2.848-0.434-5.765-1.588-6.955-4.413    c-1.197-2.841-1.116-6.221-1.116-9.243c0-13.382,0-26.765,0-40.147c0-14.008,0-28.019,0-42.023V199.4    c0-1.992-1.178-3.876-3.06-4.527c-0.504-0.174-1.017-0.257-1.522-0.257c-1.79,0-3.456,1.053-4.195,2.747    c-1.382,3.165-5.801,13.357-5.801,13.357c-3.388,7.814-6.816,15.72-10.523,24.106c-0.462,1.046-1.108,2.022-1.94,2.806    c-2.095,1.975-4.477,3.161-6.91,3.475c-0.414,0.05-0.849,0.078-1.28,0.078c-0.024,0-0.048,0-0.072,0    c-3.316-0.023-6.288-2.084-7.729-5.071c-2.414-5.006-4.75-9.875-7.079-14.726l-2.523-5.255c-2.255-4.696-4.524-9.412-6.87-14.252    c-0.778-1.603-2.396-2.582-4.12-2.582c-0.359,0-0.722,0.042-1.084,0.13c-2.089,0.503-3.485,2.492-3.498,4.641    c-0.058,9.687-0.058,19.344-0.058,28.814v29.262c0,15.008-0.299,30.315-0.588,45.118c0,0.03-0.003,13.461-0.003,13.498    c-0.001,5.15-3.177,9.003-7.829,10.886C389.508,332.555,386.188,333.428,383.074,333.461z"/>
		<path style="fill:#FFFFFF;" d="M383.926,319.68c0-1.26,1.031-2.268,2.29-2.268l0,0c1.259,0,2.29,1.031,2.29,2.29l0,0    c-0.023,1.26-1.031,2.29-2.313,2.29l0,0C384.933,321.992,383.926,320.962,383.926,319.68z"/>
		<path style="fill:#FFFFFF;" d="M386.215,312.832c-1.259-0.022-2.29-1.03-2.267-2.312l0,0c0-1.26,1.031-2.29,2.29-2.268l0,0    c1.26,0,2.29,1.031,2.29,2.29l0,0c-0.022,1.26-1.03,2.29-2.29,2.29l0,0C386.238,312.832,386.238,312.832,386.215,312.832z"/>
		<path style="fill:#FFFFFF;" d="M478.66,302.917c0-1.283,1.007-2.29,2.29-2.29l0,0c1.259,0,2.29,1.007,2.29,2.29l0,0    c0,1.26-1.031,2.29-2.29,2.29l0,0C479.668,305.207,478.66,304.177,478.66,302.917z"/>
		<path style="fill:#FFFFFF;" d="M386.238,303.672c-1.259,0-2.29-1.03-2.266-2.312l0,0c0-1.26,1.031-2.268,2.29-2.268l0,0    c1.259,0,2.29,1.031,2.29,2.29l0,0c-0.024,1.26-1.031,2.29-2.29,2.29l0,0C386.261,303.672,386.261,303.672,386.238,303.672z"/>
		<path style="fill:#FFFFFF;" d="M478.66,293.757c0-1.283,1.007-2.29,2.29-2.29l0,0c1.259,0,2.29,1.007,2.29,2.29l0,0    c0,1.26-1.031,2.29-2.29,2.29l0,0C479.668,296.047,478.66,295.017,478.66,293.757z"/>
		<path style="fill:#FFFFFF;" d="M386.261,294.513c-1.259,0-2.29-1.03-2.268-2.312l0,0c0-1.26,1.031-2.268,2.29-2.268l0,0    c1.26,0,2.29,1.031,2.29,2.29l0,0c-0.022,1.26-1.03,2.29-2.29,2.29l0,0C386.261,294.513,386.261,294.513,386.261,294.513z"/>
		<path style="fill:#FFFFFF;" d="M478.66,284.597c0-1.282,1.007-2.29,2.29-2.29l0,0c1.259,0,2.29,1.008,2.29,2.29l0,0    c0,1.26-1.031,2.29-2.29,2.29l0,0C479.668,286.887,478.66,285.857,478.66,284.597z"/>
		<path style="fill:#FFFFFF;" d="M386.284,285.353c-1.259,0-2.29-1.03-2.266-2.312l0,0c0-1.26,1.03-2.268,2.29-2.268l0,0    c1.259,0,2.29,1.031,2.29,2.29l0,0c-0.024,1.26-1.031,2.29-2.29,2.29l0,0C386.307,285.353,386.307,285.353,386.284,285.353z"/>
		<path style="fill:#FFFFFF;" d="M478.66,275.437c0-1.283,1.007-2.29,2.29-2.29l0,0c1.259,0,2.29,1.007,2.29,2.29l0,0    c0,1.26-1.031,2.29-2.29,2.29l0,0C479.668,277.727,478.66,276.697,478.66,275.437z"/>
		<path style="fill:#FFFFFF;" d="M384.04,273.903c0-1.283,1.031-2.312,2.29-2.29l0,0c1.26,0,2.29,1.031,2.268,2.29l0,0    c0,1.26-1.008,2.29-2.29,2.29l0,0C385.047,276.193,384.017,275.163,384.04,273.903z"/>
		<path style="fill:#FFFFFF;" d="M478.66,266.278c0-1.282,1.007-2.29,2.29-2.29l0,0c1.259,0,2.29,1.008,2.29,2.29l0,0    c0,1.26-1.031,2.29-2.29,2.29l0,0C479.668,268.568,478.66,267.538,478.66,266.278z"/>
		<path style="fill:#FFFFFF;" d="M386.33,267.033c-1.259-0.022-2.29-1.03-2.266-2.312l0,0c0-1.26,1.03-2.29,2.29-2.268l0,0    c1.259,0,2.29,1.031,2.29,2.29l0,0c-0.023,1.26-1.031,2.29-2.29,2.29l0,0H386.33z"/>
		<path style="fill:#FFFFFF;" d="M478.66,257.118c0-1.282,1.007-2.29,2.29-2.29l0,0c1.259,0,2.29,1.007,2.29,2.29l0,0    c0,1.26-1.031,2.29-2.29,2.29l0,0C479.668,259.408,478.66,258.378,478.66,257.118z"/>
		<path style="fill:#FFFFFF;" d="M386.353,257.874c-1.26,0-2.29-1.03-2.267-2.312l0,0c0-1.26,1.031-2.267,2.29-2.267l0,0    c1.26,0,2.29,1.031,2.267,2.29l0,0c0,1.26-1.007,2.29-2.267,2.29l0,0H386.353z"/>
		<path style="fill:#FFFFFF;" d="M478.66,247.958c0-1.283,1.007-2.29,2.29-2.29l0,0c1.259,0,2.29,1.007,2.29,2.29l0,0    c0,1.26-1.031,2.29-2.29,2.29l0,0C479.668,250.248,478.66,249.218,478.66,247.958z"/>
		<path style="fill:#FFFFFF;" d="M386.375,248.714c-1.259,0-2.29-1.03-2.267-2.312l0,0c0-1.26,1.03-2.268,2.29-2.268l0,0    c1.259,0,2.29,1.031,2.29,2.29l0,0c0,1.26-1.031,2.29-2.29,2.29l0,0H386.375z"/>
		<path style="fill:#FFFFFF;" d="M478.66,238.798c0-1.282,1.007-2.29,2.29-2.29l0,0c1.259,0,2.29,1.008,2.29,2.29l0,0    c0,1.26-1.031,2.29-2.29,2.29l0,0C479.668,241.088,478.66,240.059,478.66,238.798z"/>
		<path style="fill:#FFFFFF;" d="M384.131,237.242c0-1.26,1.031-2.268,2.29-2.268l0,0c1.26,0,2.29,1.031,2.29,2.29l0,0    c0,1.26-1.03,2.29-2.312,2.29l0,0C385.139,239.554,384.109,238.525,384.131,237.242z"/>
		<path style="fill:#FFFFFF;" d="M478.66,229.639c0-1.283,1.007-2.29,2.29-2.29l0,0c1.259,0,2.29,1.007,2.29,2.29l0,0    c0,1.26-1.031,2.29-2.29,2.29l0,0C479.668,231.929,478.66,230.899,478.66,229.639z"/>
		<path style="fill:#FFFFFF;" d="M384.155,228.082c0-1.26,1.03-2.29,2.29-2.268l0,0c1.259,0,2.29,1.031,2.29,2.29l0,0    c0,1.26-1.053,2.29-2.314,2.29l0,0C385.162,230.372,384.155,229.365,384.155,228.082z"/>
		<path style="fill:#FFFFFF;" d="M478.66,220.479c0-1.283,1.007-2.29,2.29-2.29l0,0c1.259,0,2.29,1.007,2.29,2.29l0,0    c0,1.26-1.031,2.29-2.29,2.29l0,0C479.668,222.769,478.66,221.739,478.66,220.479z"/>
		<path style="fill:#FFFFFF;" d="M433.343,222.174c-1.123-0.573-1.558-1.947-0.985-3.068l0,0c0.596-1.145,1.969-1.581,3.092-1.009    l0,0c1.122,0.596,1.558,1.97,0.985,3.092l0,0c-0.413,0.802-1.214,1.237-2.038,1.237l0,0    C434.053,222.426,433.686,222.357,433.343,222.174z"/>
		<path style="fill:#FFFFFF;" d="M386.445,221.235c-1.26-0.022-2.268-1.03-2.268-2.312l0,0c0-1.26,1.031-2.268,2.29-2.268l0,0    c1.26,0,2.29,1.031,2.29,2.29l0,0c0,1.26-1.03,2.29-2.29,2.29l0,0H386.445z"/>
		<path style="fill:#FFFFFF;" d="M427.801,213.954c-0.642-1.1-0.275-2.497,0.824-3.138l0,0c1.076-0.642,2.496-0.275,3.137,0.824l0,0    c0.641,1.099,0.274,2.496-0.825,3.137l0,0c-0.366,0.206-0.755,0.321-1.145,0.321l0,0    C428.992,215.098,428.236,214.686,427.801,213.954z"/>
		<path style="fill:#FFFFFF;" d="M437.556,214.044c-1.145-0.595-1.58-1.969-1.007-3.091l0,0c0.595-1.123,1.969-1.58,3.092-0.985l0,0    c1.122,0.572,1.556,1.947,0.984,3.068l0,0c-0.412,0.802-1.213,1.26-2.037,1.26l0,0    C438.243,214.297,437.877,214.205,437.556,214.044z"/>
		<path style="fill:#FFFFFF;" d="M478.66,211.319c0-1.282,1.007-2.29,2.29-2.29l0,0c1.259,0,2.29,1.008,2.29,2.29l0,0    c0,1.26-1.031,2.29-2.29,2.29l0,0C479.668,213.609,478.66,212.579,478.66,211.319z"/>
		<path style="fill:#FFFFFF;" d="M386.467,212.075c-1.259,0-2.266-1.03-2.266-2.312l0,0c0-1.26,1.03-2.268,2.29-2.268l0,0    c1.259,0,2.29,1.031,2.29,2.29l0,0c0,1.26-1.031,2.29-2.29,2.29l0,0H386.467z"/>
		<path style="fill:#FFFFFF;" d="M423.175,206.053c-0.642-1.099-0.275-2.496,0.801-3.137l0,0c1.1-0.641,2.497-0.275,3.137,0.824l0,0    c0.642,1.099,0.275,2.497-0.802,3.138l0,0c-0.366,0.207-0.778,0.321-1.167,0.321l0,0    C424.366,207.198,423.587,206.785,423.175,206.053z"/>
		<path style="fill:#FFFFFF;" d="M441.746,205.893c-1.145-0.573-1.58-1.97-0.985-3.092l0,0c0.572-1.123,1.947-1.557,3.069-0.985l0,0    c1.121,0.572,1.58,1.969,0.984,3.092l0,0c-0.389,0.778-1.191,1.237-2.037,1.237l0,0    C442.433,206.144,442.067,206.075,441.746,205.893z"/>
		<path style="fill:#FFFFFF;" d="M478.66,202.16c0-1.283,1.007-2.29,2.29-2.29l0,0c1.259,0,2.29,1.007,2.29,2.29l0,0    c0,1.26-1.031,2.29-2.29,2.29l0,0C479.668,204.449,478.66,203.42,478.66,202.16z"/>
		<path style="fill:#FFFFFF;" d="M386.49,202.915c-1.26,0-2.267-1.03-2.267-2.312l0,0c0-1.26,1.031-2.268,2.29-2.268l0,0    c1.26,0,2.29,1.031,2.29,2.29l0,0c0,1.26-1.03,2.29-2.29,2.29l0,0H386.49z"/>
		<path style="fill:#FFFFFF;" d="M418.526,198.152c-0.641-1.076-0.252-2.496,0.825-3.136l0,0c1.099-0.642,2.496-0.275,3.136,0.824    l0,0c0.642,1.099,0.275,2.496-0.824,3.137l0,0c-0.367,0.206-0.756,0.32-1.145,0.32l0,0    C419.717,199.297,418.961,198.886,418.526,198.152z"/>
		<path style="fill:#FFFFFF;" d="M445.937,197.741c-1.123-0.573-1.58-1.947-0.985-3.069l0,0c0.573-1.122,1.947-1.58,3.068-0.984l0,0    c1.123,0.572,1.581,1.947,0.985,3.068l0,0c-0.389,0.802-1.191,1.237-2.038,1.237l0,0    C446.624,197.992,446.258,197.924,445.937,197.741z"/>
		<path style="fill:#FFFFFF;" d="M478.66,193c0-1.282,1.007-2.29,2.29-2.29l0,0c1.259,0,2.29,1.008,2.29,2.29l0,0    c0,1.26-1.031,2.29-2.29,2.29l0,0C479.668,195.29,478.66,194.26,478.66,193z"/>
		<path style="fill:#FFFFFF;" d="M384.246,191.443c0-1.26,1.03-2.268,2.29-2.268l0,0c1.259,0,2.29,1.031,2.29,2.29l0,0    c0,1.26-1.031,2.29-2.313,2.29l0,0C385.254,193.756,384.246,192.726,384.246,191.443z"/>
		<path style="fill:#FFFFFF;" d="M413.9,190.252c-0.641-1.077-0.274-2.497,0.825-3.137l0,0c1.076-0.641,2.472-0.275,3.114,0.824l0,0    c0.641,1.099,0.275,2.497-0.802,3.138l0,0c-0.367,0.206-0.756,0.321-1.167,0.321l0,0    C415.091,191.397,414.335,190.985,413.9,190.252z"/>
		<path style="fill:#FFFFFF;" d="M450.128,189.611c-1.123-0.595-1.558-1.969-0.985-3.092l0,0c0.572-1.122,1.947-1.556,3.068-0.984    l0,0c1.145,0.572,1.58,1.947,1.007,3.092l0,0c-0.412,0.778-1.213,1.237-2.037,1.237l0,0    C450.815,189.863,450.471,189.772,450.128,189.611z"/>
		<path style="fill:#FFFFFF;" d="M478.66,183.84c0-1.282,1.007-2.29,2.29-2.29l0,0c1.259,0,2.29,1.008,2.29,2.29l0,0    c0,1.26-1.031,2.29-2.29,2.29l0,0C479.668,186.13,478.66,185.1,478.66,183.84z"/>
		<path style="fill:#FFFFFF;" d="M386.536,184.596c-1.26-0.022-2.268-1.03-2.268-2.312l0,0c0-1.26,1.031-2.29,2.29-2.267l0,0    c1.26,0,2.29,1.031,2.29,2.29l0,0c0,1.26-1.03,2.29-2.29,2.29l0,0H386.536z"/>
		<path style="fill:#FFFFFF;" d="M409.275,182.352c-0.641-1.099-0.274-2.496,0.802-3.137l0,0c1.099-0.641,2.496-0.274,3.137,0.825    l0,0c0.641,1.099,0.275,2.496-0.824,3.136l0,0c-0.344,0.207-0.756,0.321-1.145,0.321l0,0    C410.466,183.497,409.687,183.084,409.275,182.352z"/>
		<path style="fill:#FFFFFF;" d="M454.318,181.458c-1.122-0.572-1.556-1.945-0.984-3.091l0,0c0.572-1.123,1.969-1.557,3.092-0.985    l0,0c1.121,0.595,1.556,1.969,0.984,3.092l0,0c-0.411,0.778-1.213,1.237-2.037,1.237l0,0    C455.005,181.711,454.662,181.642,454.318,181.458z"/>
		<path style="fill:#FFFFFF;" d="M478.66,174.68c0-1.283,1.007-2.29,2.29-2.29l0,0c1.259,0,2.29,1.007,2.29,2.29l0,0    c0,1.26-1.031,2.29-2.29,2.29l0,0C479.668,176.97,478.66,175.94,478.66,174.68z"/>
		<path style="fill:#FFFFFF;" d="M404.627,174.452c-0.642-1.1-0.275-2.497,0.824-3.137l0,0c1.077-0.642,2.496-0.275,3.137,0.824l0,0    c0.641,1.077,0.275,2.496-0.824,3.138l0,0c-0.367,0.206-0.756,0.321-1.145,0.321l0,0    C405.817,175.597,405.062,175.184,404.627,174.452z"/>
		<path style="fill:#FFFFFF;" d="M386.559,175.436c-1.259,0-2.266-1.03-2.266-2.312l0,0c0-1.26,1.03-2.268,2.29-2.268l0,0    c1.259,0,2.29,1.031,2.29,2.29l0,0c0,1.26-1.031,2.29-2.29,2.29l0,0C386.582,175.436,386.582,175.436,386.559,175.436z"/>
		<path style="fill:#FFFFFF;" d="M458.508,173.33c-1.122-0.595-1.556-1.969-0.984-3.092l0,0c0.573-1.122,1.969-1.58,3.091-0.984l0,0    c1.123,0.572,1.558,1.946,0.985,3.068l0,0c-0.413,0.802-1.213,1.259-2.038,1.259l0,0    C459.196,173.581,458.853,173.49,458.508,173.33z"/>
		<path style="fill:#FFFFFF;" d="M478.66,165.52c0-1.282,1.007-2.29,2.29-2.29l0,0c1.259,0,2.29,1.008,2.29,2.29l0,0    c0,1.26-1.031,2.29-2.29,2.29l0,0C479.668,167.81,478.66,166.781,478.66,165.52z"/>
		<path style="fill:#FFFFFF;" d="M400.001,166.551c-0.642-1.077-0.275-2.496,0.824-3.137l0,0c1.077-0.641,2.497-0.275,3.114,0.824    l0,0c0.642,1.099,0.275,2.497-0.801,3.137l0,0c-0.367,0.207-0.779,0.297-1.168,0.297l0,0    C401.192,167.673,400.436,167.284,400.001,166.551z"/>
		<path style="fill:#FFFFFF;" d="M386.582,166.276c-1.26,0-2.268-1.03-2.268-2.312l0,0c0-1.26,1.031-2.268,2.29-2.268l0,0    c1.26,0,2.29,1.031,2.29,2.29l0,0c-0.022,1.26-1.03,2.29-2.29,2.29l0,0C386.605,166.276,386.605,166.276,386.582,166.276z"/>
		<path style="fill:#FFFFFF;" d="M462.699,165.177c-1.121-0.572-1.556-1.969-0.984-3.092l0,0c0.572-1.122,1.969-1.556,3.091-0.984    l0,0c1.123,0.572,1.557,1.969,0.985,3.091l0,0c-0.413,0.779-1.213,1.237-2.038,1.237l0,0    C463.409,165.429,463.042,165.337,462.699,165.177z"/>
		<path style="fill:#FFFFFF;" d="M395.352,158.651c-0.617-1.099-0.274-2.496,0.825-3.136l0,0c1.099-0.642,2.496-0.275,3.137,0.824    l0,0c0.641,1.099,0.274,2.496-0.825,3.138l0,0c-0.366,0.206-0.756,0.32-1.145,0.32l0,0    C396.543,159.796,395.788,159.384,395.352,158.651z"/>
		<path style="fill:#FFFFFF;" d="M478.66,156.361c0-1.283,1.007-2.29,2.29-2.29l0,0c1.259,0,2.29,1.007,2.29,2.29l0,0    c0,1.26-1.031,2.29-2.29,2.29l0,0C479.668,158.651,478.66,157.621,478.66,156.361z"/>
		<path style="fill:#FFFFFF;" d="M466.89,157.025c-1.123-0.572-1.558-1.947-0.962-3.068l0,0c0.572-1.123,1.947-1.58,3.068-1.007l0,0    c1.123,0.595,1.58,1.969,0.985,3.092l0,0c-0.413,0.801-1.214,1.237-2.038,1.237l0,0C467.6,157.278,467.233,157.208,466.89,157.025    z"/>
		<path style="fill:#FFFFFF;" d="M386.605,157.117c-1.259,0-2.266-1.03-2.266-2.312l0,0c0-1.26,1.03-2.267,2.29-2.267l0,0    c1.259,0,2.29,1.031,2.29,2.29l0,0c-0.023,1.26-1.031,2.29-2.29,2.29l0,0C386.628,157.117,386.628,157.117,386.605,157.117z"/>
		<path style="fill:#FFFFFF;" d="M386.605,144.927c-1.259,0-2.266-1.03-2.266-2.312l0,0c0-1.26,1.03-2.267,2.29-2.267l0,0    c1.259,0,2.29,1.031,2.29,2.29l0,0c-0.023,1.26-1.031,2.29-2.29,2.29l0,0C386.628,144.927,386.628,144.927,386.605,144.927z"/>
		<path style="fill:#FFFFFF;" d="M390.727,150.751c-0.642-1.099-0.275-2.497,0.824-3.137l0,0c1.076-0.641,2.496-0.275,3.137,0.824    l0,0c0.641,1.077,0.274,2.497-0.825,3.137l0,0c-0.366,0.206-0.756,0.297-1.167,0.297l0,0    C391.917,151.873,391.162,151.484,390.727,150.751z"/>
		<path style="fill:#FFFFFF;" d="M478.66,147.201c0-1.283,1.007-2.29,2.29-2.29l0,0c1.259,0,2.29,1.007,2.29,2.29l0,0    c0,1.26-1.031,2.29-2.29,2.29l0,0C479.668,149.491,478.66,148.461,478.66,147.201z"/>
		<path style="fill:#FFFFFF;" d="M471.103,148.896c-1.122-0.596-1.58-1.969-1.007-3.092l0,0c0.596-1.122,1.969-1.558,3.092-0.985    l0,0c1.123,0.572,1.58,1.947,0.985,3.069l0,0c-0.39,0.802-1.191,1.259-2.038,1.259l0,0    C471.791,149.148,471.424,149.056,471.103,148.896z"/>
		<path style="fill:#FFFFFF;" d="M475.294,140.744c-1.121-0.572-1.58-1.969-0.984-3.092l0,0c0.572-1.122,1.945-1.556,3.068-0.984    l0,0c1.121,0.595,1.58,1.969,0.984,3.091l0,0c-0.389,0.779-1.19,1.237-2.037,1.237l0,0    C475.981,140.995,475.615,140.927,475.294,140.744z"/>
		<path style="fill:#FFFFFF;" d="M478.66,138.041c0-1.282,1.007-2.29,2.29-2.29l0,0c1.259,0,2.29,1.008,2.29,2.29l0,0    c0,1.26-1.031,2.29-2.29,2.29l0,0C479.668,140.331,478.66,139.301,478.66,138.041z"/>
		<path style="fill:#FFFFFF;" d="M479.485,132.592c-1.123-0.572-1.58-1.947-0.985-3.068l0,0c0.573-1.123,1.947-1.58,3.092-0.985l0,0    c1.123,0.572,1.557,1.947,0.985,3.068l0,0c-0.413,0.802-1.214,1.26-2.061,1.26l0,0    C480.171,132.867,479.805,132.775,479.485,132.592z"/>
	</g>
	<g>
		<g>
			<path style="fill:#F8301B;" d="M278.385,307.265c-7.796,1.836-22.31,5.338-22.309-71.651c0-76.995,14.513-80.497,22.309-82.333     c7.145-1.707,22.015-5.127,22.016,71.878C300.401,302.138,285.531,305.558,278.385,307.265z M278.385,121.939     c-40.208,9.608-56.609,45.083-56.609,121.988c0,76.988,16.316,104.311,56.313,94.75c40.208-9.495,56.609-44.216,56.609-121.851     C334.698,122.36,307.633,114.94,278.385,121.939z"/>
			<path style="fill:#FF7335;" d="M282.965,311.845c-7.796,1.836-22.31,5.338-22.31-71.651c0-76.995,14.513-80.497,22.31-82.333     c7.145-1.707,22.015-5.127,22.015,71.878C304.981,306.718,290.11,310.138,282.965,311.845z M282.965,126.519     c-40.208,9.608-56.609,45.083-56.609,121.988c0,76.987,16.316,104.311,56.313,94.75c40.208-9.495,56.609-44.216,56.609-121.851     C339.278,126.94,312.212,119.52,282.965,126.519z"/>
			<path style="fill:#FFA04A;" d="M287.545,316.425c-7.796,1.836-22.31,5.338-22.31-71.651c0-76.994,14.513-80.497,22.31-82.333     c7.145-1.707,22.015-5.127,22.015,71.878C309.56,311.298,294.69,314.717,287.545,316.425z M287.545,131.099     c-40.208,9.608-56.609,45.083-56.609,121.988c0,76.988,16.316,104.311,56.313,94.75c40.208-9.495,56.609-44.215,56.609-121.851     C343.858,131.52,316.792,124.1,287.545,131.099z"/>
			<path style="fill:#FFD373;" d="M292.125,321.005c-7.796,1.836-22.31,5.338-22.309-71.651c0-76.995,14.513-80.497,22.309-82.333     c7.145-1.707,22.015-5.127,22.016,71.878C314.14,315.878,299.27,319.297,292.125,321.005z M292.125,135.678     c-40.208,9.608-56.609,45.083-56.609,121.988c0,76.988,16.316,104.311,56.313,94.75c40.208-9.495,56.608-44.215,56.608-121.851     C348.438,136.1,321.372,128.68,292.125,135.678z"/>
			<path style="fill:#FFFFFF;" d="M296.705,325.584c-7.796,1.836-22.31,5.338-22.309-71.651c0-76.995,14.513-80.497,22.309-82.333     c7.145-1.707,22.015-5.127,22.016,71.878C318.72,320.458,303.85,323.877,296.705,325.584z M296.705,140.258     c-40.208,9.608-56.609,45.083-56.609,121.988c0,76.988,16.316,104.311,56.313,94.75c40.208-9.495,56.608-44.216,56.608-121.851     C353.018,140.679,325.952,133.26,296.705,140.258z"/>
		</g>
		<path style="fill:#FF2EDC;" d="M282.319,354.248c-13.138,0-22.06-6.458-28.078-20.325c-6.436-14.827-9.565-38.273-9.565-71.676    c0-74.471,15.382-108.523,53.093-117.534c5.167-1.237,9.594-1.837,13.537-1.837c10.155,0,37.132,0,37.132,92.269    c0,75.459-14.882,108.374-53.081,117.394c-4.75,1.135-9.132,1.708-13.037,1.708C282.32,354.248,282.32,354.248,282.319,354.248z     M300.813,166.405c-2.069,0-3.863,0.428-5.172,0.741c-12.487,2.941-25.824,12.317-25.824,86.787    c0,53.907,6.7,76.908,22.403,76.908c2.142,0,4.011-0.441,5.512-0.794c8.985-2.147,25.569-6.109,25.569-86.569    C323.3,189.455,316.575,166.405,300.813,166.405z"/>
		<g>
			<path style="fill:#FFFFFF;" d="M291.183,343.861c-1.259-0.115-2.198-1.214-2.084-2.473l0,0c0.092-1.26,1.214-2.198,2.473-2.107     l0,0c1.26,0.114,2.198,1.213,2.084,2.472l0,0c-0.092,1.214-1.099,2.108-2.29,2.108l0,0     C291.321,343.861,291.251,343.861,291.183,343.861z M298.236,341.342c-0.275-1.214,0.503-2.451,1.763-2.703l0,0     c1.213-0.275,2.45,0.504,2.701,1.741l0,0c0.275,1.237-0.503,2.472-1.74,2.725l0,0c-0.16,0.046-0.343,0.046-0.504,0.046l0,0     C299.404,343.151,298.466,342.418,298.236,341.342z M281.611,341.205c-1.145-0.572-1.602-1.947-1.053-3.092l0,0     c0.572-1.122,1.947-1.58,3.069-1.031l0,0c1.145,0.573,1.602,1.947,1.053,3.069l0,0c-0.413,0.824-1.214,1.282-2.062,1.282l0,0     C282.275,341.434,281.932,341.365,281.611,341.205z M307.029,338.845c-0.595-1.121-0.16-2.496,0.962-3.091l0,0     c1.123-0.572,2.497-0.138,3.092,0.984l0,0c0.596,1.123,0.16,2.497-0.962,3.092l0,0c-0.343,0.16-0.71,0.252-1.077,0.252l0,0     C308.22,340.082,307.419,339.647,307.029,338.845z M273.665,335.365c-0.893-0.892-0.893-2.358,0-3.228l0,0     c0.916-0.893,2.358-0.893,3.252,0l0,0c0.893,0.916,0.87,2.358-0.024,3.251l0,0c-0.457,0.435-1.03,0.664-1.602,0.664l0,0     C274.695,336.052,274.1,335.823,273.665,335.365z M314.793,334.06c-0.847-0.916-0.802-2.358,0.114-3.229l0,0     c0.939-0.87,2.382-0.824,3.251,0.115l0,0c0.848,0.916,0.802,2.382-0.114,3.229l0,0l0,0l0,0c-0.435,0.412-1.008,0.617-1.58,0.617     l0,0C315.868,334.792,315.25,334.541,314.793,334.06z M267.757,327.717c-0.664-1.076-0.321-2.496,0.756-3.16l0,0     c1.099-0.642,2.496-0.297,3.16,0.778l0,0c0.664,1.077,0.321,2.473-0.756,3.137l0,0c-0.389,0.229-0.802,0.343-1.191,0.343l0,0     C268.948,328.816,268.192,328.427,267.757,327.717z M321.09,327.442c-1.031-0.709-1.306-2.129-0.596-3.182l0,0     c0.71-1.053,2.13-1.306,3.183-0.596l0,0c1.053,0.71,1.305,2.13,0.596,3.183l0,0c-0.436,0.641-1.145,0.985-1.878,0.985l0,0     C321.937,327.832,321.501,327.717,321.09,327.442z M263.498,319.245c-0.504-1.168,0.046-2.519,1.213-3l0,0     c1.168-0.481,2.519,0.068,3,1.237l0,0c0.481,1.167-0.068,2.496-1.237,2.999l0,0c-0.275,0.115-0.573,0.183-0.87,0.183l0,0     C264.711,320.664,263.842,320.115,263.498,319.245z M325.921,319.68c-1.145-0.55-1.648-1.901-1.099-3.046l0,0     c0.527-1.145,1.901-1.649,3.046-1.099l0,0c1.145,0.527,1.626,1.901,1.099,3.046l0,0c-0.389,0.824-1.213,1.305-2.084,1.305l0,0     C326.563,319.885,326.242,319.817,325.921,319.68z M260.361,310.382c-0.367-1.214,0.321-2.497,1.534-2.84l0,0     c1.213-0.366,2.496,0.321,2.862,1.534l0,0c0.367,1.214-0.343,2.497-1.558,2.84l0,0c-0.206,0.068-0.435,0.114-0.641,0.114l0,0     C261.574,312.031,260.658,311.39,260.361,310.382z M329.54,311.276c-1.191-0.413-1.831-1.695-1.442-2.908l0,0     c0.412-1.191,1.717-1.832,2.908-1.443l0,0c1.191,0.413,1.855,1.718,1.442,2.908l0,0c-0.321,0.962-1.214,1.558-2.176,1.558l0,0     C330.044,311.39,329.791,311.344,329.54,311.276z M258.071,301.337L258.071,301.337L258.071,301.337     c-0.275-1.237,0.527-2.45,1.763-2.725l0,0c1.237-0.252,2.45,0.527,2.725,1.763l0,0c0.252,1.237-0.527,2.45-1.763,2.725l0,0     c-0.16,0.024-0.321,0.046-0.481,0.046l0,0C259.262,303.146,258.3,302.413,258.071,301.337z M332.265,302.527     c-1.237-0.297-1.969-1.534-1.672-2.771l0,0c0.297-1.213,1.534-1.969,2.771-1.672l0,0c1.214,0.297,1.969,1.534,1.672,2.771l0,0     c-0.252,1.053-1.191,1.741-2.221,1.741l0,0C332.631,302.597,332.448,302.573,332.265,302.527z M256.399,292.2     c-0.183-1.26,0.687-2.427,1.923-2.611l0,0c1.26-0.183,2.427,0.664,2.611,1.923l0,0c0.183,1.237-0.664,2.405-1.923,2.611l0,0     c-0.115,0-0.229,0.022-0.344,0.022l0,0C257.567,294.146,256.583,293.322,256.399,292.2z M334.279,293.619     c-1.237-0.228-2.061-1.419-1.831-2.656h-0.024c0.229-1.26,1.42-2.084,2.657-1.855l0,0c1.26,0.206,2.084,1.397,1.855,2.657l0,0     c-0.183,1.099-1.167,1.877-2.244,1.877l0,0C334.554,293.643,334.417,293.643,334.279,293.619z M255.231,283.017     c-0.138-1.259,0.779-2.382,2.038-2.519l0,0c1.259-0.136,2.382,0.779,2.519,2.038l0,0c0.138,1.26-0.778,2.382-2.038,2.519l0,0     c-0.068,0-0.16,0-0.229,0l0,0C256.353,285.055,255.368,284.186,255.231,283.017z M335.769,284.575     c-1.26-0.161-2.13-1.306-1.97-2.565l0,0c0.138-1.259,1.306-2.13,2.543-1.969l0,0c1.259,0.138,2.152,1.305,1.991,2.542l0,0     c-0.138,1.168-1.122,2.015-2.266,2.015l0,0C335.974,284.597,335.883,284.597,335.769,284.575z M254.453,273.789     c-0.068-1.26,0.87-2.336,2.13-2.427l0,0c1.259-0.092,2.358,0.87,2.45,2.13l0,0c0.068,1.259-0.893,2.358-2.152,2.426l0,0     c-0.046,0.023-0.092,0.023-0.138,0.023l0,0C255.529,275.942,254.521,275.002,254.453,273.789z M336.822,275.483     c-1.26-0.114-2.198-1.213-2.084-2.473l0,0c0.114-1.259,1.213-2.198,2.496-2.083l0,0c1.237,0.092,2.176,1.213,2.061,2.473l0,0     c-0.091,1.191-1.099,2.083-2.266,2.083l0,0C336.958,275.483,336.89,275.483,336.822,275.483z M253.994,264.584     c-0.046-1.26,0.939-2.336,2.222-2.382l0,0c1.259-0.024,2.312,0.961,2.358,2.221l0,0c0.046,1.26-0.938,2.313-2.198,2.359l0,0     c-0.046,0-0.068,0-0.092,0l0,0C255.049,266.782,254.04,265.82,253.994,264.584z M337.531,266.347     c-1.259-0.069-2.244-1.145-2.152-2.405l0,0c0.046-1.259,1.123-2.22,2.405-2.152l0,0c1.259,0.069,2.22,1.145,2.152,2.405l0,0     c-0.069,1.213-1.077,2.152-2.29,2.152l0,0C337.623,266.347,337.577,266.347,337.531,266.347z M253.812,255.355     c0-1.259,1.007-2.29,2.266-2.312l0,0c1.283,0,2.314,1.03,2.314,2.29l0,0c0,1.259-1.009,2.29-2.268,2.312l0,0h-0.022l0,0     C254.842,257.645,253.834,256.615,253.812,255.355z M337.944,257.21c-1.259-0.046-2.244-1.076-2.221-2.358l0,0     c0.022-1.26,1.076-2.244,2.336-2.222l0,0c1.281,0.024,2.266,1.077,2.244,2.359l0,0c-0.046,1.237-1.054,2.221-2.29,2.221l0,0     C337.989,257.21,337.967,257.21,337.944,257.21z M253.812,255.355L253.812,255.355L253.812,255.355L253.812,255.355     L253.812,255.355L253.812,255.355z M256.124,248.462c-1.259-0.023-2.266-1.077-2.244-2.336l0,0     c0.023-1.259,1.077-2.268,2.358-2.222l0,0c1.26,0.023,2.245,1.077,2.222,2.336l0,0c-0.022,1.237-1.053,2.244-2.29,2.222l0,0     C256.17,248.462,256.148,248.462,256.124,248.462z M335.837,245.76c0-1.259,1.031-2.29,2.29-2.29l0,0     c1.259,0,2.29,1.031,2.29,2.29l0,0c0,1.283-1.031,2.29-2.29,2.29l0,0C336.868,248.05,335.837,247.02,335.837,245.76z      M256.422,239.325c-1.259-0.068-2.221-1.167-2.152-2.427l0,0c0.069-1.259,1.145-2.221,2.427-2.152l0,0     c1.259,0.069,2.222,1.168,2.13,2.427l0,0c-0.069,1.214-1.077,2.152-2.268,2.152l0,0     C256.513,239.325,256.468,239.325,256.422,239.325z M335.745,236.669L335.745,236.669c-0.022-1.283,0.985-2.313,2.244-2.359l0,0     c1.259-0.022,2.313,0.985,2.336,2.244l0,0c0.024,1.26-0.962,2.313-2.244,2.336l0,0c0,0-0.022,0-0.046,0l0,0     C336.799,238.89,335.769,237.906,335.745,236.669z M257.04,230.189c-1.259-0.138-2.175-1.237-2.061-2.496l0,0     c0.138-1.26,1.259-2.199,2.519-2.062l0,0c1.259,0.115,2.175,1.237,2.038,2.497l0,0c-0.115,1.191-1.099,2.061-2.268,2.061l0,0     C257.201,230.189,257.109,230.189,257.04,230.189z M335.424,227.578c-0.068-1.259,0.893-2.336,2.152-2.404l0,0     c1.26-0.069,2.336,0.892,2.405,2.175l0,0c0.068,1.26-0.893,2.336-2.176,2.405l0,0c-0.022,0-0.068,0-0.114,0l0,0     C336.478,229.754,335.47,228.792,335.424,227.578z M258.047,221.075c-1.259-0.161-2.129-1.328-1.945-2.587l0,0l0,0l0,0     c0.182-1.237,1.327-2.108,2.587-1.924l0,0c1.259,0.161,2.129,1.328,1.947,2.587l0,0c-0.161,1.123-1.145,1.947-2.268,1.947l0,0     C258.254,221.097,258.139,221.097,258.047,221.075z M334.806,218.51l-0.022,0.023c-0.092-1.282,0.848-2.382,2.084-2.497l0,0     c1.281-0.092,2.381,0.824,2.496,2.084l0,0c0.092,1.259-0.824,2.382-2.084,2.473l0,0c-0.068,0.022-0.138,0.022-0.206,0.022l0,0     C335.905,220.616,334.898,219.701,334.806,218.51z M259.445,212.029c-1.237-0.229-2.038-1.442-1.809-2.679l0,0     c0.251-1.237,1.442-2.061,2.679-1.809l0,0c1.259,0.252,2.061,1.442,1.809,2.679l0,0c-0.206,1.099-1.168,1.855-2.244,1.855l0,0     C259.743,212.075,259.605,212.053,259.445,212.029z M333.845,209.51L333.845,209.51c-0.16-1.259,0.71-2.404,1.969-2.564l0,0     c1.26-0.161,2.405,0.732,2.565,1.991l0,0l0,0l0,0c0.161,1.237-0.733,2.405-1.969,2.565l0,0c-0.114,0-0.206,0-0.297,0l0,0     C334.967,211.503,333.982,210.678,333.845,209.51z M261.322,203.076c-1.237-0.321-1.969-1.557-1.649-2.794l0,0     c0.321-1.213,1.557-1.969,2.794-1.649l0,0c1.213,0.321,1.947,1.558,1.649,2.794l0,0c-0.275,1.031-1.191,1.718-2.222,1.718l0,0     C261.712,203.145,261.506,203.121,261.322,203.076z M332.47,200.58c-0.228-1.237,0.596-2.427,1.833-2.656l0,0     c1.237-0.229,2.45,0.595,2.679,1.831l0,0c0.206,1.259-0.618,2.45-1.855,2.679l0,0c-0.138,0.023-0.275,0.023-0.413,0.023l0,0     C333.639,202.458,332.654,201.702,332.47,200.58z M263.726,194.236c-1.191-0.389-1.854-1.694-1.442-2.885l0,0     c0.389-1.214,1.695-1.855,2.886-1.466l0,0c1.213,0.413,1.855,1.695,1.465,2.886l0,0c-0.32,0.984-1.213,1.58-2.175,1.58l0,0     C264.208,194.352,263.979,194.328,263.726,194.236z M330.571,191.787L330.571,191.787c-0.299-1.237,0.435-2.473,1.672-2.771l0,0     c1.213-0.321,2.45,0.435,2.771,1.648l0,0c0.32,1.237-0.435,2.473-1.649,2.794l0,0c-0.206,0.046-0.389,0.068-0.572,0.068l0,0     C331.761,193.526,330.845,192.816,330.571,191.787z M266.772,185.603c-1.167-0.503-1.694-1.855-1.213-3l0,0     c0.503-1.167,1.855-1.717,3-1.213l0,0c1.167,0.481,1.717,1.831,1.213,3l0,0c-0.367,0.87-1.213,1.396-2.107,1.396l0,0     C267.368,185.787,267.071,185.718,266.772,185.603z M328.006,183.222c-0.413-1.191,0.229-2.496,1.42-2.93l0,0     c1.191-0.413,2.496,0.206,2.908,1.42l0,0c0.435,1.191-0.207,2.496-1.398,2.908l0,0c-0.252,0.092-0.503,0.138-0.756,0.138l0,0     C329.242,184.757,328.349,184.161,328.006,183.222z M270.55,177.269c-1.099-0.618-1.488-2.016-0.87-3.115l0,0     c0.596-1.122,1.992-1.511,3.092-0.892l0,0c1.123,0.618,1.512,2.015,0.893,3.114l0,0c-0.413,0.756-1.191,1.167-1.993,1.167l0,0     C271.284,177.543,270.917,177.451,270.55,177.269z M324.593,175.047c-0.573-1.123-0.114-2.496,1.031-3.068l0,0     c1.122-0.572,2.496-0.115,3.068,1.03l0,0l0,0l0,0c0.572,1.123,0.115,2.497-1.03,3.069l0,0c-0.321,0.16-0.664,0.252-1.031,0.252     l0,0C325.807,176.33,324.982,175.849,324.593,175.047z M275.245,169.414c-1.008-0.778-1.214-2.198-0.435-3.206l0,0     c0.756-1.031,2.198-1.214,3.206-0.458l0,0c1.007,0.756,1.213,2.198,0.435,3.206l0,0c-0.435,0.596-1.122,0.917-1.809,0.917l0,0     C276.161,169.872,275.658,169.711,275.245,169.414z M320.037,167.627L320.037,167.627c-0.756-1.007-0.55-2.45,0.457-3.206l0,0     c1.007-0.778,2.427-0.572,3.207,0.435l0,0l0,0l0,0c0.755,1.009,0.549,2.451-0.458,3.207l0,0c-0.413,0.32-0.893,0.457-1.374,0.457     l0,0C321.182,168.52,320.494,168.223,320.037,167.627z M281.084,162.338c-0.846-0.939-0.756-2.382,0.183-3.229l0,0     c0.962-0.824,2.405-0.756,3.252,0.206l0,0c0.825,0.939,0.733,2.382-0.206,3.229l0,0c-0.435,0.389-0.985,0.572-1.512,0.572l0,0     C282.161,163.117,281.543,162.865,281.084,162.338z M314.105,161.537c-1.008-0.779-1.191-2.222-0.412-3.229l0,0     c0.778-0.985,2.198-1.167,3.206-0.413l0,0c1.008,0.779,1.191,2.222,0.413,3.229l0,0c-0.458,0.572-1.123,0.87-1.809,0.87l0,0     C315.022,161.994,314.518,161.858,314.105,161.537z M288.297,156.728c-0.503-1.145,0-2.496,1.168-3.022l0,0     c1.167-0.504,2.519,0.022,3.022,1.167l0,0c0.527,1.168,0,2.519-1.167,3.022l0,0c-0.297,0.138-0.618,0.207-0.916,0.207l0,0     C289.512,158.102,288.688,157.597,288.297,156.728z M306.754,157.575L306.754,157.575c-1.191-0.389-1.831-1.695-1.442-2.886l0,0     c0.389-1.213,1.695-1.855,2.908-1.442l0,0c0,0,0,0,0-0.022l0,0c1.191,0.411,1.831,1.694,1.442,2.908l0,0     c-0.32,0.961-1.213,1.556-2.175,1.556l0,0C307.235,157.689,307.007,157.667,306.754,157.575z M296.198,154.003     c0-1.283,1.031-2.29,2.29-2.29l0,0c1.259,0,2.29,1.007,2.29,2.29l0,0c0,1.259-1.031,2.29-2.29,2.29l0,0     C297.229,156.293,296.198,155.262,296.198,154.003z"/>
		</g>
	</g>
	<g>
		<g>
			<path style="fill:#F8301B;" d="M159.094,249.07c-4.943,4.181-10.711,7.248-17.058,9.044c-0.302,0.061-0.603,0.151-0.899,0.27     c-0.681,0.272-1.441,0.47-2.253,0.647c-0.027-0.459-0.061-0.93-0.097-1.407c-0.069-0.911-0.143-1.856-0.143-2.816     c0-2.857,0-5.714,0-8.571c0-6.046,0.07-11.614,0.142-17.307c0.075-5.997,0.152-12.133,0.152-19.108c0-1.379,0-2.759,0-4.138     c0-0.26-0.012-0.519,0.006-0.761c0.191-0.549,0.29-1.112,0.29-1.661c-0.001-2.806-0.002-5.612-0.003-8.419     c0.185-5.59,0.255-9.417,0.282-11.535c0.412-0.234,1.032-0.395,2.303-0.725c0.471-0.125,0.942-0.249,1.413-0.374     c10.193-2.734,18.696-2.022,24.6,2.207c5.843,4.18,8.933,11.802,8.933,22.089C176.761,224.214,170.487,239.393,159.094,249.07z      M205.578,327.293c-11.737-21.525-20.863-39.32-27.749-52.854c3.463-2.864,6.72-6.07,9.863-9.697     c15.673-17.934,23.958-40.645,23.958-65.475c0-46.503-34.357-55.745-66.658-50.227c-1.182,0.241-2.364,0.48-3.547,0.717     c-6.217,1.247-12.44,2.587-18.52,4.403c-5.137,1.534-11.328,3.4-14.935,7.583c-2.448,2.839-3.435,6.668-3.769,10.402     c-0.911,10.196-0.468,20.598-0.468,30.826c0,10.598,0,21.195,0,31.793c-0.257,14.993-0.296,30.404-0.296,38.255     c0,7.084,0,14.169,0,21.253c0,7.12,0,14.24,0,21.36s0,14.24,0,21.36c0,3.56,0,7.12,0,10.68c0,3.443-0.174,6.911,0.098,10.347     c0.066,0.831,0.155,1.661,0.267,2.487c0.381,2.8,1.081,5.67,2.858,7.867c3.786,4.681,10.3,3.89,15.552,2.928     c1.182-0.216,2.365-0.435,3.547-0.656c0.423-0.079,1.017-0.302,1.425-0.494c0.146-0.069,0.306-0.123,0.467-0.185     c0.791-0.303,1.935-0.74,3.11-1.62c7.271-4.446,7.271-11.484,7.271-13.812c0-4.335,0-8.67,0-13.005     c0-0.565,0.008-5.719,0.296-12.769c0-8.739,0.123-17.625,0.209-23.943c0.049-3.525,0.087-6.259,0.087-7.742     c0-0.775,0-1.55,0-2.325c1.737-0.431,3.499-0.919,5.301-1.469c10.341,21.17,19.914,39.996,24.104,48.226     c1.245,2.448,2.052,4.029,2.244,4.412c0.641,1.459,1.365,3.107,2.551,4.472c3.599,4.665,12.242,5.577,13.805,5.69     c6.085,0.707,17.661-0.863,22.829-7.932c1.61-2.198,3.857-6.713,0.823-12.234C208.727,333.041,207.152,330.167,205.578,327.293z"/>
			<path style="fill:#FF7335;" d="M163.674,253.65c-4.943,4.181-10.711,7.248-17.058,9.044c-0.302,0.061-0.604,0.151-0.899,0.27     c-0.681,0.272-1.441,0.47-2.253,0.647c-0.027-0.459-0.061-0.93-0.097-1.407c-0.069-0.911-0.143-1.856-0.143-2.816     c0-2.857,0-5.714,0-8.571c0-6.046,0.07-11.614,0.142-17.307c0.075-5.997,0.152-12.133,0.152-19.108c0-1.379,0-2.759,0-4.138     c0-0.26-0.012-0.519,0.006-0.761c0.191-0.549,0.29-1.112,0.29-1.661c-0.001-2.806-0.002-5.612-0.003-8.419     c0.185-5.59,0.255-9.417,0.282-11.535c0.412-0.235,1.033-0.392,2.303-0.725c0.471-0.124,0.942-0.249,1.413-0.375     c10.193-2.734,18.696-2.022,24.6,2.207c5.843,4.18,8.933,11.803,8.933,22.089C181.34,228.793,175.067,243.973,163.674,253.65z      M210.158,331.872c-11.737-21.525-20.863-39.32-27.749-52.854c3.463-2.864,6.712-6.076,9.863-9.697     c15.636-17.966,23.958-40.645,23.958-65.475c0-46.502-34.449-56.255-66.658-50.227c-1.186,0.222-2.364,0.48-3.546,0.717     c-7.176,1.439-14.399,2.967-21.349,5.294c-6.193,2.074-12.342,4.811-14.76,11.411c-1.87,5.105-1.583,11.569-1.583,16.949     c0,17.118,0.147,34.235,0,51.352c-0.128,14.994-0.296,30.404-0.296,38.255c0,27.981,0,55.963,0,83.944     c0,1.405,0.301,2.918,0.496,4.318c0.345,2.477,1.11,4.951,2.625,6.941c1.111,1.46,2.66,2.634,4.426,3.17     c0.843,0.256,1.755,0.372,2.615,0.53c1.028,0.188,2.077,0.204,3.112,0.065c1.764-0.007,3.431-0.307,5.501-0.686     c1.182-0.217,2.365-0.435,3.547-0.656c0.423-0.079,1.017-0.302,1.425-0.494c0.146-0.069,0.306-0.123,0.467-0.185     c0.791-0.303,1.935-0.74,3.11-1.62c7.271-4.446,7.271-11.484,7.271-13.812c0-4.335,0-8.67,0-13.005     c0-0.565,0.008-5.719,0.296-12.769c0-8.739,0.123-17.626,0.209-23.943c0.049-3.525,0.087-6.259,0.087-7.742     c0-0.775,0-1.55,0-2.325c1.737-0.431,3.499-0.919,5.301-1.469c10.341,21.17,19.914,39.996,24.104,48.226     c1.245,2.448,2.052,4.029,2.244,4.412c0.641,1.459,1.365,3.107,2.55,4.472c3.599,4.665,12.242,5.577,13.805,5.69     c6.085,0.707,17.661-0.863,22.829-7.932c1.61-2.198,3.857-6.713,0.823-12.234C213.306,337.621,211.732,334.747,210.158,331.872z"/>
			<path style="fill:#FFA04A;" d="M168.253,258.23c-4.943,4.181-10.711,7.248-17.058,9.044c-0.302,0.061-0.603,0.151-0.899,0.27     c-0.681,0.272-1.441,0.47-2.253,0.647c-0.027-0.459-0.061-0.93-0.097-1.407c-0.069-0.911-0.143-1.856-0.143-2.816     c0-2.857,0-5.714,0-8.571c0-6.046,0.07-11.614,0.142-17.307c0.075-5.997,0.152-12.133,0.152-19.108c0-1.38,0-2.759,0-4.138     c0-0.26-0.012-0.519,0.006-0.761c0.191-0.549,0.29-1.112,0.29-1.661c-0.001-2.806-0.002-5.612-0.003-8.419     c0.185-5.59,0.255-9.417,0.282-11.535c0.412-0.235,1.033-0.392,2.303-0.725c0.471-0.124,0.942-0.249,1.413-0.375     c10.193-2.734,18.696-2.022,24.6,2.207c5.843,4.18,8.933,11.803,8.933,22.089C185.92,233.373,179.647,248.553,168.253,258.23z      M214.738,336.452c-11.737-21.526-20.863-39.32-27.749-52.854c3.463-2.864,6.712-6.076,9.863-9.697     c15.636-17.966,23.958-40.645,23.958-65.475c0-46.502-34.449-56.255-66.658-50.227c-1.186,0.222-2.364,0.48-3.547,0.717     c-6.202,1.244-12.409,2.581-18.475,4.389c-5.017,1.496-11.073,3.307-14.706,7.262c-2.533,2.758-3.616,6.565-4,10.289     c-1.039,10.077-0.501,20.439-0.473,30.555c0.031,10.837,0.055,21.674-0.038,32.511c-0.128,14.994-0.296,30.402-0.296,38.254     c0,7.085,0,14.169,0,21.254c0,7.12,0,14.24,0,21.36c0,7.12,0,14.24,0,21.36c0,3.56,0,7.12,0,10.68     c0,3.419-0.178,6.904,0.112,10.303c0.191,2.236,0.433,4.493,1.143,6.634c0.787,2.372,2.218,4.62,4.365,5.898     c1.154,0.687,2.459,1.062,3.774,1.293c1.339,0.235,2.54,0.193,3.88,0.187c1.764-0.007,3.432-0.307,5.501-0.686     c1.182-0.217,2.364-0.435,3.547-0.656c0.423-0.079,1.017-0.302,1.425-0.494c0.146-0.069,0.306-0.123,0.467-0.185     c0.791-0.303,1.935-0.74,3.11-1.62c7.271-4.446,7.271-11.484,7.271-13.812c0-4.335,0-8.67,0-13.005     c0-0.564,0.008-5.719,0.296-12.769c0-8.739,0.123-17.625,0.209-23.943c0.049-3.525,0.087-6.259,0.087-7.742     c0-0.775,0-1.55,0-2.325c1.737-0.431,3.499-0.919,5.301-1.47c10.341,21.17,19.914,39.996,24.104,48.226     c1.245,2.448,2.052,4.029,2.244,4.411c0.641,1.459,1.365,3.107,2.55,4.472c3.599,4.664,12.242,5.577,13.805,5.69     c6.085,0.707,17.661-0.863,22.829-7.933c1.61-2.198,3.857-6.713,0.823-12.233C217.886,342.201,216.312,339.327,214.738,336.452z"/>
			<path style="fill:#FFD373;" d="M172.833,262.809c-4.943,4.181-10.711,7.248-17.058,9.044c-0.302,0.061-0.603,0.151-0.899,0.27     c-0.681,0.272-1.441,0.47-2.253,0.647c-0.027-0.459-0.061-0.93-0.097-1.407c-0.069-0.911-0.143-1.856-0.143-2.816     c0-2.857,0-5.714,0-8.571c0-6.046,0.07-11.614,0.142-17.307c0.075-5.997,0.152-12.133,0.152-19.108c0-1.379,0-2.758,0-4.138     c0-0.26-0.012-0.519,0.006-0.761c0.191-0.549,0.29-1.112,0.29-1.662c-0.001-2.806-0.002-5.612-0.003-8.418     c0.185-5.59,0.255-9.417,0.282-11.535c0.412-0.235,1.033-0.392,2.303-0.725c0.471-0.124,0.942-0.249,1.413-0.375     c10.193-2.734,18.696-2.022,24.6,2.207c5.843,4.18,8.933,11.803,8.933,22.089C190.5,237.953,184.227,253.133,172.833,262.809z      M219.317,341.032c-11.737-21.526-20.862-39.32-27.749-52.854c3.463-2.864,6.712-6.076,9.863-9.697     c15.636-17.967,23.958-40.645,23.958-65.475c0-46.502-34.449-56.255-66.659-50.227c-1.186,0.222-2.364,0.48-3.547,0.717     c-6.229,1.25-12.464,2.592-18.555,4.413c-5.106,1.527-11.244,3.382-14.85,7.518c-2.526,2.897-3.523,6.835-3.845,10.665     c-0.853,10.161-0.43,20.507-0.402,30.696c0.029,10.571,0.051,21.143-0.04,31.714c-0.128,14.994-0.296,30.404-0.296,38.255     c0,27.981,0,55.963,0,83.944c0,2.965,0.615,6.365,1.848,9.065c1.478,3.235,4.171,5.216,7.653,5.784     c1.302,0.212,2.464,0.181,3.773,0.176c1.764-0.007,3.432-0.307,5.501-0.686c1.182-0.217,2.364-0.435,3.547-0.656     c0.423-0.079,1.017-0.302,1.425-0.494c0.146-0.069,0.306-0.123,0.467-0.185c0.791-0.303,1.935-0.74,3.111-1.62     c7.271-4.446,7.271-11.484,7.271-13.813c0-4.335,0-8.67,0-13.005c0-0.564,0.008-5.719,0.296-12.769     c0-8.739,0.122-17.625,0.209-23.943c0.049-3.525,0.087-6.259,0.087-7.742c0-0.775,0-1.55,0-2.325     c1.737-0.431,3.499-0.919,5.301-1.47c10.341,21.17,19.914,39.996,24.104,48.226c1.245,2.448,2.052,4.029,2.244,4.411     c0.641,1.459,1.365,3.107,2.551,4.472c3.599,4.664,12.242,5.577,13.805,5.69c6.085,0.707,17.661-0.863,22.829-7.933     c1.61-2.198,3.857-6.713,0.823-12.233C222.466,346.781,220.892,343.907,219.317,341.032z"/>
			<path style="fill:#FFFFFF;" d="M177.284,267.389c-4.943,4.181-10.711,7.248-17.058,9.044c-0.302,0.061-0.603,0.151-0.899,0.27     c-0.681,0.272-1.441,0.471-2.253,0.647c-0.027-0.459-0.061-0.93-0.097-1.407c-0.069-0.911-0.143-1.856-0.143-2.816     c0-2.857,0-5.714,0-8.572c0-11.034,0.119-22.068,0.267-33.102c0.073-5.45-0.109-21.229-0.18-23.693     c-0.036-1.257-0.625-5.334,0.782-6.135c0.412-0.234,1.032-0.395,2.303-0.725c0.471-0.124,0.942-0.249,1.413-0.374     c10.193-2.734,18.696-2.022,24.6,2.207c5.843,4.18,8.933,11.803,8.933,22.089C194.951,242.533,188.678,257.713,177.284,267.389z      M223.768,345.612c-11.737-21.526-20.862-39.32-27.749-52.854c3.463-2.864,6.72-6.07,9.863-9.697     c15.673-17.934,23.958-40.645,23.958-65.475c0-46.503-34.357-55.745-66.659-50.227c-1.182,0.241-2.364,0.48-3.546,0.717     c-11.038,2.214-19.124,4.29-24.706,6.516c-0.57,0.188-1.035,0.438-1.374,0.647c-2.692,1.661-5.488,2.492-7.546,5.085     c-1.903,2.397-2.949,5.435-3.395,8.435c-0.715,4.799-0.575,9.886-0.672,14.725c-0.111,5.543,0.001,11.1,0.001,16.644     c0,10.985,0,21.969,0,32.954c-0.257,14.992-0.296,30.402-0.296,38.254c0,7.085,0,14.169,0,21.254c0,7.12,0,14.24,0,21.36     s0,14.24,0,21.36c0,3.56,0,7.12,0,10.68c0,3.409-0.149,6.869,0.121,10.257c0.162,2.031,0.361,4.074,0.923,6.039     c0.626,2.189,1.739,4.3,3.498,5.745c1.973,1.621,4.596,2.272,7.149,2.335c2.219,0.055,4.425-0.297,6.616-0.652     c3.113-0.505,6.429-1.113,9.016-3.049c7.271-4.446,7.271-11.484,7.271-13.812c0-4.335,0-8.67,0-13.005     c0-0.565,0.008-5.719,0.296-12.769c0-8.739,0.122-17.625,0.209-23.943c0.049-3.525,0.087-6.259,0.087-7.742     c0-0.775,0-1.55,0-2.325c1.737-0.431,3.499-0.919,5.301-1.47c10.341,21.17,19.914,39.996,24.104,48.226     c1.245,2.448,2.052,4.029,2.244,4.412c0.641,1.459,1.365,3.107,2.551,4.472c3.599,4.664,12.242,5.577,13.805,5.69     c6.085,0.706,17.661-0.863,22.829-7.933c1.61-2.198,3.857-6.713,0.823-12.233C226.917,351.361,225.343,348.487,223.768,345.612z"/>
		</g>
		<path style="fill:#FF2EDC;" d="M133.674,385.776c-0.534-0.015-1.067-0.06-1.598-0.142c-1.108-0.173-2.228-0.533-3.048-1.297    c-0.527-0.492-0.902-1.126-1.202-1.782c-1.205-2.642-1.471-5.77-1.471-8.655c0-36.556-0.287-73.12,0.137-109.674    c0.043-3.688,0.095-7.375,0.158-11.062c0,0,0.001-51.431,0.001-51.431c0.449-4.13,0.012-8.291,0.643-12.41    c0.323-2.113,0.917-4.251,2.234-5.935c2.963-3.79,8.988-5.333,13.441-6.643c5.815-1.71,11.756-2.975,17.693-4.176    c0,0,3.559-0.719,3.559-0.719c5.14-0.877,10.292-1.334,15.173-1.334c20.982,0,45.993,8.167,45.993,47.072    c0,23.776-7.893,45.374-22.827,62.461c-3.013,3.477-6.062,6.476-9.333,9.18c-1.653,1.366-2.136,3.697-1.164,5.606    c7.768,15.266,16.513,32.249,27.811,52.971l4.727,8.63c1.385,2.519,1.215,4.982-0.501,7.325    c-3.139,4.294-10.429,6.214-16.264,6.214c-0.849,0-1.637-0.041-2.342-0.124c-3.263-0.239-8.826-1.499-10.707-3.939    c-0.054-0.069-0.11-0.138-0.168-0.204c-0.731-0.843-1.282-2.097-1.816-3.312c-0.031-0.073-2.356-4.647-2.356-4.647    c-5.761-11.312-14.522-28.612-24.071-48.159c-0.784-1.606-2.403-2.571-4.115-2.571c-0.445,0-0.896,0.066-1.34,0.201    c-1.722,0.527-3.405,0.993-5.064,1.403c-2.043,0.507-3.477,2.34-3.477,4.446v2.326c0,1.47-0.037,4.182-0.086,7.678    c-0.083,6.045-0.209,15.179-0.209,24.006c-0.287,6.942-0.296,12.193-0.296,12.769c0,0,0,12.997,0,13.005    c0,2.074-0.287,4.173-1.281,6.021c-1.258,2.34-3.628,4.163-6.08,5.114c-1.665,0.646-3.44,0.944-5.195,1.233    C137.397,385.525,135.528,385.828,133.674,385.776z M172.78,194.325c-3.841,0-8.019,0.598-12.419,1.779l-1.393,0.369    c-1.527,0.397-2.46,0.638-3.401,1.174c-1.413,0.804-2.293,2.297-2.315,3.922c-0.026,2.101-0.575,26.571-0.575,26.571    c0,6.92-0.294,44.987-0.294,44.987c0,1.027,0.072,2.038,0.145,3.017l0.103,1.474c0.078,1.336,0.737,2.572,1.804,3.381    c0.803,0.609,1.778,0.931,2.768,0.931c0.324,0,0.651-0.035,0.973-0.104c1.219-0.265,2.137-0.533,2.978-0.869    c0.117-0.024,0.334-0.085,0.449-0.117c6.983-1.977,13.297-5.326,18.768-9.955c12.441-10.565,19.289-26.922,19.289-46.063    c0-11.811-3.751-20.738-10.848-25.813C184.473,195.901,179.078,194.325,172.78,194.325z"/>
		<g>
			<path style="fill:#FFFFFF;" d="M139.91,376.08c-1.283,0-2.29-1.031-2.29-2.29l0,0c0.024-1.282,1.053-2.29,2.313-2.29l0,0     c1.259,0.022,2.29,1.053,2.267,2.312l0,0C142.2,375.073,141.169,376.08,139.91,376.08L139.91,376.08L139.91,376.08z      M139.956,366.921c-1.259,0-2.29-1.031-2.266-2.313l0,0c0-1.259,1.03-2.266,2.29-2.266l0,0c1.281,0.022,2.29,1.053,2.29,2.312     l0,0c-0.024,1.26-1.031,2.268-2.29,2.268l0,0H139.956z M140.024,357.761c-1.281,0-2.29-1.031-2.29-2.29l0,0     c0.024-1.282,1.054-2.29,2.314-2.29l0,0c1.259,0.022,2.29,1.031,2.266,2.312l0,0     C142.314,356.754,141.284,357.761,140.024,357.761L140.024,357.761L140.024,357.761z M140.07,348.601     c-1.259,0-2.29-1.031-2.266-2.29l0,0c0-1.282,1.031-2.29,2.312-2.29l0,0c1.26,0.022,2.267,1.053,2.267,2.312l0,0     c-0.023,1.26-1.031,2.268-2.29,2.268l0,0H140.07z M140.139,339.441c-1.282,0-2.29-1.031-2.29-2.314l0,0     c0.022-1.259,1.053-2.266,2.312-2.266l0,0c1.26,0.022,2.29,1.053,2.268,2.312l0,0c0,1.26-1.031,2.268-2.268,2.268l0,0     C140.139,339.441,140.139,339.441,140.139,339.441z M140.185,330.282c-1.26,0-2.268-1.031-2.268-2.29l0,0     c0-1.282,1.031-2.29,2.313-2.29l0,0c1.259,0.022,2.266,1.053,2.266,2.312l0,0c0,1.26-1.03,2.268-2.29,2.268l0,0H140.185z      M140.253,321.122c-1.259,0-2.29-1.031-2.29-2.29l0,0c0.023-1.283,1.053-2.29,2.313-2.29l0,0c1.259,0.022,2.29,1.053,2.267,2.312     l0,0c0,1.26-1.008,2.267-2.267,2.267l0,0C140.253,321.122,140.253,321.122,140.253,321.122z M140.299,311.962     c-1.259,0-2.266-1.031-2.266-2.29l0,0c0-1.283,1.03-2.29,2.312-2.29l0,0c1.26,0.022,2.268,1.053,2.268,2.312l0,0     c0,1.26-1.031,2.268-2.29,2.268l0,0C140.323,311.962,140.323,311.962,140.299,311.962z M140.369,302.802     c-1.26,0-2.29-1.031-2.268-2.29l0,0c0-1.282,1.031-2.29,2.29-2.29l0,0c1.26,0.022,2.29,1.053,2.29,2.312l0,0     c-0.022,1.26-1.03,2.268-2.29,2.268l0,0C140.369,302.802,140.369,302.802,140.369,302.802z M145.772,292.589     c-0.023-1.26,0.985-2.313,2.266-2.336l0,0c1.26-0.024,2.29,0.985,2.313,2.244l0,0c0.046,1.283-0.962,2.312-2.244,2.336l0,0     h-0.024l0,0C146.826,294.834,145.818,293.848,145.772,292.589z M154.932,292.085c-0.183-1.259,0.664-2.427,1.923-2.61l0,0     c1.26-0.183,2.427,0.663,2.611,1.923l0,0c0.183,1.259-0.687,2.427-1.923,2.611l0,0c-0.115,0.022-0.229,0.022-0.344,0.022l0,0     C156.077,294.032,155.092,293.208,154.932,292.085z M140.414,293.643c-1.26,0-2.268-1.031-2.268-2.29l0,0     c0-1.283,1.031-2.29,2.313-2.29l0,0c1.259,0.022,2.266,1.053,2.266,2.312l0,0c0,1.26-1.03,2.268-2.29,2.268l0,0     C140.437,293.643,140.437,293.643,140.414,293.643z M163.954,290.483c-0.321-1.237,0.413-2.497,1.626-2.816l0,0     c1.214-0.321,2.473,0.411,2.794,1.626l0,0c0.32,1.237-0.389,2.473-1.626,2.817l0,0c-0.183,0.046-0.39,0.068-0.572,0.068l0,0     C165.145,292.177,164.229,291.49,163.954,290.483z M172.747,287.895c-0.457-1.191,0.115-2.518,1.306-2.977l0,0     c1.167-0.458,2.496,0.138,2.954,1.305l0,0c0.457,1.191-0.115,2.519-1.306,2.978l0,0c-0.274,0.092-0.549,0.138-0.824,0.138l0,0     C173.962,289.338,173.092,288.788,172.747,287.895z M181.198,284.346c-0.618-1.099-0.207-2.496,0.892-3.092l0,0     c1.123-0.618,2.497-0.229,3.115,0.893l0,0c0.617,1.099,0.206,2.496-0.893,3.114l0,0c-0.367,0.183-0.734,0.275-1.099,0.275l0,0     C182.388,285.536,181.61,285.101,181.198,284.346z M140.483,284.483c-1.259,0-2.29-1.031-2.266-2.29l0,0     c0-1.282,1.03-2.29,2.29-2.29l0,0c1.281,0.022,2.29,1.053,2.29,2.312l0,0c-0.024,1.26-1.031,2.268-2.29,2.268l0,0H140.483z      M188.823,279.307c-0.87-0.892-0.824-2.358,0.092-3.228l0,0c0.916-0.87,2.359-0.847,3.229,0.068l0,0     c0.87,0.916,0.847,2.359-0.068,3.252l0,0c-0.458,0.413-1.009,0.618-1.581,0.618l0,0     C189.876,280.017,189.281,279.789,188.823,279.307z M140.552,275.323c-1.282,0-2.29-1.031-2.29-2.29l0,0     c0-1.282,1.053-2.29,2.312-2.29l0,0c1.259,0.023,2.29,1.053,2.268,2.312l0,0C142.842,274.316,141.811,275.323,140.552,275.323     L140.552,275.323L140.552,275.323z M195.189,272.713c-1.007-0.778-1.191-2.198-0.435-3.206l0,0     c0.778-1.008,2.221-1.191,3.228-0.413l0,0c0.985,0.756,1.168,2.198,0.413,3.207l0,0c-0.458,0.572-1.145,0.892-1.831,0.892l0,0     C196.083,273.193,195.601,273.033,195.189,272.713z M140.597,266.164c-1.259,0-2.29-1.031-2.266-2.29l0,0     c0-1.283,1.031-2.29,2.29-2.29l0,0c1.283,0.022,2.29,1.053,2.29,2.312l0,0c-0.024,1.26-1.031,2.268-2.29,2.268l0,0H140.597z      M200.547,265.294c-1.076-0.664-1.442-2.062-0.778-3.161l0,0c0.664-1.076,2.061-1.419,3.137-0.778l0,0     c1.099,0.664,1.442,2.061,0.778,3.16l0,0c-0.435,0.71-1.191,1.099-1.947,1.099l0,0     C201.326,265.613,200.914,265.499,200.547,265.294z M205.081,257.325c-1.145-0.55-1.626-1.924-1.076-3.046l0,0     c0.549-1.145,1.923-1.626,3.045-1.077l0,0c1.145,0.55,1.627,1.901,1.077,3.046l0,0c-0.389,0.824-1.213,1.305-2.061,1.305l0,0     C205.746,257.553,205.402,257.485,205.081,257.325z M140.642,257.004c-1.259,0-2.266-1.031-2.266-2.29l0,0     c0.022-1.259,1.053-2.29,2.312-2.29l0,0c1.26,0.022,2.29,1.053,2.268,2.312l0,0c0,1.26-1.031,2.268-2.29,2.268l0,0     C140.666,257.004,140.666,257.004,140.642,257.004z M208.837,248.966c-1.191-0.435-1.787-1.74-1.351-2.931l0,0     c0.435-1.191,1.74-1.809,2.931-1.374l0,0c1.191,0.435,1.786,1.763,1.374,2.954l0,0c-0.343,0.916-1.237,1.488-2.152,1.488l0,0     C209.364,249.103,209.112,249.057,208.837,248.966z M140.712,247.844c-1.26,0-2.267-1.031-2.267-2.29l0,0     c0-1.282,1.031-2.29,2.313-2.29l0,0c1.259,0.022,2.266,1.053,2.266,2.312l0,0c0,1.26-1.03,2.267-2.29,2.267l0,0H140.712z      M211.791,240.288c-1.214-0.321-1.947-1.558-1.626-2.794l0,0c0.297-1.213,1.556-1.947,2.793-1.626l0,0     c1.214,0.297,1.947,1.558,1.626,2.771l0,0c-0.274,1.053-1.191,1.718-2.221,1.718l0,0     C212.18,240.356,211.997,240.332,211.791,240.288z M140.78,238.684c-1.259,0-2.29-1.031-2.29-2.29l0,0     c0.024-1.283,1.053-2.29,2.313-2.29l0,0c1.259,0.022,2.29,1.053,2.266,2.312l0,0c0,1.26-1.03,2.268-2.266,2.268l0,0     C140.78,238.684,140.78,238.684,140.78,238.684z M213.875,231.356c-1.259-0.183-2.129-1.351-1.946-2.587l0,0     c0.206-1.259,1.351-2.107,2.61-1.923l0,0c1.26,0.183,2.108,1.328,1.924,2.587l0,0c-0.161,1.145-1.145,1.969-2.244,1.969l0,0     C214.104,231.402,213.99,231.38,213.875,231.356z M140.826,229.525c-1.259,0-2.266-1.031-2.266-2.29l0,0     c0-1.282,1.03-2.29,2.312-2.29l0,0c1.26,0.022,2.267,1.053,2.267,2.312l0,0c0,1.26-1.031,2.268-2.29,2.268l0,0     C140.849,229.525,140.849,229.525,140.826,229.525z M214.951,222.266c-1.282-0.024-2.29-1.077-2.244-2.336l0,0     c0.022-1.26,1.077-2.268,2.336-2.244l0,0c1.259,0.046,2.266,1.076,2.244,2.336l0,0c-0.046,1.259-1.053,2.244-2.312,2.244l0,0     H214.951z M140.895,220.365c-1.26,0-2.29-1.031-2.268-2.29l0,0c0-1.259,1.031-2.29,2.29-2.29l0,0     c1.26,0.022,2.29,1.053,2.268,2.312l0,0c0,1.26-1.007,2.268-2.268,2.268l0,0C140.895,220.365,140.895,220.365,140.895,220.365z      M212.249,211.136c-0.16-1.259,0.734-2.404,1.97-2.564l0,0c1.259-0.161,2.404,0.732,2.564,1.991l0,0     c0.161,1.237-0.709,2.382-1.969,2.565l0,0c-0.092,0-0.206,0-0.297,0l0,0C213.394,213.128,212.386,212.304,212.249,211.136z      M140.941,211.205c-1.26,0-2.268-1.031-2.268-2.29l0,0c0-1.259,1.031-2.29,2.313-2.29l0,0c1.259,0.022,2.266,1.053,2.266,2.312     l0,0c0,1.26-1.03,2.268-2.29,2.268l0,0C140.963,211.205,140.963,211.205,140.941,211.205z M210.395,202.594     c-0.39-1.191,0.274-2.472,1.488-2.862l0,0c1.213-0.389,2.496,0.275,2.862,1.489l0,0c0,0,0,0,0.022,0l0,0     c0.367,1.213-0.297,2.496-1.511,2.885l0,0c-0.229,0.069-0.458,0.092-0.688,0.092l0,0     C211.608,204.198,210.692,203.579,210.395,202.594z M141.009,202.045c-1.259,0-2.29-1.031-2.267-2.29l0,0     c0-1.282,1.03-2.29,2.29-2.29l0,0c1.259,0.022,2.29,1.053,2.29,2.312l0,0c-0.024,1.26-1.031,2.268-2.29,2.268l0,0     C141.009,202.045,141.009,202.045,141.009,202.045z M206.799,195.038c-0.756-1.007-0.527-2.45,0.481-3.183l0,0     c1.031-0.756,2.451-0.527,3.206,0.481l0,0c0.756,1.031,0.527,2.451-0.503,3.207l0,0c-0.389,0.297-0.87,0.435-1.351,0.435l0,0     C207.921,195.977,207.234,195.656,206.799,195.038z M141.055,192.886c-1.259,0-2.266-1.031-2.266-2.29l0,0     c0-1.259,1.053-2.29,2.312-2.29l0,0c1.259,0.022,2.29,1.053,2.268,2.312l0,0c0,1.26-1.031,2.268-2.29,2.268l0,0     C141.079,192.886,141.079,192.886,141.055,192.886z M200.731,189.497c-1.077-0.664-1.42-2.084-0.756-3.16l0,0     c0.664-1.077,2.084-1.398,3.16-0.734l0,0l0,0l0,0c1.077,0.664,1.42,2.084,0.756,3.161l0,0c-0.435,0.686-1.191,1.076-1.969,1.076     l0,0C201.509,189.84,201.098,189.726,200.731,189.497z M146.07,187.367c-0.343-1.213,0.389-2.473,1.604-2.816l0,0l0,0l0,0     c1.213-0.321,2.473,0.389,2.816,1.626l0,0c0.321,1.214-0.413,2.473-1.626,2.794l0,0c-0.183,0.068-0.389,0.092-0.596,0.092l0,0     C147.261,189.062,146.345,188.397,146.07,187.367z M154.955,185.122c-0.252-1.237,0.527-2.45,1.787-2.701l0,0     c1.237-0.253,2.45,0.527,2.703,1.786l0,0c0.251,1.237-0.55,2.427-1.787,2.679v0.024c-0.16,0.022-0.321,0.046-0.458,0.046l0,0     C156.123,186.955,155.161,186.199,154.955,185.122z M192.922,186.199L192.922,186.199c-1.213-0.343-1.947-1.604-1.602-2.817l0,0     c0.32-1.214,1.602-1.947,2.816-1.603l0,0c1.213,0.343,1.947,1.603,1.602,2.816l0,0c-0.274,1.008-1.213,1.695-2.221,1.695l0,0     C193.334,186.291,193.129,186.245,192.922,186.199z M163.954,183.429c-0.16-1.26,0.71-2.405,1.969-2.589l0,0     c1.26-0.16,2.405,0.734,2.565,1.993l0,0c0.16,1.237-0.71,2.382-1.969,2.565l0,0c-0.092,0-0.206,0.022-0.297,0.022l0,0     C165.099,185.42,164.114,184.573,163.954,183.429z M184.312,184.733c-1.26-0.092-2.198-1.213-2.084-2.473l0,0     c0.092-1.259,1.214-2.175,2.473-2.083l0,0c1.259,0.091,2.198,1.213,2.084,2.472l0,0c-0.092,1.191-1.099,2.108-2.268,2.108l0,0     C184.45,184.757,184.38,184.757,184.312,184.733z M173.068,182.398c-0.046-1.259,0.916-2.312,2.176-2.382l0,0l0,0l0,0     c1.282-0.046,2.336,0.939,2.404,2.198l0,0c0.046,1.26-0.939,2.336-2.198,2.382l0,0c-0.023,0-0.068,0-0.092,0l0,0     C174.121,184.596,173.114,183.634,173.068,182.398z"/>
		</g>
		<g>
			<path style="fill:#FFFFFF;" d="M206.57,358.998c-0.618-1.099-0.252-2.496,0.847-3.137l0,0c1.077-0.618,2.473-0.252,3.114,0.848     l0,0c0.642,1.076,0.275,2.473-0.824,3.114l0,0c-0.367,0.206-0.756,0.321-1.145,0.321l0,0     C207.761,360.142,207.005,359.73,206.57,358.998z M201.968,351.074c-0.642-1.077-0.252-2.497,0.824-3.115l0,0     c1.099-0.641,2.496-0.274,3.138,0.825l0,0c0.641,1.099,0.275,2.496-0.824,3.114l0,0c-0.367,0.229-0.756,0.321-1.145,0.321l0,0     C203.158,352.219,202.402,351.807,201.968,351.074z M197.364,343.151c-0.641-1.077-0.274-2.473,0.825-3.115l0,0     c1.099-0.641,2.496-0.274,3.136,0.825l0,0c0.642,1.099,0.275,2.496-0.824,3.136l0,0c-0.367,0.207-0.756,0.299-1.145,0.299l0,0     C198.555,344.296,197.8,343.907,197.364,343.151z M192.762,335.251c-0.642-1.099-0.275-2.496,0.824-3.137l0,0     c1.099-0.641,2.497-0.274,3.137,0.825l0,0c0.641,1.099,0.252,2.496-0.824,3.136l0,0c-0.367,0.207-0.756,0.321-1.168,0.321l0,0     C193.953,336.396,193.175,335.983,192.762,335.251z M188.159,327.328c-0.641-1.099-0.274-2.496,0.825-3.138l0,0     c1.099-0.618,2.496-0.251,3.136,0.848l0,0c0.618,1.077,0.253,2.473-0.846,3.114l0,0c-0.343,0.207-0.756,0.321-1.145,0.321l0,0     C189.349,328.473,188.571,328.06,188.159,327.328z M183.556,319.405c-0.641-1.077-0.275-2.496,0.824-3.114l0,0     c1.077-0.642,2.497-0.275,3.137,0.824l0,0c0.618,1.076,0.251,2.496-0.847,3.114l0,0c-0.343,0.229-0.756,0.321-1.145,0.321l0,0     C184.747,320.549,183.969,320.137,183.556,319.405z M178.931,311.481c-0.618-1.077-0.252-2.473,0.847-3.114l0,0     c1.076-0.642,2.473-0.275,3.114,0.824l0,0c0.641,1.099,0.275,2.496-0.824,3.137l0,0c-0.367,0.206-0.756,0.297-1.145,0.297l0,0     C180.144,312.626,179.366,312.237,178.931,311.481z M174.328,303.581c-0.642-1.099-0.253-2.496,0.824-3.137l0,0     c1.099-0.641,2.496-0.274,3.138,0.825l0,0c0.641,1.099,0.274,2.496-0.825,3.137l0,0c-0.366,0.206-0.756,0.32-1.145,0.32l0,0     C175.518,304.726,174.763,304.314,174.328,303.581z M169.725,295.658c-0.641-1.099-0.252-2.496,0.824-3.137l0,0     c1.099-0.618,2.497-0.251,3.137,0.847l0,0c0.642,1.077,0.275,2.496-0.824,3.114l0,0c-0.367,0.207-0.756,0.321-1.145,0.321l0,0     C170.916,296.803,170.16,296.391,169.725,295.658z"/>
		</g>
	</g>
	<g>
		<g>
			<path style="fill:#F8301B;" d="M76.117,168.801c-20.789,2.673-41.578,4.455-62.367,5.012c-2.313,0.077-9.351,0.192-12.378,6.856     C0,183.414,0,186.472,0,188.932c0.099,3.251,0.197,6.503,0.296,9.754c0,18.424,0,36.848,0,55.272     c0,5.743-0.073,11.488-0.148,17.233C0.075,276.972,0,282.756,0,288.539c0,27.39,0,54.78,0,82.17     c0,5.896,0.878,10.052,2.839,13.177c1.021,1.526,2.07,2.458,3.638,3.603c1.548,1.012,3.273,1.423,4.925,1.723     c1.544,0.454,3.028,0.66,4.417,0.618c0.69-0.021,1.38-0.044,2.07-0.068c2.61-0.089,5.857-0.224,9.036-1.58     c7.671-3.363,7.671-10.636,7.671-13c0.001-4.479,0.002-8.959,0.003-13.438c0.288-14.788,0.587-30.081,0.587-45.125     c0-0.441,0-0.882,0-1.323c8.126-0.531,16.253-1.233,24.379-2.083c5.392-0.566,9.427-1.426,12.649-3.661     c1.599-0.866,2.657-2.061,3.602-3.129c0.212-0.239,0.403-0.497,0.571-0.769c0.945-1.541,1.408-2.977,1.754-4.598     c0.518-1.324,0.79-2.758,0.79-4.19c0-0.591,0-1.183,0-1.774c0-2.263,0-5.079-1.298-7.935c-2.967-6.134-9.614-5.324-12.452-5.013     c-9.999,1.13-19.997,2.041-29.995,2.695c0-17.797,0.013-36.131,0.294-54.125c0.148-5.35,0.222-10.623,0.297-15.895     c0.052-3.758,0.106-7.517,0.185-11.303c11.612-0.775,23.224-1.895,34.835-3.301c5.083-0.617,9.155-1.548,12.376-3.836     c1.619-0.925,2.825-2.302,3.576-3.162c0.214-0.244,0.406-0.506,0.573-0.781c0.548-0.9,1.532-2.706,2.071-4.822     c0.433-1.458,0.47-2.743,0.473-3.734c0.003-0.012,0.006-0.026,0.01-0.046c0.108-0.441,0.285-1.18,0.285-2.04     c0-2.46,0-5.519-1.299-7.917C86.804,169.647,82.516,167.976,76.117,168.801z"/>
			<path style="fill:#FF7335;" d="M80.697,173.381c-20.789,2.673-41.58,4.388-62.367,5.012c-2.313,0.069-9.351,0.192-12.378,6.856     c-1.372,2.745-1.409,5.803-1.372,8.263c0.049,3.252,0.246,6.501,0.296,9.754c0.279,18.422,0,36.848,0,55.272     c0,5.743-0.073,11.488-0.148,17.233c-0.073,5.782-0.148,11.566-0.148,17.349c0,27.39,0,54.78,0,82.171     c0,5.896,0.832,10.081,2.839,13.177c0.999,1.541,2.07,2.458,3.638,3.603c1.548,1.012,3.273,1.423,4.925,1.723     c1.544,0.454,3.028,0.66,4.417,0.618c0.69-0.021,1.38-0.044,2.07-0.068c2.61-0.089,5.864-0.208,9.036-1.58     c7.688-3.324,7.671-10.636,7.671-13c0.001-4.479-0.041-8.959,0.003-13.438c0.146-14.791,0.587-30.081,0.587-45.125     c0-0.441,0-0.882,0-1.323c8.126-0.531,16.253-1.233,24.379-2.083c5.392-0.566,9.427-1.426,12.649-3.661     c1.599-0.866,2.657-2.061,3.602-3.129c0.212-0.239,0.403-0.496,0.571-0.769c0.945-1.541,1.408-2.977,1.754-4.598     c0.518-1.324,0.79-2.758,0.79-4.19c0-0.591,0-1.183,0-1.774c0-2.263,0.034-5.095-1.298-7.935     c-2.893-6.169-9.614-5.324-12.452-5.013c-9.999,1.13-19.997,2.041-29.995,2.695c0-17.797-0.095-36.133,0.294-54.125     c0.116-5.35,0.222-10.623,0.297-15.895c0.052-3.758,0.106-7.517,0.185-11.303c11.612-0.775,23.223-1.895,34.835-3.302     c5.083-0.617,9.155-1.548,12.376-3.836c1.619-0.925,2.825-2.302,3.576-3.162c0.214-0.244,0.406-0.506,0.573-0.781     c0.548-0.9,1.532-2.706,2.071-4.822c0.433-1.458,0.47-2.743,0.473-3.734c0.003-0.012,0.006-0.026,0.01-0.046     c0.103-0.442,0.285-1.18,0.285-2.04c0-2.46,0-5.518-1.299-7.917C91.384,174.227,87.095,172.556,80.697,173.381z"/>
			<path style="fill:#FFA04A;" d="M85.277,177.961c-20.789,2.673-41.58,4.388-62.367,5.012c-2.313,0.069-9.351,0.192-12.378,6.856     c-1.372,2.745-1.409,5.803-1.372,8.263c0.049,3.252,0.246,6.502,0.296,9.754c0.279,18.422,0,36.848,0,55.272     c0,5.743-0.073,11.488-0.148,17.233c-0.073,5.782-0.148,11.565-0.148,17.349c0,27.39,0,54.78,0,82.17     c0,5.896,0.832,10.082,2.839,13.178c0.999,1.541,2.07,2.458,3.638,3.603c1.548,1.012,3.273,1.423,4.925,1.723     c1.544,0.454,3.028,0.66,4.417,0.617c0.69-0.021,1.38-0.044,2.07-0.067c2.61-0.089,5.864-0.208,9.036-1.58     c7.688-3.324,7.671-10.636,7.671-13c0.001-4.479-0.041-8.959,0.003-13.438c0.146-14.791,0.587-30.081,0.587-45.125     c0-0.441,0-0.882,0-1.323c8.126-0.531,16.253-1.233,24.379-2.083c5.392-0.566,9.427-1.426,12.649-3.661     c1.599-0.866,2.657-2.061,3.602-3.129c0.212-0.239,0.403-0.496,0.571-0.769c0.945-1.541,1.408-2.977,1.754-4.598     c0.518-1.324,0.79-2.758,0.79-4.19c0-0.591,0-1.183,0-1.774c0-2.263,0.034-5.095-1.298-7.935     c-2.893-6.169-9.614-5.324-12.453-5.013c-9.998,1.131-19.997,2.041-29.995,2.695c0-17.797-0.095-36.133,0.294-54.125     c0.116-5.35,0.222-10.623,0.297-15.895c0.052-3.758,0.106-7.517,0.185-11.303c11.611-0.775,23.223-1.895,34.835-3.302     c5.083-0.617,9.155-1.548,12.376-3.836c1.619-0.925,2.825-2.302,3.576-3.161c0.214-0.244,0.406-0.506,0.573-0.781     c0.548-0.9,1.532-2.706,2.071-4.822c0.433-1.458,0.47-2.743,0.473-3.734c0.003-0.012,0.006-0.026,0.01-0.046     c0.103-0.442,0.285-1.18,0.285-2.04c0-2.46,0-5.519-1.299-7.917C95.964,178.807,91.675,177.136,85.277,177.961z"/>
			<path style="fill:#FFD373;" d="M89.856,182.541c-20.789,2.673-41.58,4.388-62.367,5.012c-2.313,0.069-9.351,0.192-12.378,6.856     c-1.372,2.745-1.41,5.803-1.372,8.263c0.049,3.252,0.246,6.502,0.296,9.754c0.279,18.422,0,36.848,0,55.272     c0,5.743-0.073,11.488-0.148,17.233c-0.073,5.782-0.148,11.565-0.148,17.349c0,27.39,0,54.78,0,82.17     c0,5.896,0.832,10.082,2.839,13.178c0.999,1.541,2.07,2.458,3.638,3.602c1.548,1.012,3.273,1.423,4.925,1.723     c1.544,0.454,3.028,0.661,4.417,0.618c0.69-0.021,1.38-0.044,2.07-0.067c2.611-0.09,5.864-0.208,9.036-1.58     c7.688-3.324,7.671-10.636,7.671-13c0.001-4.479-0.041-8.959,0.003-13.438c0.146-14.79,0.587-30.081,0.587-45.125     c0-0.441,0-0.882,0-1.323c8.126-0.531,16.253-1.233,24.379-2.083c5.392-0.566,9.427-1.426,12.649-3.661     c1.599-0.866,2.657-2.061,3.602-3.129c0.212-0.239,0.403-0.497,0.571-0.769c0.945-1.541,1.408-2.977,1.754-4.598     c0.518-1.324,0.79-2.758,0.79-4.19c0-0.591,0-1.183,0-1.774c0-2.263,0.034-5.095-1.298-7.935     c-2.893-6.169-9.614-5.324-12.452-5.013c-9.998,1.131-19.997,2.041-29.995,2.695c0-17.797-0.095-36.133,0.294-54.125     c0.116-5.35,0.223-10.623,0.297-15.895c0.052-3.757,0.106-7.517,0.185-11.303c11.612-0.775,23.224-1.895,34.835-3.302     c5.083-0.617,9.155-1.548,12.376-3.837c1.619-0.925,2.825-2.302,3.576-3.162c0.214-0.244,0.406-0.506,0.573-0.781     c0.548-0.9,1.532-2.706,2.071-4.822c0.433-1.458,0.47-2.743,0.473-3.734c0.003-0.012,0.006-0.026,0.01-0.046     c0.103-0.442,0.285-1.18,0.285-2.04c0-2.46,0-5.519-1.299-7.917C100.544,183.387,96.255,181.716,89.856,182.541z"/>
			<path style="fill:#FFFFFF;" d="M94.436,187.121c-20.789,2.673-41.578,4.455-62.367,5.012c-2.313,0.077-9.351,0.192-12.378,6.856     c-1.372,2.744-1.372,5.803-1.372,8.263c0.098,3.251,0.197,6.503,0.296,9.754c0,18.424,0,36.848,0,55.272     c0,5.743-0.073,11.488-0.148,17.232c-0.073,5.782-0.148,11.566-0.148,17.349c0,27.39,0,54.78,0,82.17     c0,5.896,0.878,10.052,2.839,13.178c1.022,1.526,2.07,2.458,3.638,3.602c1.549,1.012,3.273,1.423,4.925,1.723     c1.544,0.454,3.028,0.661,4.417,0.618c0.69-0.021,1.38-0.044,2.07-0.068c2.61-0.089,5.857-0.224,9.036-1.58     c7.671-3.363,7.671-10.636,7.671-13c0.001-4.479,0.002-8.959,0.003-13.438c0.288-14.788,0.587-30.081,0.587-45.125     c0-0.441,0-0.882,0-1.323c8.126-0.531,16.253-1.233,24.379-2.083c4.222-0.443,8.471-1.116,12.16-3.336     c3.808-2.292,6.106-6.014,6.889-10.381c0.903-5.036,0.794-12.482-3.805-15.772c-2.801-2.003-6.357-1.949-9.628-1.579     c-9.998,1.13-19.997,2.041-29.995,2.695c0-17.797,0.013-36.131,0.294-54.125c0.148-5.35,0.222-10.623,0.297-15.895     c0.052-3.758,0.106-7.517,0.185-11.303c11.612-0.775,23.223-1.895,34.835-3.302c5.083-0.617,9.155-1.548,12.376-3.836     c1.619-0.925,2.825-2.302,3.576-3.162c0.214-0.244,0.406-0.506,0.573-0.781c0.548-0.9,1.532-2.706,2.071-4.822     c0.433-1.458,0.47-2.743,0.473-3.734c0.003-0.012,0.006-0.026,0.01-0.046c0.108-0.441,0.285-1.18,0.285-2.04     c0-2.46,0-5.519-1.299-7.917C105.124,187.967,100.835,186.296,94.436,187.121z"/>
		</g>
		<path style="fill:#FF2EDC;" d="M33.772,403.597c-0.859-0.059-1.69-0.157-2.469-0.289c-2.149-0.364-4.275-1.266-5.72-2.898    c-2.609-2.947-2.683-7.652-2.683-11.38c0,0,0-82.17,0-82.17c0-5.765,0.074-11.528,0.148-17.291    c0.074-5.764,0.148-11.528,0.148-17.291v-55.273l-0.297-9.892c0.002-1.941,0.002-4.298,0.891-6.077    c1.658-3.643,5.125-4.219,8.308-4.323c20.138-0.54,40.689-2.19,62.924-5.049c0.86-0.112,1.669-0.168,2.408-0.168    c3.806,0,4.985,1.368,5.635,2.706c0.837,1.555,0.837,3.972,0.837,5.914c0,0.32-0.089,0.687-0.155,0.955    c-0.085,0.35-0.139,0.756-0.14,1.116c-0.002,0.763-0.027,1.58-0.284,2.446c-0.457,1.778-1.263,3.202-1.592,3.74    c-0.685,0.809-1.554,1.803-2.51,2.35c-0.131,0.075-0.258,0.155-0.38,0.243c-2.143,1.523-5.12,2.398-10.276,3.023    c-11.816,1.432-23.454,2.536-34.589,3.278c-2.369,0.159-4.224,2.101-4.273,4.475c-0.078,3.797-0.133,7.566-0.186,11.336    c-0.074,5.252-0.149,10.503-0.295,15.831c-0.274,17.525-0.296,34.935-0.296,54.252c0,1.267,0.525,2.477,1.449,3.342    c0.851,0.798,1.971,1.238,3.131,1.238c0.099,0,0.199-0.003,0.299-0.01c9.774-0.639,19.938-1.552,30.211-2.714    c0.807-0.088,1.696-0.187,2.631-0.187c3.433,0,4.521,1.27,5.185,2.643c1.397,3.079,1.102,7.279,0.358,10.484    c-0.33,1.423-0.824,2.839-1.712,3.999c-2.94,3.843-8.62,4.557-13.071,5.023c-8.197,0.859-16.339,1.554-24.2,2.068    c-2.408,0.157-4.281,2.157-4.281,4.57v1.323c0,14.99-0.297,30.25-0.586,45.008l-0.004,13.554c0,3.286-0.586,6.901-4.93,8.807    C40.637,403.488,37.004,403.82,33.772,403.597z"/>
		<g>
			<circle style="fill:#FFFFFF;" cx="35.92" cy="208.019" r="2.25"/>
			<circle style="fill:#FFFFFF;" cx="91.25" cy="202.432" r="2.25"/>
			<circle style="fill:#FFFFFF;" cx="35.36" cy="386.894" r="2.25"/>
			<path style="fill:#FFFFFF;" d="M42.9,207.309c-0.12-1.229,0.78-2.33,2.01-2.46l0,0c1.24-0.13,2.34,0.78,2.47,2.011l0,0     c0.12,1.239-0.78,2.34-2.02,2.47l0,0c-0.07,0-0.15,0.01-0.23,0.01l0,0C43.99,209.339,43.02,208.469,42.9,207.309z M52.12,206.379     c-0.12-1.23,0.78-2.34,2.02-2.46l0,0c1.23-0.13,2.34,0.77,2.46,2.01l0,0c0.13,1.24-0.78,2.34-2.01,2.46l0,0     c-0.08,0.01-0.16,0.021-0.23,0.021l0,0C53.22,208.409,52.24,207.539,52.12,206.379z M61.35,205.449     c-0.13-1.23,0.77-2.34,2.01-2.46l0,0c1.23-0.13,2.34,0.77,2.46,2.01l0,0c0.13,1.229-0.77,2.34-2.01,2.46l0,0     c-0.08,0.01-0.15,0.02-0.23,0.02l0,0C62.44,207.479,61.46,206.609,61.35,205.449z M70.57,204.519     c-0.13-1.239,0.77-2.34,2.01-2.47l0,0c1.24-0.12,2.34,0.78,2.46,2.021l0,0c0.13,1.229-0.77,2.34-2.01,2.46l0,0     c-0.07,0.01-0.15,0.01-0.23,0.01l0,0C71.66,206.539,70.69,205.679,70.57,204.519z M79.79,203.589c-0.12-1.24,0.78-2.34,2.01-2.47     l0,0c1.24-0.12,2.34,0.779,2.47,2.02l0,0c0.12,1.23-0.78,2.34-2.01,2.46l0,0c-0.08,0.011-0.16,0.011-0.23,0.011l0,0     C80.88,205.609,79.91,204.749,79.79,203.589z"/>
			<path style="fill:#FFFFFF;" d="M35.38,379.719c-1.24,0-2.25-1.02-2.24-2.26l0,0c0-1.24,1.01-2.24,2.25-2.24l0,0     c1.25,0,2.25,1.01,2.25,2.26l0,0c-0.01,1.24-1.01,2.24-2.25,2.24l0,0H35.38z M35.41,370.309c-1.24-0.01-2.25-1.02-2.24-2.26l0,0     c0-1.24,1.01-2.25,2.25-2.24l0,0c1.25,0,2.25,1.011,2.25,2.25l0,0c-0.01,1.24-1.01,2.25-2.25,2.25l0,0     C35.41,370.309,35.41,370.309,35.41,370.309z M35.44,360.889c-1.24,0-2.25-1.01-2.25-2.26l0,0c0.01-1.24,1.02-2.24,2.26-2.24l0,0     c1.25,0.01,2.25,1.01,2.24,2.26l0,0c0,1.24-1.01,2.24-2.24,2.24l0,0C35.44,360.889,35.44,360.889,35.44,360.889z M35.47,351.479     c-1.25-0.01-2.25-1.02-2.24-2.26l0,0c0-1.24,1.01-2.25,2.25-2.24l0,0c1.24,0,2.25,1.011,2.25,2.25l0,0     C37.72,350.469,36.72,351.479,35.47,351.479L35.47,351.479L35.47,351.479z M35.5,342.059c-1.25,0-2.25-1.01-2.25-2.25l0,0     c0.01-1.25,1.02-2.25,2.26-2.25l0,0c1.24,0.011,2.25,1.021,2.24,2.261l0,0c0,1.239-1.01,2.239-2.24,2.239l0,0     C35.5,342.059,35.5,342.059,35.5,342.059z M35.53,332.649c-1.25,0-2.25-1.01-2.25-2.26l0,0c0.01-1.24,1.02-2.24,2.26-2.24l0,0     c1.24,0,2.25,1.011,2.24,2.261l0,0C37.78,331.649,36.77,332.649,35.53,332.649L35.53,332.649L35.53,332.649z M35.56,323.229     c-1.25,0-2.25-1.01-2.25-2.25l0,0c0.01-1.239,1.02-2.25,2.26-2.25l0,0c1.24,0.011,2.25,1.021,2.24,2.261l0,0     C37.81,322.229,36.8,323.229,35.56,323.229L35.56,323.229L35.56,323.229z M35.59,313.819c-1.25,0-2.25-1.011-2.25-2.261l0,0     c0.01-1.239,1.02-2.239,2.26-2.239l0,0c1.24,0.01,2.24,1.02,2.24,2.26l0,0C37.84,312.819,36.83,313.819,35.59,313.819     L35.59,313.819L35.59,313.819z M35.62,304.409c-1.25-0.011-2.25-1.021-2.25-2.261l0,0c0-1.239,1.02-2.25,2.26-2.239l0,0     c1.24,0,2.25,1.01,2.24,2.26l0,0C37.87,303.399,36.86,304.409,35.62,304.409L35.62,304.409L35.62,304.409z M35.64,294.989     c-1.24,0-2.24-1.011-2.24-2.25l0,0c0.01-1.24,1.01-2.25,2.26-2.24l0,0c1.24,0,2.24,1.01,2.24,2.25l0,0     c0,1.24-1.01,2.24-2.25,2.24l0,0C35.65,294.989,35.65,294.989,35.64,294.989z M35.67,285.579c-1.24,0-2.24-1.01-2.24-2.26l0,0     c0-1.24,1.02-2.24,2.26-2.24l0,0c1.24,0,2.24,1.02,2.24,2.26l0,0c0,1.24-1.01,2.24-2.25,2.24l0,0H35.67z M35.7,276.169     c-1.24-0.01-2.24-1.021-2.24-2.26l0,0c0-1.24,1.01-2.25,2.26-2.24l0,0c1.24,0,2.24,1.01,2.24,2.25l0,0     c0,1.25-1.01,2.25-2.25,2.25l0,0C35.71,276.169,35.71,276.169,35.7,276.169z M35.73,266.749c-1.24,0-2.24-1.01-2.24-2.26l0,0     c0-1.24,1.01-2.24,2.26-2.24l0,0c1.24,0.01,2.24,1.02,2.24,2.26l0,0c-0.01,1.24-1.01,2.24-2.25,2.24l0,0     C35.74,266.749,35.74,266.749,35.73,266.749z M35.76,257.339c-1.24,0-2.24-1.02-2.24-2.26l0,0c0-1.24,1.01-2.24,2.26-2.24l0,0     c1.24,0,2.24,1.01,2.24,2.26l0,0c0,1.24-1.01,2.24-2.25,2.24l0,0H35.76z M35.79,247.929c-1.24-0.01-2.25-1.02-2.24-2.26l0,0     c0-1.24,1.01-2.25,2.26-2.24l0,0c1.24,0,2.24,1.01,2.24,2.25l0,0c-0.01,1.24-1.01,2.25-2.25,2.25l0,0H35.79z M35.82,238.509     c-1.24,0-2.25-1.01-2.24-2.26l0,0c0-1.24,1.01-2.24,2.25-2.24l0,0c1.25,0,2.25,1.021,2.25,2.26l0,0     c-0.01,1.24-1.01,2.24-2.25,2.24l0,0H35.82z M35.85,229.099c-1.24-0.01-2.25-1.02-2.24-2.26l0,0c0-1.24,1.01-2.25,2.25-2.24l0,0     c1.25,0,2.25,1.011,2.25,2.25l0,0c-0.01,1.24-1.01,2.25-2.25,2.25l0,0H35.85z M35.88,219.679c-1.24,0-2.25-1.01-2.24-2.25l0,0     c0-1.25,1.01-2.25,2.25-2.25l0,0c1.25,0.01,2.25,1.021,2.25,2.26l0,0c-0.01,1.24-1.01,2.24-2.25,2.24l0,0     C35.88,219.679,35.88,219.679,35.88,219.679z"/>
		</g>
		<g>
			<path style="fill:#FFFFFF;" d="M40.687,319.427c-0.114-1.259,0.825-2.358,2.084-2.472l0,0c1.259-0.115,2.358,0.824,2.473,2.083     l0,0c0.114,1.26-0.825,2.359-2.084,2.473l0,0c-0.068,0.024-0.138,0.024-0.206,0.024l0,0     C41.786,321.535,40.779,320.618,40.687,319.427z M49.801,318.649c-0.092-1.259,0.825-2.382,2.084-2.496l0,0     c1.259-0.092,2.382,0.824,2.496,2.083l0,0c0.092,1.26-0.824,2.382-2.083,2.497l0,0c-0.069,0-0.138,0-0.207,0l0,0     C50.924,320.733,49.916,319.839,49.801,318.649z M58.938,317.847c-0.115-1.259,0.824-2.358,2.083-2.473l0,0     c1.26-0.114,2.359,0.825,2.473,2.084l0,0c0.115,1.26-0.824,2.359-2.083,2.473l0,0c-0.069,0-0.138,0-0.183,0l0,0     C60.037,319.931,59.03,319.038,58.938,317.847z M68.052,317.045c-0.115-1.259,0.824-2.358,2.084-2.472l0,0     c1.259-0.115,2.381,0.824,2.496,2.083l0,0c0.092,1.26-0.824,2.382-2.084,2.473l0,0c-0.068,0.023-0.138,0.023-0.206,0.023l0,0     C69.174,319.153,68.166,318.236,68.052,317.045z M77.188,316.267c-0.114-1.259,0.825-2.382,2.084-2.496l0,0     c1.259-0.092,2.358,0.824,2.473,2.084l0,0c0.114,1.259-0.824,2.381-2.084,2.496l0,0c-0.068,0-0.138,0-0.183,0l0,0     C78.288,318.351,77.28,317.458,77.188,316.267z"/>
		</g>
	</g>
</g>
<g>
	<g>
		<path style="fill:#FFFFFF;" d="M416.395,121.191c3.217,0,3.223-5,0-5C413.178,116.191,413.172,121.191,416.395,121.191    L416.395,121.191z"/>
	</g>
</g>















</svg>
