<?xml version="1.0" encoding="UTF-8"?>
<!-- Generator: Adobe Illustrator 25.1.0, SVG Export Plug-In . SVG Version: 6.00 Build 0)  -->
<svg xmlns="http://www.w3.org/2000/svg" xmlns:xlink="http://www.w3.org/1999/xlink" version="1.1" id="Capa_1" x="0px" y="0px" viewBox="0 0 500 500" style="enable-background:new 0 0 500 500;" xml:space="preserve" width="512" height="512">
<g>
	<g>
		<path style="fill:#FF8D33;" d="M100.724,398.282c-2.024,0.043-3.889-1.173-4.646-3.086    c-24.461-61.662-58.64-151.79-82.554-230.993c-0.39-1.292-0.228-2.689,0.447-3.857c0.675-1.17,1.804-2.007,3.117-2.316    c8.81-2.068,18.434-4.185,27.741-6.232c9.613-2.116,19.449-4.281,28.386-6.385c0.342-0.081,0.684-0.123,1.021-0.13    c2.189-0.047,4.204,1.39,4.811,3.582c11.057,39.842,25.563,83.289,39.593,125.305c4.643,13.908,9.021,27.015,13.227,39.856    c5.451-39.709,9.57-84.815,13.554-128.435c1.413-15.454,2.868-31.388,4.328-46.36c0.544-5.712,0.953-10.325,1.215-13.7    c0.181-2.336,1.993-4.215,4.32-4.481l57.361-6.545c0.151-0.017,0.3-0.027,0.45-0.03c1.306-0.028,2.578,0.469,3.523,1.391    c1.05,1.027,1.584,2.474,1.452,3.938c-4.202,46.35-9.972,96.641-15.55,145.276l-0.02,0.173    c-4.562,39.751-9.28,80.854-13.038,119.038c-0.226,2.293-2.022,4.118-4.311,4.379l-83.974,9.581    C101.025,398.269,100.875,398.279,100.724,398.282z"/>
		<path style="fill:#FFD66F;" d="M94.066,391.904c-2.024,0.044-3.889-1.173-4.646-3.086c-24.461-61.662-58.64-151.79-82.554-230.993    c-0.39-1.292-0.228-2.689,0.447-3.857c0.675-1.169,1.804-2.007,3.117-2.316c8.81-2.068,18.434-4.185,27.741-6.232    c9.613-2.116,19.45-4.281,28.386-6.385c0.342-0.081,0.684-0.123,1.021-0.13c2.19-0.047,4.204,1.39,4.811,3.582    c11.057,39.842,25.563,83.289,39.593,125.305c4.643,13.908,9.021,27.015,13.227,39.856c5.451-39.709,9.57-84.815,13.554-128.435    c1.413-15.454,2.868-31.388,4.328-46.36c0.544-5.712,0.953-10.325,1.215-13.7c0.181-2.336,1.993-4.215,4.32-4.481l57.361-6.545    c0.151-0.017,0.3-0.027,0.45-0.03c1.306-0.028,2.578,0.469,3.523,1.391c1.05,1.027,1.585,2.474,1.452,3.938    c-4.202,46.35-9.972,96.641-15.55,145.276l-0.02,0.173c-4.562,39.751-9.28,80.854-13.038,119.038    c-0.226,2.293-2.023,4.118-4.311,4.379l-83.974,9.581C94.367,391.891,94.217,391.901,94.066,391.904z"/>
		<path style="fill:#FFFFFF;" d="M87.409,385.526c-2.024,0.043-3.889-1.173-4.646-3.086c-24.46-61.662-58.64-151.79-82.554-230.993    c-0.39-1.292-0.228-2.689,0.446-3.857c0.675-1.169,1.804-2.007,3.117-2.316c8.81-2.068,18.434-4.185,27.741-6.232    c9.613-2.116,19.45-4.281,28.386-6.385c0.342-0.081,0.684-0.123,1.021-0.13c2.189-0.047,4.204,1.389,4.811,3.582    c11.057,39.842,25.563,83.289,39.593,125.305c4.643,13.908,9.021,27.015,13.227,39.856c5.451-39.709,9.57-84.815,13.554-128.435    c1.413-15.454,2.868-31.388,4.328-46.36c0.544-5.712,0.953-10.325,1.215-13.7c0.181-2.336,1.993-4.215,4.32-4.481l57.361-6.545    c0.151-0.017,0.3-0.027,0.45-0.03c1.306-0.028,2.578,0.469,3.523,1.391c1.051,1.027,1.585,2.474,1.452,3.938    c-4.202,46.351-9.972,96.641-15.55,145.276l-0.02,0.173c-4.562,39.751-9.28,80.854-13.038,119.038    c-0.226,2.293-2.023,4.118-4.311,4.379l-83.974,9.581C87.709,385.514,87.56,385.523,87.409,385.526z"/>
		<path style="fill:#FFD66F;" d="M87.307,380.638C62.4,317.853,28.607,228.587,4.889,150.034c8.755-2.055,18.348-4.166,27.674-6.217    c9.588-2.11,19.454-4.281,28.457-6.4c11.086,39.95,25.606,83.438,39.667,125.546c4.635,13.881,9.012,26.992,13.219,39.83    c0.673,2.057,2.611,3.412,4.748,3.366c0.113-0.002,0.226-0.009,0.339-0.018c2.267-0.205,4.094-1.949,4.404-4.205    c5.468-39.833,9.593-85.01,13.584-128.7c1.48-16.197,2.878-31.497,4.32-46.286c0.554-5.802,0.962-10.416,1.224-13.798    l57.361-6.545c-4.202,46.347-9.972,96.636-15.559,145.334c-4.571,39.834-9.292,80.976-13.046,119.117L87.307,380.638z"/>
		<path style="fill:#FF5182;" d="M194.471,112.144c-0.065,0.768-0.146,1.535-0.211,2.303c-0.134,1.34-0.252,2.679-0.386,4.035    c-0.345,3.675-0.705,7.4-1.082,11.125c-0.134,1.356-0.268,2.712-0.401,4.084c-0.377,3.692-0.754,7.417-1.13,11.142    c-0.133,1.372-0.284,2.728-0.417,4.101c-0.393,3.725-0.785,7.45-1.178,11.192c-0.15,1.373-0.283,2.761-0.433,4.134    c-0.393,3.725-0.802,7.451-1.21,11.193c-0.15,1.373-0.299,2.761-0.449,4.134c-0.409,3.742-0.817,7.484-1.242,11.226    c-0.15,1.372-0.3,2.729-0.45,4.085c-0.409,3.726-0.834,7.468-1.259,11.194c-0.15,1.356-0.301,2.713-0.451,4.069    c-0.425,3.726-0.835,7.435-1.26,11.145c-0.15,1.356-0.3,2.713-0.451,4.053c-0.426,3.71-0.851,7.419-1.277,11.113    c-0.151,1.307-0.302,2.615-0.454,3.922c-0.411,3.611-0.823,7.223-1.235,10.818l-0.029,0.18c0.001,0.033,0.001,0.049-0.015,0.082    c-0.136,1.274-0.287,2.566-0.439,3.84c-0.411,3.644-0.838,7.305-1.264,10.982c-0.136,1.258-0.288,2.533-0.424,3.791    c-0.428,3.628-0.838,7.272-1.249,10.9c-0.137,1.225-0.274,2.435-0.41,3.66c-0.412,3.595-0.823,7.207-1.219,10.802    c-0.137,1.209-0.274,2.402-0.412,3.612c-0.396,3.562-0.792,7.124-1.189,10.687c-0.137,1.193-0.259,2.369-0.396,3.562    c-0.397,3.53-0.778,7.059-1.159,10.572c-0.138,1.144-0.26,2.304-0.382,3.464c-0.381,3.497-0.763,6.993-1.128,10.474    c-0.122,1.16-0.244,2.304-0.366,3.448c-0.365,3.48-0.731,6.928-1.081,10.375c-0.016,0-0.016,0-0.016,0    c-0.106,1.127-0.212,2.27-0.335,3.398c-0.35,3.447-0.7,6.878-1.034,10.292c-0.056,0.441-0.095,0.882-0.135,1.323l-31.19,3.555    l-45.143,5.143c-1.172-2.974-2.379-6.013-3.587-9.117c-0.447-1.099-0.879-2.214-1.327-3.346c-1.26-3.25-2.553-6.547-3.864-9.91    c-0.431-1.099-0.863-2.215-1.311-3.346c-1.243-3.234-2.52-6.515-3.815-9.862c-0.431-1.099-0.846-2.215-1.278-3.331    c-1.26-3.25-2.52-6.532-3.782-9.863c-0.414-1.083-0.846-2.199-1.261-3.299c-1.244-3.25-2.488-6.532-3.733-9.847    c-0.415-1.1-0.83-2.199-1.245-3.299c-1.227-3.234-2.454-6.5-3.699-9.799c-0.398-1.084-0.797-2.184-1.211-3.267    c-1.211-3.251-2.422-6.518-3.65-9.817c-0.398-1.067-0.796-2.151-1.178-3.235c-1.211-3.234-2.405-6.485-3.584-9.769    c-0.398-1.067-0.796-2.135-1.194-3.218c-1.161-3.219-2.34-6.47-3.518-9.738c-0.382-1.068-0.764-2.152-1.161-3.219    c-1.162-3.235-2.307-6.471-3.469-9.723c-0.382-1.068-0.763-2.135-1.128-3.203c-1.145-3.22-2.274-6.439-3.419-9.675    c-0.365-1.068-0.731-2.136-1.112-3.204c-1.129-3.22-2.241-6.44-3.338-9.66c-0.381-1.052-0.73-2.104-1.095-3.155    c-1.113-3.22-2.209-6.441-3.289-9.661c-0.365-1.052-0.714-2.104-1.062-3.156c-1.079-3.205-2.159-6.393-3.206-9.598    c-0.365-1.052-0.714-2.104-1.046-3.156c-1.063-3.205-2.127-6.41-3.157-9.599c-0.349-1.052-0.681-2.105-1.013-3.157    c-1.047-3.205-2.061-6.395-3.058-9.569c-0.349-1.052-0.681-2.088-0.997-3.141c-1.014-3.206-2.012-6.396-2.993-9.57    c-0.332-1.052-0.648-2.089-0.964-3.125c-0.227-0.713-0.438-1.409-0.648-2.105c7.3-1.673,15.023-3.371,22.519-5.016    c6.425-1.409,12.947-2.854,19.242-4.277c1.59-0.36,3.163-0.72,4.721-1.08c0.141,0.486,0.265,0.972,0.423,1.458    c0.918,3.257,1.869,6.546,2.837,9.867c0.317,1.118,0.651,2.236,0.985,3.353c0.95,3.272,1.934,6.544,2.934,9.848    c0.334,1.118,0.684,2.235,1.018,3.369c0.999,3.271,2.016,6.575,3.049,9.879c0.35,1.117,0.7,2.251,1.05,3.368    c1.016,3.287,2.065,6.59,3.114,9.893c0.35,1.117,0.717,2.251,1.083,3.368c1.032,3.287,2.098,6.59,3.179,9.892    c0.35,1.117,0.717,2.25,1.1,3.383c1.049,3.287,2.13,6.589,3.212,9.891c0.366,1.117,0.733,2.25,1.116,3.383    c1.082,3.302,2.163,6.605,3.245,9.907c0.383,1.117,0.766,2.25,1.132,3.383c1.098,3.302,2.196,6.604,3.294,9.906    c0.383,1.133,0.75,2.266,1.132,3.383c1.098,3.318,2.196,6.62,3.31,9.922c0.367,1.133,0.749,2.25,1.132,3.383    c0.036,0.146,0.088,0.292,0.14,0.437c1.063,3.189,2.109,6.345,3.154,9.452c0.383,1.133,0.75,2.266,1.132,3.383    c1.099,3.335,2.197,6.637,3.277,9.906c0.383,1.133,0.766,2.25,1.116,3.367c1.115,3.318,2.196,6.62,3.277,9.89    c0.383,1.133,0.75,2.266,1.116,3.383c0.052,0.146,0.087,0.275,0.139,0.421c1.344,4.128,5.168,6.834,9.502,6.741    c0.212-0.005,0.423-0.025,0.635-0.046c3.742-0.325,6.838-2.69,8.185-5.996c0.31-0.757,0.537-1.56,0.649-2.41    c0.043-0.278,0.07-0.556,0.113-0.834c0.437-3.204,0.872-6.458,1.29-9.744c0.14-1.079,0.28-2.158,0.42-3.237    c0.403-3.236,0.806-6.505,1.208-9.807c0.139-1.095,0.263-2.174,0.386-3.269c0.387-3.252,0.772-6.537,1.142-9.838    c0.123-1.095,0.246-2.19,0.37-3.285c0.353-3.284,0.722-6.585,1.075-9.902c0.107-1.095,0.23-2.189,0.353-3.284    c0.336-3.316,0.689-6.633,1.024-9.982c0.107-1.095,0.23-2.189,0.337-3.3c0.336-3.333,0.671-6.682,0.991-10.031    c0.107-1.094,0.214-2.205,0.32-3.316c0.336-3.349,0.654-6.73,0.973-10.095c0.107-1.111,0.213-2.222,0.32-3.332    c0.319-3.381,0.637-6.779,0.956-10.16c0.09-1.111,0.196-2.238,0.303-3.348c0.318-3.414,0.635-6.844,0.954-10.242    c0.09-1.127,0.196-2.254,0.302-3.381c0.265-2.842,0.514-5.668,0.78-8.494c0.052-0.604,0.104-1.209,0.157-1.813    c0.106-1.127,0.212-2.271,0.318-3.414c0.317-3.447,0.634-6.926,0.951-10.388c0.106-1.143,0.212-2.287,0.317-3.43    c0.332-3.512,0.648-7.007,0.981-10.487c0.105-1.16,0.211-2.336,0.316-3.495c0.347-3.561,0.679-7.09,1.012-10.553    c0.094-0.915,0.173-1.813,0.268-2.712c0.027-0.278,0.053-0.572,0.08-0.849c0.318-3.43,0.595-6.452,0.817-9.033l23.385-2.67    l7.709-0.867L194.471,112.144z"/>
		<path style="fill:#C50649;" d="M178.16,114.01c-9.266,5.774-18.877,11.393-29.279,15.121c-0.987,0.347-1.974,0.695-2.978,1.01    c0.094-0.915,0.173-1.813,0.268-2.712c0.027-0.278,0.053-0.572,0.08-0.849c0.518-0.158,1.02-0.348,1.521-0.522    c7.91-2.844,15.421-6.836,22.68-11.181L178.16,114.01z"/>
		<path style="fill:#C50649;" d="M57.568,143.237c0.141,0.486,0.265,0.972,0.423,1.458c-1.715-0.143-3.429-0.269-5.143-0.379    C54.437,143.957,56.011,143.597,57.568,143.237z"/>
		<path style="fill:#C50649;" d="M194.26,114.447c-0.134,1.34-0.252,2.679-0.386,4.035c-2.945,1.791-5.872,3.647-8.735,5.437    c-10.825,6.818-22.003,13.856-34.282,18.261c-2.087,0.746-4.176,1.41-6.282,2.01c0.105-1.16,0.211-2.336,0.316-3.495    c1.637-0.459,3.255-0.999,4.873-1.572c11.939-4.283,22.972-11.236,33.636-17.953C186.938,118.924,190.59,116.629,194.26,114.447z"/>
		<path style="fill:#C50649;" d="M60.827,154.562c0.317,1.118,0.651,2.236,0.985,3.353c-16.462-1.407-33.104-2.06-49.114,0.924    c-0.332-1.052-0.648-2.089-0.964-3.125C27.84,152.646,44.414,153.187,60.827,154.562z"/>
		<path style="fill:#C50649;" d="M192.792,129.607c-0.134,1.356-0.268,2.712-0.401,4.084c-1.786,1.098-3.539,2.195-5.276,3.292    c-10.809,6.802-21.987,13.856-34.265,18.26c-3.155,1.127-6.346,2.076-9.573,2.863c0.106-1.143,0.212-2.287,0.317-3.43    c2.74-0.711,5.477-1.536,8.162-2.506c11.939-4.283,22.956-11.236,33.62-17.953C187.805,132.697,190.281,131.128,192.792,129.607z"/>
		<path style="fill:#C50649;" d="M64.746,167.764c0.334,1.118,0.684,2.235,1.018,3.369c-16.415-1.457-33.027-2.274-49.076,0.418    c-0.349-1.052-0.681-2.088-0.997-3.141C31.803,165.635,48.381,166.355,64.746,167.764z"/>
		<path style="fill:#C50649;" d="M191.261,144.833c-0.133,1.372-0.284,2.728-0.417,4.101c-0.579,0.371-1.158,0.742-1.737,1.097    c-10.808,6.818-21.987,13.856-34.265,18.26c-4.222,1.509-8.5,2.709-12.833,3.617c0.106-1.127,0.212-2.271,0.318-3.414    c3.845-0.849,7.653-1.925,11.406-3.277c11.955-4.283,22.973-11.22,33.636-17.937C188.655,146.47,189.957,145.643,191.261,144.833z    "/>
		<path style="fill:#C50649;" d="M68.813,181.012c0.35,1.117,0.7,2.251,1.05,3.368c-16.383-1.507-33.016-2.502-49.103-0.103    c-0.349-1.052-0.681-2.105-1.013-3.157C35.897,178.638,52.463,179.537,68.813,181.012z"/>
		<path style="fill:#C50649;" d="M189.665,160.125c-0.15,1.373-0.283,2.761-0.433,4.134c-10.23,6.431-20.832,12.951-32.4,17.079    c-5.274,1.89-10.624,3.277-16.064,4.257c0.09-1.127,0.196-2.254,0.302-3.381c4.968-0.938,9.848-2.217,14.652-3.934    c11.939-4.283,22.972-11.236,33.636-17.953C189.456,160.26,189.569,160.193,189.665,160.125z"/>
		<path style="fill:#C50649;" d="M72.977,194.273c0.35,1.117,0.717,2.251,1.083,3.368c-16.367-1.54-32.988-2.715-49.098-0.608    c-0.365-1.052-0.714-2.104-1.046-3.156C40.106,191.686,56.675,192.749,72.977,194.273z"/>
		<path style="fill:#C50649;" d="M188.022,175.452c-0.15,1.373-0.299,2.761-0.449,4.134c-9.105,5.673-18.556,11.158-28.764,14.816    c-6.309,2.271-12.748,3.811-19.296,4.783c0.09-1.111,0.196-2.238,0.303-3.348c6.076-0.962,12.06-2.411,17.9-4.509    C168.409,187.496,178.388,181.511,188.022,175.452z"/>
		<path style="fill:#C50649;" d="M77.24,207.533c0.35,1.117,0.717,2.25,1.1,3.383c-16.336-1.589-32.959-2.911-49.109-1.13    c-0.365-1.052-0.714-2.104-1.062-3.156C44.381,204.75,60.953,205.975,77.24,207.533z"/>
		<path style="fill:#C50649;" d="M186.331,190.812c-0.15,1.372-0.3,2.729-0.45,4.085c-7.965,4.85-16.231,9.38-25.08,12.553    c-7.36,2.652-14.889,4.297-22.563,5.228c0.107-1.111,0.213-2.222,0.32-3.332c7.202-0.921,14.259-2.491,21.151-4.97    C169.058,201.029,177.836,196.048,186.331,190.812z"/>
		<path style="fill:#C50649;" d="M81.551,220.808c0.366,1.117,0.733,2.25,1.116,3.383c-16.271-1.591-32.882-3.076-49.054-1.587    c-0.381-1.052-0.73-2.104-1.095-3.155C48.738,217.845,65.297,219.233,81.551,220.808z"/>
		<path style="fill:#C50649;" d="M184.621,206.09c-0.15,1.356-0.301,2.713-0.451,4.069c-6.826,3.994-13.904,7.667-21.378,10.338    c-8.412,3.017-17.031,4.735-25.849,5.592c0.107-1.094,0.214-2.205,0.32-3.316c8.345-0.848,16.509-2.506,24.436-5.334    C169.692,214.578,177.282,210.503,184.621,206.09z"/>
		<path style="fill:#C50649;" d="M85.912,234.098c0.383,1.117,0.766,2.25,1.132,3.383c-16.205-1.592-32.787-3.208-48.981-2.013    c-0.365-1.068-0.731-2.136-1.112-3.204C53.193,230.97,69.723,232.505,85.912,234.098z"/>
		<path style="fill:#C50649;" d="M182.91,221.304c-0.15,1.356-0.3,2.713-0.451,4.053c-5.687,3.138-11.527,6.002-17.674,8.204    c-9.464,3.398-19.207,5.156-29.168,5.859c0.107-1.095,0.23-2.189,0.337-3.3c9.488-0.725,18.76-2.408,27.722-5.633    C170.34,228.095,176.727,224.877,182.91,221.304z"/>
		<path style="fill:#C50649;" d="M90.338,247.386c0.383,1.133,0.75,2.266,1.132,3.383l-2.222-0.213    c-15.422-1.527-31.186-3.063-46.638-2.21c-0.382-1.068-0.763-2.135-1.128-3.203c15.971-0.995,32.209,0.612,48.088,2.162    L90.338,247.386z"/>
		<path style="fill:#C50649;" d="M181.182,236.469c-0.151,1.307-0.302,2.615-0.454,3.922c-4.514,2.363-9.146,4.5-13.951,6.217    c-10.515,3.78-21.4,5.529-32.538,6.079c0.107-1.095,0.23-2.189,0.353-3.284c10.665-0.571,21.062-2.278,31.076-5.851    C171.006,241.627,176.154,239.186,181.182,236.469z"/>
		<path style="fill:#C50649;" d="M94.781,260.691c0.367,1.133,0.749,2.25,1.132,3.383c-0.408-0.04-0.833-0.08-1.241-0.12    l-3.431-0.35c-14.539-1.432-29.389-2.89-43.999-2.315c-0.382-1.068-0.764-2.152-1.161-3.219c15.146-0.684,30.469,0.813,45.482,2.3    L94.781,260.691z"/>
		<path style="fill:#C50649;" d="M179.45,251.471c-0.136,1.274-0.287,2.566-0.439,3.84c-3.339,1.637-6.764,3.112-10.258,4.361    c-11.599,4.145-23.626,5.854-35.959,6.201c0.123-1.095,0.246-2.19,0.37-3.285c11.86-0.353,23.415-2.003,34.496-5.99    C171.688,255.159,175.612,253.412,179.45,251.471z"/>
		<path style="fill:#C50649;" d="M99.207,273.963c0.383,1.133,0.75,2.266,1.132,3.383c-1.225-0.104-2.466-0.224-3.692-0.345    l-3.414-0.334c-13.641-1.337-27.559-2.717-41.279-2.423c-0.398-1.067-0.796-2.135-1.194-3.218    c14.271-0.421,28.68,0.998,42.794,2.39l3.414,0.334C97.72,273.816,98.472,273.898,99.207,273.963z"/>
		<path style="fill:#C50649;" d="M177.747,266.294c-0.136,1.258-0.288,2.533-0.424,3.791c-2.164,0.959-4.346,1.838-6.578,2.635    c-12.683,4.56-25.902,6.164-39.479,6.26c0.139-1.095,0.263-2.174,0.386-3.269c13.104-0.135,25.834-1.696,37.999-6.065    C172.402,268.658,175.1,267.524,177.747,266.294z"/>
		<path style="fill:#C50649;" d="M103.617,287.252c0.383,1.133,0.766,2.25,1.116,3.367c-2.025-0.185-4.051-0.369-6.093-0.57    l-3.414-0.334c-12.726-1.243-25.681-2.529-38.509-2.466c-0.398-1.067-0.796-2.151-1.178-3.235    c13.347-0.173,26.792,1.169,39.992,2.467l3.431,0.334C100.513,286.96,102.065,287.106,103.617,287.252z"/>
		<path style="fill:#C50649;" d="M176.074,280.985c-0.137,1.225-0.274,2.435-0.41,3.66c-0.97,0.396-1.94,0.775-2.926,1.122    c-13.831,4.959-28.26,6.427-43.098,6.256c0.14-1.079,0.28-2.158,0.42-3.237c14.364,0.115,28.304-1.325,41.569-6.077    C173.132,282.173,174.603,281.587,176.074,280.985z"/>
		<path style="fill:#C50649;" d="M108.009,300.509c0.383,1.133,0.75,2.266,1.116,3.383c-2.825-0.233-5.651-0.498-8.494-0.779    l-3.431-0.35c-11.778-1.149-23.737-2.327-35.623-2.43c-0.398-1.084-0.797-2.184-1.211-3.267    c12.406,0.027,24.887,1.259,37.156,2.462l3.431,0.334C103.305,300.089,105.674,300.315,108.009,300.509z"/>
		<path style="fill:#C50649;" d="M174.444,295.447c-0.137,1.209-0.274,2.402-0.412,3.612c-14.869,5.21-30.444,6.425-46.446,5.953    c0.31-0.757,0.537-1.56,0.649-2.41c0.043-0.278,0.07-0.556,0.113-0.834c15.675,0.413,30.874-0.842,45.271-6.01    C173.895,295.654,174.17,295.567,174.444,295.447z"/>
		<path style="fill:#C50649;" d="M172.844,309.745c-0.137,1.193-0.259,2.369-0.396,3.562c-22.091,6.734-45.647,5.219-69.824,2.853    l-3.431-0.334c-10.798-1.056-21.76-2.141-32.671-2.395c-0.415-1.1-0.83-2.199-1.245-3.299c11.448,0.211,22.933,1.333,34.237,2.444    l3.414,0.334C127.269,315.289,150.956,316.818,172.844,309.745z"/>
		<path style="fill:#C50649;" d="M171.289,323.88c-0.138,1.144-0.26,2.304-0.382,3.464c-21.056,5.587-43.389,4.094-66.292,1.864    l-3.431-0.334c-9.802-0.963-19.75-1.939-29.67-2.297c-0.414-1.083-0.846-2.199-1.261-3.299    c10.472,0.313,20.944,1.343,31.252,2.361l3.414,0.334C127.955,328.218,150.401,329.692,171.289,323.88z"/>
		<path style="fill:#C50649;" d="M169.779,337.818c-0.122,1.16-0.244,2.304-0.366,3.448c-20.018,4.554-41.176,3.118-62.822,1.007    l-3.414-0.334c-8.789-0.871-17.709-1.755-26.602-2.167c-0.431-1.099-0.846-2.215-1.278-3.331c9.447,0.4,18.89,1.339,28.201,2.247    l3.414,0.334C128.672,341.146,149.879,342.581,169.779,337.818z"/>
		<path style="fill:#C50649;" d="M168.315,351.64c-0.106,1.127-0.212,2.27-0.335,3.398c-19.01,3.669-38.978,2.272-59.397,0.281    l-3.414-0.334c-7.76-0.762-15.618-1.539-23.469-2.006c-0.431-1.099-0.863-2.215-1.311-3.346    c8.405,0.455,16.786,1.286,25.085,2.102l3.43,0.334C129.39,354.074,149.422,355.47,168.315,351.64z"/>
		<path style="fill:#C50649;" d="M166.947,365.331c-0.056,0.441-0.095,0.882-0.135,1.323l-31.19,3.555    c-8.255-0.296-16.601-1.029-25.046-1.842l-3.431-0.334c-6.714-0.655-13.477-1.324-20.253-1.798    c-0.447-1.099-0.879-2.214-1.327-3.346c7.33,0.478,14.665,1.201,21.902,1.91l3.431,0.334    C130.174,367.017,149.047,368.356,166.947,365.331z"/>
		<polygon style="fill:#FFD66F;" points="160.036,130.169 166.387,130.032 139.942,352.973 110.278,356.369 41.437,161.509     50.227,158.953 48.862,154.257 24.42,161.364 25.785,166.06 36.734,162.876 106.966,361.669 144.341,357.39 171.323,129.926     181.508,129.708 181.403,124.819 159.93,125.28   "/>
		<polygon style="fill:#FFFFFF;" points="161.63,128.504 167.981,128.368 141.536,351.308 111.873,354.704 43.032,159.844     51.821,157.289 50.456,152.593 26.015,159.7 27.38,164.396 38.329,161.212 108.561,360.005 145.936,355.725 172.917,128.262     183.102,128.043 182.997,123.155 161.525,123.616   "/>
	</g>
	<g>
		<path style="fill:#FF8D33;" d="M250.187,381.518c-1.308,0.028-2.573-0.469-3.511-1.38c-0.938-0.912-1.473-2.161-1.483-3.47    c-0.338-43.842-2.023-92.928-3.654-140.397l-0.036-1.078c-0.678-19.805-1.321-38.511-1.859-56.677    c-0.211-6.838-0.003-18.098,0.178-28.034l0.004-0.201c0.113-6.154,0.219-11.966,0.217-16.129c-0.001-2.66,2.123-4.833,4.784-4.891    l51.895-1.115c1.359-0.029,2.668,0.509,3.614,1.484c0.948,0.975,1.444,2.301,1.375,3.658c-2.642,50.8-4.181,108.635-5.669,164.566    c-0.694,26.101-1.412,53.091-2.223,78.098c-0.084,2.597-2.186,4.674-4.783,4.73L250.187,381.518z"/>
		<path style="fill:#FFD66F;" d="M243.529,375.141c-1.308,0.028-2.573-0.469-3.511-1.38c-0.938-0.912-1.473-2.161-1.483-3.47    c-0.338-43.842-2.023-92.928-3.654-140.397l-0.036-1.078c-0.678-19.805-1.321-38.511-1.859-56.677    c-0.211-6.838-0.003-18.098,0.178-28.034l0.004-0.201c0.113-6.154,0.219-11.966,0.217-16.129c-0.001-2.66,2.123-4.833,4.784-4.891    l51.895-1.115c1.359-0.029,2.668,0.509,3.614,1.484c0.947,0.975,1.444,2.301,1.374,3.658c-2.642,50.8-4.181,108.635-5.669,164.566    c-0.694,26.101-1.412,53.091-2.223,78.098c-0.084,2.597-2.186,4.674-4.783,4.73L243.529,375.141z"/>
		<path style="fill:#FFFFFF;" d="M236.872,368.763c-1.308,0.028-2.573-0.469-3.511-1.38c-0.938-0.912-1.473-2.161-1.483-3.47    c-0.21-27.162-0.892-54.318-1.711-81.467c-0.842-27.879-1.832-55.753-2.776-83.628c-0.69-20.381-1.256-40.696-0.884-61.09    l0.004-0.201c0.113-6.154,0.219-11.966,0.217-16.129c-0.001-2.66,2.123-4.833,4.784-4.891l51.895-1.115    c1.359-0.029,2.668,0.509,3.614,1.484c0.947,0.975,1.444,2.301,1.374,3.658c-2.642,50.8-4.181,108.635-5.669,164.566    c-0.694,26.101-1.412,53.091-2.223,78.098c-0.084,2.597-2.186,4.674-4.783,4.73L236.872,368.763z"/>
		<path style="fill:#FFD66F;" d="M236.767,363.875c-0.339-43.87-2.024-92.979-3.657-140.526    c-0.691-20.183-1.346-39.248-1.894-57.732c-0.206-6.726-0.001-17.927,0.18-27.811c0.116-6.37,0.223-12.159,0.221-16.41    l51.895-1.115c-2.641,50.777-4.182,108.655-5.672,164.69c-0.729,27.417-1.422,53.404-2.224,78.069L236.767,363.875z"/>
		<path style="fill:#FF5182;" d="M278.364,125.274c-0.012,0.18-0.025,0.343-0.021,0.522c-0.137,2.709-0.274,5.434-0.395,8.192    c-0.056,1.175-0.112,2.366-0.168,3.557c-0.137,2.742-0.257,5.499-0.376,8.273c-0.056,1.175-0.096,2.35-0.152,3.541    c-0.12,2.758-0.239,5.548-0.343,8.338c-0.056,1.175-0.096,2.35-0.136,3.524c-0.119,2.79-0.238,5.613-0.324,8.435    c-0.057,1.159-0.097,2.333-0.137,3.508c-0.119,2.823-0.22,5.678-0.306,8.532c-0.057,1.159-0.097,2.301-0.138,3.459    c-0.102,2.871-0.202,5.759-0.303,8.663c-0.024,1.142-0.065,2.284-0.105,3.442c-0.101,2.904-0.185,5.824-0.285,8.76    c-0.024,1.142-0.065,2.284-0.106,3.426c-0.083,2.952-0.183,5.921-0.265,8.89c-0.041,1.126-0.066,2.251-0.107,3.377    c-0.082,3.001-0.181,6.003-0.263,9.02c-0.041,1.109-0.066,2.235-0.107,3.344c-0.081,3.05-0.162,6.117-0.243,9.167    c-0.041,1.109-0.067,2.202-0.108,3.312c-0.08,3.099-0.16,6.198-0.257,9.298c-0.009,1.092-0.051,2.202-0.076,3.295    c-0.079,3.148-0.175,6.296-0.254,9.444c-0.025,1.093-0.051,2.169-0.093,3.262c-0.078,3.181-0.156,6.377-0.251,9.542    c-0.026,1.093-0.051,2.169-0.077,3.262c-0.015,0.065-0.014,0.114-0.012,0.179c-0.079,3.148-0.174,6.313-0.253,9.493    c-0.026,1.076-0.051,2.169-0.093,3.262c-0.077,3.246-0.17,6.508-0.263,9.77c-0.026,1.076-0.051,2.169-0.077,3.246    c-0.092,3.295-0.184,6.59-0.277,9.868c-0.042,1.093-0.067,2.186-0.093,3.262c-0.092,3.328-0.183,6.655-0.291,9.967    c-0.026,1.093-0.051,2.169-0.093,3.262c-0.09,3.376-0.198,6.737-0.289,10.064c-0.041,1.109-0.067,2.202-0.109,3.295    c-0.073,2.659-0.163,5.302-0.237,7.928l-29.265,0.628c-0.013-0.587-0.009-1.19-0.022-1.776c-0.024-3.423-0.082-6.877-0.141-10.348    c-0.01-1.206-0.019-2.412-0.045-3.618c-0.057-3.422-0.115-6.861-0.189-10.331c-0.009-1.19-0.035-2.379-0.06-3.569l-0.221-10.298    c-0.025-1.19-0.067-2.362-0.093-3.552c-0.073-3.405-0.163-6.827-0.253-10.265c-0.025-1.173-0.067-2.346-0.092-3.519    c-0.09-3.421-0.196-6.843-0.286-10.28c-0.041-1.156-0.066-2.33-0.108-3.486c-0.089-3.405-0.195-6.81-0.301-10.215    c-0.042-1.173-0.066-2.33-0.108-3.486c-0.106-3.405-0.212-6.826-0.334-10.23c-0.025-1.141-0.066-2.297-0.106-3.437    c-0.106-3.405-0.228-6.809-0.333-10.214c-0.041-1.14-0.082-2.297-0.123-3.437c-0.106-3.405-0.228-6.809-0.333-10.198    c-0.041-1.14-0.081-2.264-0.122-3.404c-0.121-3.355-0.225-6.695-0.346-10.035l-0.003-0.147l-0.036-0.928    c-0.034-0.831-0.051-1.645-0.086-2.476c-0.123-3.421-0.228-6.793-0.348-10.148c-0.041-1.14-0.081-2.264-0.122-3.388    c-0.106-3.405-0.227-6.793-0.332-10.149c-0.04-1.124-0.081-2.264-0.105-3.372c-0.122-3.404-0.227-6.777-0.332-10.133    c-0.041-1.124-0.081-2.232-0.105-3.356c-0.105-3.388-0.21-6.761-0.315-10.116c-0.04-1.108-0.064-2.216-0.104-3.323l-0.004-0.179    c-0.091-2.704-0.1-6.16-0.068-9.991c0.009-1.076,0.018-2.201,0.026-3.326c0.027-3.31,0.083-6.767,0.14-10.175    c0.025-1.125,0.05-2.234,0.059-3.327c0.011-0.245,0.005-0.505,0.016-0.75l-0.004-0.195c0.078-3.197,0.125-6.312,0.162-9.165    c0.015-0.815,0.014-1.598,0.031-2.364L278.364,125.274z"/>
		<path style="fill:#C50649;" d="M278.364,125.274c-0.012,0.18-0.025,0.343-0.021,0.522c-0.33-0.172-0.659-0.328-0.973-0.501    L278.364,125.274z"/>
		<path style="fill:#C50649;" d="M256.123,125.752c7.615,1.597,14.823,4.752,21.826,8.236c-0.056,1.175-0.112,2.366-0.168,3.557    c-8.24-4.143-16.733-7.938-25.645-9.198c-5.036-0.707-10.235-0.66-15.694,0.19c0.015-0.815,0.014-1.598,0.031-2.364    L256.123,125.752z"/>
		<path style="fill:#C50649;" d="M254.58,138.175c7.996,1.132,15.543,4.133,22.824,7.644c-0.056,1.175-0.096,2.35-0.152,3.541    c-7.447-3.655-15.128-6.832-23.124-7.964c-5.723-0.806-11.653-0.63-17.919,0.581c0.025-1.125,0.05-2.234,0.059-3.327    C242.649,137.485,248.694,137.339,254.58,138.175z"/>
		<path style="fill:#C50649;" d="M256.572,151.222c7.08,1.005,13.817,3.485,20.337,6.475c-0.056,1.175-0.096,2.35-0.136,3.524    c-6.669-3.133-13.54-5.757-20.669-6.761c-6.377-0.906-13.005-0.585-20.062,1.018c0.009-1.076,0.018-2.201,0.026-3.326    C243.256,150.579,250.015,150.303,256.572,151.222z"/>
		<path style="fill:#C50649;" d="M258.548,164.286c6.213,0.877,12.141,2.869,17.901,5.37c-0.057,1.159-0.097,2.333-0.137,3.508    c-5.909-2.628-11.954-4.764-18.216-5.657c-6.917-0.976-14.128-0.512-21.878,1.464c-0.04-1.108-0.064-2.216-0.104-3.323    C244.011,163.702,251.402,163.266,258.548,164.286z"/>
		<path style="fill:#C50649;" d="M260.54,177.334c5.33,0.75,10.467,2.351,15.466,4.363c-0.057,1.159-0.097,2.301-0.138,3.459    c-5.132-2.139-10.385-3.836-15.781-4.601c-7.391-1.031-15.105-0.442-23.45,1.889c-0.041-1.124-0.081-2.232-0.105-3.356    C245.026,176.819,252.937,176.258,260.54,177.334z"/>
		<path style="fill:#C50649;" d="M262.532,190.381c4.48,0.637,8.81,1.849,13.034,3.437c-0.024,1.142-0.065,2.284-0.105,3.442    c-4.372-1.683-8.819-3.006-13.38-3.641c-7.832-1.103-16.049-0.373-25.006,2.33c-0.04-1.124-0.081-2.264-0.105-3.372    C246.058,189.936,254.455,189.251,262.532,190.381z"/>
		<path style="fill:#C50649;" d="M264.524,203.445c3.646,0.509,7.187,1.411,10.652,2.575c-0.024,1.142-0.065,2.284-0.106,3.426    c-3.597-1.276-7.27-2.24-10.998-2.78c-8.29-1.159-16.992-0.271-26.544,2.82c-0.041-1.14-0.081-2.264-0.122-3.388    C247.09,203.086,255.988,202.226,264.524,203.445z"/>
		<path style="fill:#C50649;" d="M266.516,216.493c2.812,0.396,5.581,1.038,8.288,1.843c-0.041,1.126-0.066,2.251-0.107,3.377    c-2.839-0.885-5.723-1.572-8.65-1.982c-8.715-1.231-17.903-0.17-28.049,3.309l-0.036-0.928c-0.034-0.831-0.051-1.645-0.086-2.476    C248.155,216.235,257.54,215.235,266.516,216.493z"/>
		<path style="fill:#C50649;" d="M268.492,229.557c2.011,0.283,3.992,0.68,5.943,1.177c-0.041,1.109-0.066,2.235-0.107,3.344    c-2.066-0.559-4.162-1.003-6.288-1.299c-9.157-1.303-18.814-0.069-29.57,3.846c-0.041-1.14-0.081-2.264-0.122-3.404    C249.22,229.384,259.074,228.227,268.492,229.557z"/>
		<path style="fill:#C50649;" d="M270.484,242.604c1.21,0.17,2.405,0.389,3.6,0.64c-0.041,1.109-0.067,2.202-0.108,3.312    c-1.311-0.298-2.62-0.547-3.944-0.73c-9.582-1.343-19.74,0.065-31.106,4.434c-0.041-1.14-0.082-2.297-0.123-3.437    C250.285,242.549,260.624,241.202,270.484,242.604z"/>
		<path style="fill:#C50649;" d="M272.476,255.652c0.409,0.057,0.834,0.129,1.243,0.202c-0.009,1.092-0.051,2.202-0.076,3.295    c-0.54-0.103-1.08-0.189-1.619-0.259c-10.023-1.415-20.65,0.183-32.659,5.021c-0.025-1.141-0.066-2.297-0.106-3.437    C251.367,255.73,262.191,254.194,272.476,255.652z"/>
		<path style="fill:#C50649;" d="M273.39,268.592c-0.025,1.093-0.051,2.169-0.093,3.262c-10.233-1.296-21.132,0.535-33.49,5.773    c-0.042-1.173-0.066-2.33-0.108-3.486C251.996,269.1,262.978,267.316,273.39,268.592z"/>
		<path style="fill:#C50649;" d="M273.045,281.396c-0.026,1.093-0.051,2.169-0.077,3.262c-10.01-0.796-20.674,1.357-32.754,6.67    c-0.041-1.156-0.066-2.33-0.108-3.486C252.126,282.71,262.873,280.62,273.045,281.396z"/>
		<path style="fill:#C50649;" d="M272.704,294.331c-0.026,1.076-0.051,2.169-0.093,3.262c-9.772-0.344-20.218,2.113-32.018,7.534    c-0.025-1.173-0.067-2.346-0.092-3.519C252.239,296.352,262.768,293.99,272.704,294.331z"/>
		<path style="fill:#C50649;" d="M240.846,315.392c11.476-5.333,21.787-7.967,31.502-8.029c-0.026,1.076-0.051,2.169-0.077,3.246    c-9.567,0.108-19.811,2.838-31.332,8.335C240.913,317.755,240.871,316.582,240.846,315.392z"/>
		<path style="fill:#C50649;" d="M241.16,329.242c11.23-5.409,21.34-8.283,30.834-8.764c-0.042,1.093-0.067,2.186-0.093,3.262    c-9.363,0.511-19.406,3.498-30.681,9.071C241.211,331.621,241.185,330.432,241.16,329.242z"/>
		<path style="fill:#C50649;" d="M241.409,343.142c11-5.485,20.91-8.584,30.2-9.435c-0.026,1.093-0.051,2.169-0.093,3.262    c-9.175,0.898-19.033,4.126-30.062,9.791C241.445,345.554,241.435,344.348,241.409,343.142z"/>
		<path style="fill:#C50649;" d="M241.595,357.109c10.786-5.578,20.512-8.901,29.632-10.075c-0.041,1.109-0.067,2.202-0.109,3.295    c-7.915,1.099-16.381,3.906-25.656,8.474l-3.846,0.082C241.604,358.299,241.608,357.695,241.595,357.109z"/>
		<path style="fill:#C50649;" d="M310.529,355.286c0.297,0.157,0.61,0.297,0.906,0.453l-0.995-0.028    C310.469,355.564,310.499,355.433,310.529,355.286z"/>
		<polygon style="fill:#FFD66F;" points="267.769,140.283 267.585,135.397 247.141,136.166 247.326,141.053 254.996,140.764     253.34,349.737 246.122,350.023 246.315,354.908 264.448,354.188 264.254,349.304 258.23,349.543 259.886,140.58   "/>
		<polygon style="fill:#FFFFFF;" points="269.364,138.619 269.179,133.732 248.736,134.502 248.92,139.388 256.59,139.1     254.934,348.073 247.716,348.359 247.91,353.244 266.043,352.524 265.849,347.639 259.824,347.878 261.48,138.916   "/>
	</g>
	<g>
		<path style="fill:#FF8D33;" d="M494.884,388.796l-50.61-2.341c-2.357-0.109-4.299-1.885-4.618-4.222    c-1.379-10.093-2.709-21.556-3.995-32.642c-1.304-11.246-2.652-22.875-4.063-33.147c-3.326,0.15-7.102,0.337-11.121,0.535    l-0.544,0.027c-11.569,0.571-24.664,1.217-34.972,1.439c-1.361,0.029-2.672,0.052-3.92,0.064c-3.559,14.727-8.14,38.3-9.332,56.27    c-0.168,2.539-2.251,4.511-4.77,4.565c-0.076,0.002-0.154,0.002-0.232-0.001l-49.125-1.248c-1.457-0.037-2.824-0.723-3.724-1.87    c-0.899-1.148-1.239-2.637-0.928-4.063c14.482-66.195,37.646-153.239,63.554-238.815c0.615-2.035,2.47-3.426,4.572-3.472    c0.107-0.002,0.213-0.001,0.322,0.003c10.6,0.468,23.703,1.178,36.375,1.866c12.599,0.682,25.544,1.383,35.964,1.846    c2.299,0.103,4.216,1.794,4.604,4.063c3.94,23.118,8.1,47.22,12.326,71.705l0.147,0.851    c9.562,55.397,19.428,112.55,27.861,164.705c0.573,3.562,0.987,6.248,1.291,8.275c0.214,1.446-0.229,2.913-1.208,3.997    c-0.905,1.003-2.182,1.582-3.523,1.611C495.105,388.803,494.996,388.801,494.884,388.796z M412.951,199.768    c-3.204,12.258-6.854,25.46-10.385,38.227l-0.044,0.162c-3.491,12.623-7.099,25.675-10.385,38.195    c5.627,0.488,11.417,0.927,17.212,1.304c5.813,0.385,11.488,0.818,16.874,1.289C422.216,252.65,417.833,224.857,412.951,199.768z"/>
		<path style="fill:#FFD66F;" d="M488.226,382.419l-50.609-2.341c-2.357-0.109-4.299-1.885-4.618-4.222    c-1.379-10.093-2.709-21.556-3.995-32.642c-1.303-11.246-2.652-22.875-4.063-33.147c-3.325,0.15-7.103,0.336-11.121,0.535    l-0.544,0.027c-11.569,0.571-24.664,1.218-34.972,1.439c-1.36,0.029-2.672,0.052-3.92,0.064c-3.559,14.727-8.14,38.3-9.332,56.27    c-0.168,2.539-2.251,4.511-4.77,4.565c-0.076,0.002-0.154,0.002-0.232-0.001l-49.125-1.248c-1.458-0.037-2.824-0.723-3.724-1.87    c-0.899-1.148-1.239-2.638-0.928-4.063c14.482-66.195,37.646-153.239,63.554-238.815c0.615-2.035,2.47-3.426,4.572-3.471    c0.107-0.002,0.213-0.001,0.322,0.003c10.6,0.468,23.703,1.178,36.375,1.866c12.599,0.682,25.544,1.383,35.964,1.846    c2.299,0.103,4.216,1.794,4.604,4.063c3.94,23.118,8.1,47.22,12.326,71.705l0.147,0.851    c9.562,55.397,19.428,112.55,27.861,164.705c0.573,3.562,0.988,6.248,1.29,8.274c0.214,1.446-0.229,2.913-1.208,3.997    c-0.905,1.002-2.182,1.582-3.523,1.611C488.448,382.425,488.338,382.423,488.226,382.419z M406.294,193.39    c-3.204,12.258-6.854,25.46-10.385,38.227l-0.044,0.162c-3.491,12.623-7.1,25.675-10.386,38.195    c5.627,0.488,11.417,0.927,17.212,1.303c5.813,0.385,11.488,0.818,16.874,1.289C415.558,246.273,411.175,218.479,406.294,193.39z"/>
		<path style="fill:#FFFFFF;" d="M481.569,376.041l-50.609-2.341c-2.357-0.109-4.299-1.885-4.618-4.222    c-1.379-10.093-2.709-21.556-3.995-32.642c-1.303-11.246-2.652-22.875-4.063-33.147c-3.326,0.15-7.103,0.336-11.121,0.535    l-0.544,0.027c-11.569,0.571-24.664,1.217-34.972,1.439c-1.361,0.029-2.672,0.052-3.92,0.064c-3.559,14.726-8.14,38.3-9.332,56.27    c-0.168,2.539-2.251,4.511-4.77,4.565c-0.076,0.002-0.155,0.002-0.232-0.001l-49.125-1.248c-1.458-0.037-2.824-0.723-3.724-1.87    c-0.899-1.148-1.239-2.638-0.928-4.063c14.482-66.195,37.646-153.24,63.555-238.815c0.615-2.035,2.47-3.426,4.572-3.471    c0.107-0.002,0.213-0.001,0.322,0.003c10.6,0.468,23.703,1.178,36.375,1.866c12.599,0.682,25.544,1.383,35.964,1.846    c2.299,0.103,4.216,1.794,4.604,4.063c3.94,23.118,8.1,47.22,12.326,71.705l0.147,0.851    c9.562,55.397,19.428,112.55,27.861,164.705c0.573,3.562,0.987,6.248,1.29,8.274c0.214,1.446-0.229,2.913-1.208,3.997    c-0.905,1.003-2.182,1.582-3.523,1.611C481.79,376.047,481.68,376.046,481.569,376.041z M399.636,187.012    c-3.204,12.258-6.854,25.46-10.385,38.227l-0.044,0.163c-3.491,12.623-7.1,25.675-10.386,38.195    c5.627,0.488,11.417,0.926,17.212,1.303c5.812,0.385,11.488,0.818,16.874,1.289C408.9,239.895,404.518,212.102,399.636,187.012z"/>
		<path style="fill:#FFD66F;" d="M431.185,368.816c-1.37-10.024-2.696-21.45-3.983-32.543c-1.311-11.315-2.669-23.014-4.075-33.248    c-0.34-2.465-2.472-4.276-4.948-4.223c-0.038,0.001-0.078,0.003-0.118,0.004c-3.48,0.157-7.456,0.354-11.684,0.562    c-11.528,0.569-24.592,1.214-34.836,1.434c-1.341,0.029-2.634,0.051-3.862,0.063c-0.017,0-0.036,0.001-0.054,0.001    c-2.217,0.048-4.126,1.58-4.648,3.739c-3.749,15.501-8.257,38.937-9.46,57.096l-49.125-1.248    c14.504-66.292,37.46-152.569,63.458-238.443c10.515,0.464,23.613,1.174,36.326,1.863c12.585,0.682,25.546,1.384,36.012,1.849    c3.987,23.389,8.198,47.786,12.475,72.566c9.546,55.301,19.417,112.485,27.854,164.654c0.568,3.533,0.98,6.201,1.28,8.214    L431.185,368.816z M399.529,182.121c-2.174,0.047-4.07,1.529-4.624,3.652c-3.208,12.277-6.87,25.52-10.411,38.327    c-3.507,12.682-7.132,25.796-10.402,38.258c-0.367,1.394-0.097,2.879,0.732,4.057c0.831,1.178,2.14,1.931,3.575,2.055    c5.648,0.49,11.474,0.932,17.317,1.312c5.777,0.382,11.419,0.813,16.766,1.281c0.177,0.015,0.354,0.021,0.53,0.017    c1.306-0.028,2.557-0.58,3.461-1.543c1.025-1.094,1.493-2.599,1.267-4.082c-4.018-26.365-8.411-54.229-13.306-79.379    c-0.435-2.24-2.363-3.881-4.644-3.953C399.703,182.119,399.615,182.119,399.529,182.121z"/>
		<path style="fill:#FF5182;" d="M379.813,194.448c-10.658,8.494-21.556,17.205-34.02,21.32c-1.029,3.706-2.058,7.413-3.071,11.102    c-0.317,1.181-0.634,2.361-0.951,3.525c-0.952,3.509-1.904,7.002-2.824,10.461c-0.302,1.115-0.604,2.23-0.906,3.345    c-0.874,3.312-1.749,6.591-2.624,9.87c-0.287,1.066-0.573,2.148-0.86,3.213c-0.813,3.115-1.627,6.23-2.425,9.312    c-0.287,1.049-0.558,2.115-0.829,3.164c-0.768,2.951-1.52,5.885-2.273,8.803c-0.271,1.049-0.542,2.098-0.813,3.131    c-0.706,2.819-1.428,5.606-2.118,8.392c5.651,2.014,11.383,3.244,17.43,3.179l0.375-0.008    c15.545-0.334,28.201-9.148,41.138-19.337c-2.384-0.177-4.736-0.371-7.071-0.582c-1.551-0.13-3.046-0.636-4.335-1.472    c-0.941-0.566-1.789-1.331-2.477-2.229c-0.133-0.127-0.234-0.272-0.335-0.417c-1.665-2.361-2.201-5.316-1.462-8.103    c0.091-0.328,0.165-0.655,0.256-0.984c0.407-1.557,0.83-3.115,1.252-4.689c1.13-4.295,2.308-8.641,3.487-12.986    c0.469-1.705,0.937-3.411,1.406-5.116c1.224-4.477,2.465-8.938,3.691-13.349c0.106-0.394,0.227-0.804,0.333-1.197l0.045-0.164    c0.363-1.312,0.726-2.64,1.089-3.968c1.225-4.46,2.465-8.937,3.69-13.398c0.484-1.771,0.967-3.542,1.435-5.296    c1.225-4.46,2.402-8.871,3.532-13.166C386.271,189.289,383.017,191.869,379.813,194.448z M379.813,194.448    c-10.658,8.494-21.556,17.205-34.02,21.32c-1.029,3.706-2.058,7.413-3.071,11.102c-0.317,1.181-0.634,2.361-0.951,3.525    c-0.952,3.509-1.904,7.002-2.824,10.461c-0.302,1.115-0.604,2.23-0.906,3.345c-0.874,3.312-1.749,6.591-2.624,9.87    c-0.287,1.066-0.573,2.148-0.86,3.213c-0.813,3.115-1.627,6.23-2.425,9.312c-0.287,1.049-0.558,2.115-0.829,3.164    c-0.768,2.951-1.52,5.885-2.273,8.803c-0.271,1.049-0.542,2.098-0.813,3.131c-0.706,2.819-1.428,5.606-2.118,8.392    c5.651,2.014,11.383,3.244,17.43,3.179l0.375-0.008c15.545-0.334,28.201-9.148,41.138-19.337    c-2.384-0.177-4.736-0.371-7.071-0.582c-1.551-0.13-3.046-0.636-4.335-1.472c-0.941-0.566-1.789-1.331-2.477-2.229    c-0.133-0.127-0.234-0.272-0.335-0.417c-1.665-2.361-2.201-5.316-1.462-8.103c0.091-0.328,0.165-0.655,0.256-0.984    c0.407-1.557,0.83-3.115,1.252-4.689c1.13-4.295,2.308-8.641,3.487-12.986c0.469-1.705,0.937-3.411,1.406-5.116    c1.224-4.477,2.465-8.938,3.691-13.349c0.106-0.394,0.227-0.804,0.333-1.197l0.045-0.164c0.363-1.312,0.726-2.64,1.089-3.968    c1.225-4.46,2.465-8.937,3.69-13.398c0.484-1.771,0.967-3.542,1.435-5.296c1.225-4.46,2.402-8.871,3.532-13.166    C386.271,189.289,383.017,191.869,379.813,194.448z M475.684,363.72c-0.545-3.379-1.091-6.774-1.654-10.202    c-0.187-1.121-0.374-2.242-0.561-3.362c-0.509-3.217-1.051-6.449-1.594-9.714c-0.171-1.121-0.358-2.226-0.545-3.363    c-0.525-3.217-1.068-6.465-1.611-9.714c-0.187-1.121-0.374-2.242-0.561-3.362c-0.542-3.232-1.084-6.465-1.627-9.713    c-0.187-1.121-0.374-2.242-0.561-3.362c-0.542-3.232-1.084-6.465-1.627-9.713c-0.187-1.121-0.39-2.241-0.577-3.362    c-0.542-3.232-1.085-6.481-1.644-9.729c-0.187-1.105-0.374-2.225-0.577-3.346c-0.542-3.232-1.101-6.481-1.644-9.729    c-0.203-1.12-0.39-2.241-0.577-3.362c-0.559-3.232-1.117-6.48-1.676-9.729c-0.187-1.104-0.374-2.225-0.561-3.346    c-0.559-3.248-1.118-6.497-1.676-9.745c-0.187-1.121-0.374-2.225-0.561-3.33c-0.559-3.248-1.118-6.497-1.676-9.745    c-0.203-1.12-0.391-2.241-0.577-3.346l-1.676-9.745c-0.203-1.12-0.39-2.225-0.593-3.345c-0.543-3.249-1.118-6.497-1.676-9.729    c-0.187-1.121-0.374-2.242-0.577-3.346c-0.41-2.387-0.82-4.775-1.23-7.163l-0.148-0.844c-0.094-0.569-0.204-1.153-0.298-1.722    c-0.187-1.121-0.39-2.241-0.577-3.346c-0.559-3.264-1.118-6.513-1.676-9.745c-0.187-1.121-0.39-2.225-0.577-3.346    c-0.559-3.248-1.118-6.497-1.676-9.729c-0.187-1.121-0.39-2.225-0.577-3.346c-0.559-3.265-1.118-6.513-1.676-9.745    c-0.187-1.105-0.374-2.225-0.561-3.33c-0.575-3.264-1.134-6.513-1.676-9.745c-0.203-1.104-0.39-2.225-0.577-3.33    c-0.559-3.265-1.118-6.513-1.66-9.745c-0.054-0.243-0.092-0.471-0.129-0.714c-7.311-0.348-15.569-0.79-23.957-1.23    c-2.71-0.154-5.451-0.29-8.16-0.444c-4.292-0.234-8.617-0.467-12.893-0.685c-1.844-0.107-3.688-0.198-5.516-0.289    c-4.537-0.245-8.96-0.476-13.072-0.665c-0.343-0.009-0.686-0.034-1.012-0.044c-0.106,0.377-0.228,0.755-0.334,1.132    c-1.385,4.578-2.754,9.172-4.123,13.749c-0.532,1.805-1.063,3.609-1.596,5.398c-1.338,4.512-2.659,9.007-3.965,13.502    c-0.501,1.706-1.003,3.412-1.488,5.102c-1.276,4.364-2.536,8.694-3.779,13.041c-0.44,1.525-0.863,3.051-1.304,4.576    c-1.182,4.15-2.365,8.299-3.531,12.433c-0.394,1.394-0.788,2.788-1.182,4.182c-1.105,3.936-2.195,7.872-3.284,11.791    c-0.348,1.263-0.712,2.526-1.043,3.788c-1.029,3.706-2.058,7.413-3.071,11.102c-0.317,1.181-0.634,2.361-0.951,3.525    c-0.952,3.509-1.904,7.002-2.824,10.461c-0.302,1.115-0.604,2.23-0.906,3.345c-0.874,3.312-1.749,6.591-2.624,9.87    c-0.287,1.066-0.573,2.148-0.86,3.213c-0.813,3.115-1.627,6.23-2.425,9.312c-0.287,1.049-0.558,2.115-0.829,3.164    c-0.768,2.951-1.52,5.885-2.273,8.803c-0.271,1.049-0.542,2.098-0.813,3.131c-0.706,2.819-1.428,5.606-2.118,8.392    c-0.271,1.049-0.542,2.098-0.796,3.147c-0.676,2.688-1.352,5.36-1.996,8.015c-0.271,1.065-0.541,2.131-0.795,3.196    c-0.645,2.606-1.29,5.195-1.903,7.768c-0.27,1.082-0.524,2.147-0.779,3.212c-0.63,2.557-1.228,5.08-1.826,7.587    c-0.27,1.098-0.524,2.179-0.778,3.244c-0.598,2.523-1.196,5.014-1.763,7.488c-0.27,1.098-0.524,2.18-0.761,3.26    c-0.598,2.523-1.164,5.013-1.731,7.471c-0.254,1.098-0.491,2.195-0.745,3.276c-0.581,2.539-1.147,5.046-1.696,7.535    c-0.029,0.147-0.059,0.279-0.089,0.426l0.995,0.028l17.909,0.447l10.08,0.256l9.591,0.25c0.238-2.597,0.523-5.26,0.872-7.974    c0.124-1.079,0.264-2.158,0.419-3.253c0.419-3.269,0.918-6.573,1.451-9.861c0.172-1.112,0.36-2.225,0.548-3.321    c0.594-3.469,1.221-6.906,1.883-10.229c0.22-1.162,0.44-2.308,0.676-3.422c0.767-3.766,1.554-7.369,2.313-10.727    c0.283-1.245,0.567-2.457,0.851-3.621c0.059-0.278,0.135-0.557,0.194-0.836c1.049-4.294,4.863-7.375,9.409-7.473    c1.206-0.01,2.477-0.037,3.797-0.065c1.157-0.025,2.363-0.051,3.601-0.094c1.906-0.057,3.894-0.116,5.93-0.176    c4.626-0.181,9.512-0.4,14.381-0.635c1.857-0.089,3.729-0.178,5.569-0.266c1.775-0.087,3.518-0.173,5.227-0.259l0.537-0.028    c3.632-0.176,7.084-0.348,10.178-0.479c0.342-0.024,0.684-0.047,1.01-0.054l0.212-0.005c1.434-0.031,2.809,0.25,4.044,0.793    c3.043,1.288,5.337,4.091,5.835,7.553c0.017,0.032,0.018,0.065,0.018,0.097c0.154,1.073,0.291,2.162,0.429,3.267    c0.443,3.186,0.856,6.47,1.27,9.819c0.122,1.122,0.26,2.244,0.398,3.366c0.396,3.268,0.793,6.569,1.174,9.87    c0.139,1.138,0.261,2.26,0.399,3.382c0.14,1.22,0.28,2.439,0.42,3.643c0.24,2.065,0.48,4.13,0.72,6.212    c0.138,1.138,0.261,2.293,0.4,3.431c0.397,3.301,0.778,6.602,1.173,9.821c0.155,1.154,0.294,2.292,0.432,3.414    c0.236,1.886,0.471,3.723,0.706,5.544l40.566,1.867C475.945,365.28,475.815,364.533,475.684,363.72z M379.786,222.797l0.045-0.164    c0.363-1.312,0.726-2.64,1.089-3.968c1.225-4.46,2.465-8.937,3.69-13.398c0.484-1.771,0.967-3.542,1.435-5.296    c1.225-4.46,2.402-8.871,3.532-13.166c0.212-0.754,0.408-1.508,0.603-2.263c0.331-1.279,0.926-2.432,1.703-3.443    c1.3-1.723,3.147-2.986,5.271-3.537c0.729-0.195,1.493-0.309,2.275-0.326c0.163-0.004,0.342-0.007,0.522,0.005    c1.093,0.025,2.141,0.247,3.127,0.618c3.106,1.156,5.478,3.844,6.155,7.269l0,0.016c0.219,1.087,0.422,2.192,0.641,3.295    c0.59,3.166,1.196,6.348,1.771,9.58c0.203,1.088,0.405,2.176,0.608,3.28c0.574,3.199,1.132,6.415,1.691,9.647    c0.186,1.088,0.373,2.193,0.576,3.281c0.542,3.216,1.084,6.432,1.609,9.665c0.187,1.104,0.374,2.209,0.561,3.33    c0.526,3.216,1.051,6.449,1.577,9.666c0.171,1.121,0.341,2.226,0.528,3.33c0.51,3.249,1.02,6.483,1.513,9.716    c0.17,1.089,0.34,2.193,0.511,3.298c0.51,3.266,1.004,6.515,1.497,9.733c0.094,0.585,0.172,1.17,0.266,1.755    c0.077,0.553,0.121,1.106,0.101,1.644c-0.03,2.413-0.974,4.732-2.648,6.512c-1.785,1.913-4.304,3.027-6.911,3.083    c-0.359,0.008-0.717-0.001-1.06-0.026c-1.617-0.145-3.266-0.288-4.932-0.416c-1.649-0.128-3.315-0.255-4.996-0.382    c-2.221-0.164-4.474-0.328-6.743-0.475c-1.861-0.123-3.706-0.247-5.551-0.386c-1.616-0.112-3.216-0.224-4.8-0.353    c-2.384-0.177-4.736-0.371-7.071-0.582c-1.551-0.13-3.046-0.636-4.335-1.472c-0.941-0.566-1.789-1.331-2.477-2.229    c-0.133-0.127-0.234-0.272-0.335-0.417c-1.665-2.361-2.201-5.316-1.462-8.103c0.091-0.328,0.165-0.655,0.256-0.984    c0.407-1.557,0.83-3.115,1.252-4.689c1.13-4.295,2.308-8.641,3.487-12.986c0.469-1.705,0.937-3.411,1.406-5.116    c1.224-4.477,2.465-8.938,3.691-13.349C379.558,223.601,379.68,223.191,379.786,222.797z M379.813,194.448    c-10.658,8.494-21.556,17.205-34.02,21.32c-1.029,3.706-2.058,7.413-3.071,11.102c-0.317,1.181-0.634,2.361-0.951,3.525    c-0.952,3.509-1.904,7.002-2.824,10.461c-0.302,1.115-0.604,2.23-0.906,3.345c-0.874,3.312-1.749,6.591-2.624,9.87    c-0.287,1.066-0.573,2.148-0.86,3.213c-0.813,3.115-1.627,6.23-2.425,9.312c-0.287,1.049-0.558,2.115-0.829,3.164    c-0.768,2.951-1.52,5.885-2.273,8.803c-0.271,1.049-0.542,2.098-0.813,3.131c-0.706,2.819-1.428,5.606-2.118,8.392    c5.651,2.014,11.383,3.244,17.43,3.179l0.375-0.008c15.545-0.334,28.201-9.148,41.138-19.337    c-2.384-0.177-4.736-0.371-7.071-0.582c-1.551-0.13-3.046-0.636-4.335-1.472c-0.941-0.566-1.789-1.331-2.477-2.229    c-0.133-0.127-0.234-0.272-0.335-0.417c-1.665-2.361-2.201-5.316-1.462-8.103c0.091-0.328,0.165-0.655,0.256-0.984    c0.407-1.557,0.83-3.115,1.252-4.689c1.13-4.295,2.308-8.641,3.487-12.986c0.469-1.705,0.937-3.411,1.406-5.116    c1.224-4.477,2.465-8.938,3.691-13.349c0.106-0.394,0.227-0.804,0.333-1.197l0.045-0.164c0.363-1.312,0.726-2.64,1.089-3.968    c1.225-4.46,2.465-8.937,3.69-13.398c0.484-1.771,0.967-3.542,1.435-5.296c1.225-4.46,2.402-8.871,3.532-13.166    C386.271,189.289,383.017,191.869,379.813,194.448z M379.813,194.448c-10.658,8.494-21.556,17.205-34.02,21.32    c-1.029,3.706-2.058,7.413-3.071,11.102c-0.317,1.181-0.634,2.361-0.951,3.525c-0.952,3.509-1.904,7.002-2.824,10.461    c-0.302,1.115-0.604,2.23-0.906,3.345c-0.874,3.312-1.749,6.591-2.624,9.87c-0.287,1.066-0.573,2.148-0.86,3.213    c-0.813,3.115-1.627,6.23-2.425,9.312c-0.287,1.049-0.558,2.115-0.829,3.164c-0.768,2.951-1.52,5.885-2.273,8.803    c-0.271,1.049-0.542,2.098-0.813,3.131c-0.706,2.819-1.428,5.606-2.118,8.392c5.651,2.014,11.383,3.244,17.43,3.179l0.375-0.008    c15.545-0.334,28.201-9.148,41.138-19.337c-2.384-0.177-4.736-0.371-7.071-0.582c-1.551-0.13-3.046-0.636-4.335-1.472    c-0.941-0.566-1.789-1.331-2.477-2.229c-0.133-0.127-0.234-0.272-0.335-0.417c-1.665-2.361-2.201-5.316-1.462-8.103    c0.091-0.328,0.165-0.655,0.256-0.984c0.407-1.557,0.83-3.115,1.252-4.689c1.13-4.295,2.308-8.641,3.487-12.986    c0.469-1.705,0.937-3.411,1.406-5.116c1.224-4.477,2.465-8.938,3.691-13.349c0.106-0.394,0.227-0.804,0.333-1.197l0.045-0.164    c0.363-1.312,0.726-2.64,1.089-3.968c1.225-4.46,2.465-8.937,3.69-13.398c0.484-1.771,0.967-3.542,1.435-5.296    c1.225-4.46,2.402-8.871,3.532-13.166C386.271,189.289,383.017,191.869,379.813,194.448z"/>
		<path style="fill:#C50649;" d="M372.433,127.117c-0.449,0.368-0.898,0.72-1.346,1.088c0.106-0.377,0.228-0.755,0.334-1.132    C371.747,127.083,372.09,127.109,372.433,127.117z"/>
		<path style="fill:#C50649;" d="M391.021,128.071c-6.659,4.17-12.974,9.212-19.16,14.154c-2.148,1.709-4.311,3.434-6.492,5.128    c0.532-1.788,1.064-3.593,1.596-5.398c0.946-0.754,1.891-1.508,2.853-2.278c5.097-4.071,10.289-8.209,15.688-11.895    C387.332,127.873,389.176,127.964,391.021,128.071z"/>
		<path style="fill:#C50649;" d="M436.161,131.145c-9.082-0.865-18.073-0.508-26.77,2.173c-13.085,4.03-24.496,13.144-35.539,21.972    c-4.568,3.636-9.184,7.321-13.937,10.667c0.485-1.689,0.987-3.396,1.488-5.102c3.466-2.585,6.911-5.333,10.405-8.114    c11.283-9.013,22.951-18.327,36.618-22.549c1.215-0.368,2.43-0.704,3.647-0.991c8.389,0.439,16.647,0.881,23.957,1.23    C436.069,130.674,436.107,130.901,436.161,131.145z"/>
		<path style="fill:#C50649;" d="M438.398,144.219c-9.181-0.895-18.254-0.57-27.015,2.145c-13.085,4.047-24.512,13.16-35.555,21.972    c-6.763,5.411-13.671,10.906-20.995,15.237c0.44-1.525,0.864-3.051,1.304-4.576c5.949-3.861,11.751-8.485,17.665-13.209    c11.283-8.996,22.951-18.311,36.619-22.533c8.988-2.769,18.173-3.194,27.401-2.365    C438.008,141.994,438.195,143.115,438.398,144.219z"/>
		<path style="fill:#C50649;" d="M440.635,157.294c-9.247-0.926-18.418-0.615-27.26,2.118c-13.085,4.047-24.512,13.16-35.555,21.972    c-8.815,7.036-17.806,14.206-27.7,18.804c0.394-1.394,0.788-2.788,1.182-4.182c8.432-4.354,16.334-10.654,24.491-17.17    c11.283-8.996,22.951-18.311,36.619-22.533c9.069-2.803,18.336-3.198,27.663-2.338    C440.261,155.069,440.448,156.19,440.635,157.294z"/>
		<path style="fill:#C50649;" d="M391.883,181.099c-0.777,1.011-1.372,2.165-1.703,3.443c-0.196,0.754-0.391,1.508-0.603,2.263    c-3.305,2.484-6.559,5.064-9.764,7.643c-10.658,8.494-21.556,17.205-34.02,21.32c0.332-1.262,0.696-2.525,1.043-3.788    c10.932-4.115,20.74-11.938,30.95-20.08C382.385,188.231,387.049,184.495,391.883,181.099z"/>
		<path style="fill:#C50649;" d="M442.889,170.385c-9.346-0.973-18.599-0.676-27.538,2.091c-4.243,1.314-8.327,3.162-12.274,5.382    c-0.986-0.37-2.034-0.592-3.127-0.618c-0.18-0.012-0.359-0.009-0.522-0.005c-0.782,0.017-1.546,0.131-2.275,0.326    c5.436-3.426,11.145-6.32,17.234-8.195c9.15-2.821,18.515-3.218,27.924-2.328C442.499,168.16,442.702,169.264,442.889,170.385z"/>
		<path style="fill:#C50649;" d="M386.044,199.971c-0.468,1.754-0.951,3.525-1.435,5.296c-0.946,0.738-1.875,1.491-2.805,2.228    c-12.325,9.834-25.019,19.953-40.034,22.9c0.317-1.164,0.634-2.345,0.951-3.525c13.464-3.093,24.971-12.29,37.039-21.923    C381.844,203.289,383.928,201.63,386.044,199.971z"/>
		<path style="fill:#C50649;" d="M445.142,183.459c-9.444-0.987-18.779-0.721-27.799,2.064c-2.542,0.788-5.032,1.771-7.469,2.915    c-0.219-1.104-0.422-2.208-0.641-3.295l0-0.016c2.325-1.044,4.702-1.959,7.147-2.713c9.247-2.856,18.694-3.222,28.185-2.301    C444.752,181.235,444.955,182.339,445.142,183.459z"/>
		<path style="fill:#C50649;" d="M380.92,218.665c-0.363,1.328-0.725,2.657-1.089,3.968l-0.045,0.164    c-0.106,0.394-0.227,0.804-0.333,1.197c-12.52,9.871-25.655,19.151-41.413,20.207c0.302-1.115,0.604-2.23,0.906-3.345    C354.63,239.411,367.473,229.403,380.92,218.665z"/>
		<path style="fill:#C50649;" d="M447.396,196.551c-9.526-1.034-18.959-0.783-28.06,2.037c-2.413,0.737-4.774,1.651-7.082,2.712    c-0.203-1.104-0.406-2.192-0.608-3.28c2.179-0.992,4.427-1.839,6.727-2.557c9.328-2.874,18.873-3.226,28.447-2.258    C447.005,194.309,447.209,195.43,447.396,196.551z"/>
		<path style="fill:#C50649;" d="M375.762,237.344c-0.469,1.705-0.937,3.411-1.406,5.116c-10.978,8.044-22.688,14.605-36.359,14.898    l-0.391,0.008c-1.027,0.006-2.038-0.005-3.05-0.081c0.287-1.066,0.573-2.148,0.86-3.213c0.702,0.034,1.419,0.051,2.136,0.036    l0.391-0.008C352.151,253.794,363.958,246.384,375.762,237.344z"/>
		<path style="fill:#C50649;" d="M449.649,209.625c-9.608-1.065-19.14-0.828-28.322,2.01c-2.316,0.718-4.579,1.582-6.807,2.592    c-0.203-1.088-0.389-2.192-0.576-3.281c2.083-0.925,4.234-1.738,6.42-2.42c9.409-2.908,19.036-3.229,28.708-2.247    C449.275,207.383,449.462,208.504,449.649,209.625z"/>
		<path style="fill:#C50649;" d="M370.869,255.446c-0.423,1.574-0.846,3.132-1.252,4.689c-9.037,5.802-18.694,10.036-29.628,10.271    l-0.407,0.009c-2.82,0.028-5.58-0.206-8.279-0.654c0.271-1.049,0.541-2.115,0.829-3.164c2.438,0.404,4.887,0.596,7.413,0.558    l0.391-0.008C351.39,266.9,361.278,262.042,370.869,255.446z"/>
		<path style="fill:#C50649;" d="M451.919,222.699c-9.706-1.079-19.32-0.873-28.6,1.984c-2.251,0.7-4.466,1.547-6.629,2.539    c-0.187-1.121-0.374-2.225-0.561-3.33c2.019-0.891,4.105-1.67,6.226-2.318c9.49-2.926,19.216-3.233,28.97-2.22    C451.529,220.474,451.715,221.579,451.919,222.699z"/>
		<path style="fill:#C50649;" d="M373.634,271.867c-9.609,6.466-19.906,11.333-31.654,11.586l-0.407,0.009    c-4.596,0.05-9.028-0.621-13.356-1.767c0.271-1.033,0.542-2.082,0.813-3.131c4.066,1.07,8.203,1.682,12.506,1.639l0.375-0.008    c10.787-0.232,20.182-4.542,29.247-10.556C371.845,270.537,372.693,271.301,373.634,271.867z"/>
		<path style="fill:#C50649;" d="M454.172,235.79c-9.805-1.126-19.517-0.934-28.877,1.957c-2.219,0.684-4.385,1.512-6.5,2.471    c-0.187-1.105-0.357-2.209-0.528-3.33c1.97-0.874,3.992-1.618,6.064-2.266c9.587-2.961,19.411-3.237,29.264-2.177    C453.782,233.549,453.969,234.669,454.172,235.79z"/>
		<path style="fill:#C50649;" d="M389.841,274.274c-13.8,10.99-28.173,21.863-45.868,22.243l-0.407,0.009    c-6.34,0.071-12.4-1.25-18.264-3.292c0.255-1.049,0.526-2.098,0.796-3.147c5.651,2.014,11.383,3.244,17.43,3.179l0.375-0.008    c15.545-0.334,28.201-9.148,41.138-19.337C386.625,274.05,388.225,274.162,389.841,274.274z"/>
		<path style="fill:#C50649;" d="M456.41,248.865c-9.888-1.157-19.681-0.996-29.122,1.93c-2.202,0.683-4.353,1.495-6.468,2.438    c-0.17-1.105-0.341-2.21-0.511-3.298c1.954-0.857,3.959-1.617,6.016-2.248c9.668-2.995,19.574-3.241,29.525-2.15    C456.036,246.639,456.222,247.744,456.41,248.865z"/>
		<path style="fill:#C50649;" d="M345.895,306.306c4.236-0.091,8.264-0.813,12.134-2.021c-0.285,1.164-0.568,2.376-0.851,3.621    c-3.598,0.99-7.334,1.576-11.229,1.659l-0.391,0.008c-8.084,0.092-15.694-2.059-23.047-5.129c0.254-1.065,0.525-2.13,0.795-3.196    c7.19,3.073,14.457,5.167,22.214,5.065L345.895,306.306z"/>
		<path style="fill:#C50649;" d="M402.135,275.135c1.682,0.127,3.347,0.254,4.996,0.382c-4.576,3.244-9.016,6.796-13.407,10.297    c-4.183,3.35-8.414,6.718-12.765,9.827c-2.036,0.06-4.024,0.119-5.93,0.176c5.609-3.723,11.075-8.079,16.668-12.552    C395.127,280.535,398.589,277.771,402.135,275.135z"/>
		<path style="fill:#C50649;" d="M458.647,261.956c-9.97-1.188-19.846-1.057-29.368,1.886c-2.251,0.701-4.45,1.547-6.597,2.522    c0.021-0.538-0.023-1.092-0.101-1.644c-0.094-0.585-0.172-1.17-0.266-1.755c1.954-0.857,3.96-1.601,6-2.232    c9.749-3.013,19.737-3.244,29.77-2.123C458.273,259.73,458.46,260.851,458.647,261.956z"/>
		<path style="fill:#C50649;" d="M347.887,319.37c2.395-0.052,4.721-0.297,6.977-0.737c-0.237,1.114-0.457,2.26-0.676,3.422    c-2.03,0.337-4.113,0.529-6.247,0.574c-0.13,0.003-0.261,0.006-0.391-0.008c-9.795,0.129-18.927-3.082-27.721-7.197    c0.254-1.065,0.509-2.13,0.779-3.212c8.745,4.148,17.436,7.271,26.888,7.149C347.626,319.375,347.757,319.372,347.887,319.37z"/>
		<path style="fill:#C50649;" d="M460.9,275.047c-10.052-1.235-20.026-1.119-29.629,1.859c-11.045,3.4-20.903,10.426-30.362,17.834    c-1.84,0.088-3.713,0.178-5.569,0.266c10.771-8.578,21.964-17.214,34.968-21.226c9.83-3.031,19.916-3.248,30.016-2.096    C460.51,272.805,460.697,273.926,460.9,275.047z"/>
		<path style="fill:#C50649;" d="M349.863,332.417c0.815-0.017,1.645-0.052,2.442-0.134c-0.188,1.096-0.376,2.209-0.548,3.321    c-0.603,0.029-1.205,0.059-1.824,0.072l-0.407,0.009c-11.523,0.133-22.1-4.318-32.301-9.43c0.254-1.065,0.508-2.146,0.778-3.244    c10.333,5.223,20.387,9.555,31.485,9.415L349.863,332.417z"/>
		<path style="fill:#C50649;" d="M463.121,288.122c-10.134-1.25-20.19-1.148-29.874,1.832c-3.838,1.191-7.537,2.803-11.13,4.754    c-1.234-0.544-2.61-0.824-4.044-0.793l-0.212,0.005c-0.326,0.007-0.668,0.031-1.01,0.054c4.892-2.958,10.006-5.448,15.448-7.13    c9.895-3.065,20.046-3.267,30.244-2.068C462.747,285.897,462.935,287.017,463.121,288.122z"/>
		<path style="fill:#C50649;" d="M315.462,333.743c11.589,5.995,22.598,11.545,34.844,11.723c-0.156,1.096-0.296,2.174-0.419,3.253    c-12.591-0.3-24.092-5.971-35.186-11.715C314.938,335.923,315.192,334.841,315.462,333.743z"/>
		<path style="fill:#C50649;" d="M465.342,301.213c-10.216-1.297-20.354-1.209-30.103,1.804c-2.332,0.719-4.612,1.599-6.84,2.608    c-0.138-1.105-0.275-2.195-0.429-3.267c-0.001-0.033-0.001-0.065-0.018-0.097c2.051-0.908,4.169-1.703,6.323-2.369    c9.992-3.084,20.226-3.255,30.489-2.041C464.952,298.972,465.155,300.093,465.342,301.213z"/>
		<path style="fill:#C50649;" d="M316.547,346.321c7.715,3.991,15.166,7.858,22.877,10.121l-10.08-0.256    c-4.87-2.08-9.618-4.537-14.299-6.964c-0.94-0.485-1.879-0.97-2.819-1.472c0.254-1.081,0.491-2.179,0.745-3.276    C314.173,345.084,315.36,345.711,316.547,346.321z"/>
		<path style="fill:#C50649;" d="M467.531,314.289c-10.298-1.311-20.486-1.255-30.3,1.776c-2.445,0.753-4.822,1.685-7.163,2.746    c-0.138-1.122-0.276-2.244-0.398-3.366c2.148-0.959,4.347-1.789,6.598-2.489c10.057-3.101,20.356-3.257,30.702-2.029    C467.156,312.048,467.343,313.168,467.531,314.289z"/>
		<path style="fill:#C50649;" d="M469.719,327.365c-10.348-1.343-20.617-1.301-30.496,1.747c-2.591,0.806-5.113,1.789-7.582,2.951    c-0.138-1.122-0.26-2.244-0.399-3.382c2.277-1.027,4.621-1.941,7.017-2.677c10.105-3.119,20.487-3.26,30.898-2    C469.344,325.124,469.532,326.244,469.719,327.365z"/>
		<path style="fill:#C50649;" d="M471.874,340.442c-10.397-1.358-20.732-1.332-30.659,1.734c-2.753,0.842-5.42,1.926-8.034,3.172    c-0.139-1.138-0.261-2.293-0.4-3.431c2.421-1.112,4.911-2.078,7.47-2.866c10.17-3.136,20.617-3.263,31.078-1.972    C471.517,338.216,471.703,339.321,471.874,340.442z"/>
		<path style="fill:#C50649;" d="M474.03,353.518c-10.463-1.389-20.847-1.378-30.839,1.706c-2.882,0.893-5.678,2.029-8.405,3.359    c-0.138-1.122-0.277-2.26-0.432-3.414c2.566-1.196,5.185-2.231,7.89-3.055c10.219-3.154,20.698-3.265,31.225-1.959    C473.656,351.277,473.843,352.398,474.03,353.518z"/>
		<path style="fill:#FFD66F;" d="M457.016,354.836l-33.999-213.443l-40.259-0.964l-57.248,206.508l-7.179-0.756l-0.513,4.863    l20.837,2.193l0.513-4.863l-8.728-0.919l17.549-63.306l93.06,1.53l11.012,69.135l-11.693-0.053l-0.022,4.889l25.412,0.115    l0.022-4.89L457.016,354.836z M349.338,279.281l37.111-133.873l32.378,0.776l21.439,134.592L349.338,279.281z"/>
		<path style="fill:#FFFFFF;" d="M458.61,353.172l-33.999-213.443l-40.259-0.965l-57.248,206.508l-7.179-0.756l-0.513,4.863    l20.837,2.193l0.513-4.863l-8.728-0.918l17.549-63.306l93.06,1.53l11.012,69.135l-11.693-0.053l-0.022,4.889l25.412,0.115    l0.022-4.889L458.61,353.172z M350.932,277.617l37.112-133.873l32.378,0.776l21.439,134.592L350.932,277.617z"/>
	</g>
</g>















</svg>
